<svg width="43" height="43" viewBox="0 0 43 43" fill="none" xmlns="http://www.w3.org/2000/svg">
<rect width="43" height="43" rx="8" fill="#0928F5"/>
<path d="M11.0619 34H10.5094L9.87891 32.557H7.96141L7.38941 34H6.86941L8.58541 29.71H9.17691L11.0619 34ZM8.14341 32.102H9.67741L8.87141 30.256L8.14341 32.102ZM12.5942 34.078C12.3732 34.078 12.1804 34.0347 12.0157 33.948C11.8511 33.8613 11.7146 33.7465 11.6062 33.6035C11.4979 33.4605 11.4156 33.2958 11.3592 33.1095C11.3072 32.9188 11.2812 32.7195 11.2812 32.5115C11.2812 32.2992 11.3094 32.0955 11.3657 31.9005C11.4264 31.7055 11.5131 31.5365 11.6257 31.3935C11.7427 31.2462 11.8879 31.1292 12.0612 31.0425C12.2346 30.9558 12.4361 30.9125 12.6657 30.9125C12.9561 30.9125 13.1944 30.9753 13.3807 31.101C13.5671 31.2267 13.6884 31.3827 13.7447 31.569V29.19H14.1997V34H13.8422L13.7902 33.467H13.7642C13.6602 33.6273 13.5086 33.7703 13.3092 33.896C13.1099 34.0173 12.8716 34.078 12.5942 34.078ZM12.6462 33.6945C12.8542 33.6945 13.0579 33.6382 13.2572 33.5255C13.4609 33.4128 13.6234 33.2503 13.7447 33.038V32.0825C13.6667 31.8355 13.5346 31.6427 13.3482 31.504C13.1662 31.3653 12.9604 31.296 12.7307 31.296C12.5791 31.296 12.4426 31.3263 12.3212 31.387C12.2042 31.4477 12.1046 31.5322 12.0222 31.6405C11.9399 31.7488 11.8749 31.8788 11.8272 32.0305C11.7839 32.1822 11.7622 32.349 11.7622 32.531C11.7622 32.6697 11.7774 32.8083 11.8077 32.947C11.8381 33.0857 11.8879 33.2113 11.9572 33.324C12.0266 33.4323 12.1176 33.5212 12.2302 33.5905C12.3429 33.6598 12.4816 33.6945 12.6462 33.6945ZM16.333 34.078C16.112 34.078 15.9192 34.0347 15.7545 33.948C15.5898 33.8613 15.4533 33.7465 15.345 33.6035C15.2367 33.4605 15.1543 33.2958 15.098 33.1095C15.046 32.9188 15.02 32.7195 15.02 32.5115C15.02 32.2992 15.0482 32.0955 15.1045 31.9005C15.1652 31.7055 15.2518 31.5365 15.3645 31.3935C15.4815 31.2462 15.6267 31.1292 15.8 31.0425C15.9733 30.9558 16.1748 30.9125 16.4045 30.9125C16.6948 30.9125 16.9332 30.9753 17.1195 31.101C17.3058 31.2267 17.4272 31.3827 17.4835 31.569V29.19H17.9385V34H17.581L17.529 33.467H17.503C17.399 33.6273 17.2473 33.7703 17.048 33.896C16.8487 34.0173 16.6103 34.078 16.333 34.078ZM16.385 33.6945C16.593 33.6945 16.7967 33.6382 16.996 33.5255C17.1997 33.4128 17.3622 33.2503 17.4835 33.038V32.0825C17.4055 31.8355 17.2733 31.6427 17.087 31.504C16.905 31.3653 16.6992 31.296 16.4695 31.296C16.3178 31.296 16.1813 31.3263 16.06 31.387C15.943 31.4477 15.8433 31.5322 15.761 31.6405C15.6787 31.7488 15.6137 31.8788 15.566 32.0305C15.5227 32.1822 15.501 32.349 15.501 32.531C15.501 32.6697 15.5162 32.8083 15.5465 32.947C15.5768 33.0857 15.6267 33.2113 15.696 33.324C15.7653 33.4323 15.8563 33.5212 15.969 33.5905C16.0817 33.6598 16.2203 33.6945 16.385 33.6945ZM23.7255 30.425C23.5869 30.334 23.4157 30.2582 23.212 30.1975C23.0084 30.1368 22.7765 30.1065 22.5165 30.1065C22.2262 30.1065 21.9814 30.1498 21.782 30.2365C21.5827 30.3188 21.4202 30.4358 21.2945 30.5875C21.1732 30.7392 21.0844 30.9233 21.028 31.14C20.976 31.3523 20.95 31.5885 20.95 31.8485C20.95 32.4422 21.08 32.8907 21.34 33.194C21.6 33.4973 21.9879 33.649 22.5035 33.649C22.7765 33.649 23.0279 33.61 23.2575 33.532C23.4872 33.454 23.6714 33.3587 23.81 33.246L23.94 33.6815C23.7667 33.7855 23.5565 33.8787 23.3095 33.961C23.0669 34.039 22.7917 34.078 22.484 34.078C22.1287 34.078 21.821 34.0195 21.561 33.9025C21.301 33.7855 21.0844 33.6273 20.911 33.428C20.742 33.2287 20.6164 32.999 20.534 32.739C20.4517 32.4747 20.4105 32.1952 20.4105 31.9005C20.4105 31.5928 20.456 31.3047 20.547 31.036C20.638 30.7673 20.7724 30.5333 20.95 30.334C21.132 30.1303 21.3552 29.97 21.6195 29.853C21.8882 29.736 22.2002 29.6775 22.5555 29.6775C22.7895 29.6775 23.0235 29.7035 23.2575 29.7555C23.4915 29.8032 23.693 29.8703 23.862 29.957L23.7255 30.425ZM25.2114 34H24.7564V29.19H25.2114V34ZM26.7213 34H26.2663V31.01H26.7213V34ZM26.1688 29.918C26.1688 29.8313 26.1991 29.7533 26.2598 29.684C26.3248 29.6147 26.4028 29.58 26.4938 29.58C26.5804 29.58 26.6584 29.6147 26.7278 29.684C26.7971 29.7533 26.8318 29.8313 26.8318 29.918C26.8318 30.009 26.7971 30.087 26.7278 30.152C26.6584 30.2127 26.5804 30.243 26.4938 30.243C26.4028 30.243 26.3248 30.2127 26.2598 30.152C26.1991 30.087 26.1688 30.009 26.1688 29.918ZM29.0716 30.9125C29.4529 30.9125 29.7476 31.01 29.9556 31.205C30.1636 31.3957 30.2676 31.6665 30.2676 32.0175C30.2676 32.0912 30.2633 32.167 30.2546 32.245C30.2459 32.3187 30.2308 32.3728 30.2091 32.4075H28.0186V32.4725C28.0186 32.6372 28.0403 32.7953 28.0836 32.947C28.1269 33.0987 28.1919 33.233 28.2786 33.35C28.3653 33.467 28.4736 33.5602 28.6036 33.6295C28.7379 33.6988 28.8961 33.7335 29.0781 33.7335C29.1821 33.7335 29.2839 33.7227 29.3836 33.701C29.4833 33.675 29.5786 33.6447 29.6696 33.61C29.7606 33.571 29.8451 33.5298 29.9231 33.4865C30.0011 33.4432 30.0704 33.3998 30.1311 33.3565L30.2091 33.727C30.1528 33.7617 30.0834 33.8007 30.0011 33.844C29.9188 33.883 29.8278 33.9198 29.7281 33.9545C29.6284 33.9892 29.5179 34.0173 29.3966 34.039C29.2796 34.065 29.1561 34.078 29.0261 34.078C28.7834 34.078 28.5689 34.0368 28.3826 33.9545C28.1963 33.8678 28.0403 33.753 27.9146 33.61C27.7889 33.4627 27.6936 33.2937 27.6286 33.103C27.5636 32.9123 27.5311 32.713 27.5311 32.505C27.5311 32.2927 27.5636 32.0912 27.6286 31.9005C27.6979 31.7055 27.7976 31.5343 27.9276 31.387C28.0576 31.2397 28.2179 31.1248 28.4086 31.0425C28.6036 30.9558 28.8246 30.9125 29.0716 30.9125ZM29.0521 31.2765C28.7661 31.2765 28.5429 31.3523 28.3826 31.504C28.2266 31.6513 28.1204 31.8377 28.0641 32.063H29.8386C29.8429 32.0413 29.8451 32.0218 29.8451 32.0045C29.8451 31.9872 29.8451 31.9677 29.8451 31.946C29.8451 31.8377 29.8234 31.7423 29.7801 31.66C29.7368 31.5733 29.6783 31.5018 29.6046 31.4455C29.5309 31.3892 29.4464 31.348 29.3511 31.322C29.2558 31.2917 29.1561 31.2765 29.0521 31.2765ZM33.19 34V32.024C33.19 31.764 33.1315 31.5777 33.0145 31.465C32.8975 31.3523 32.748 31.296 32.566 31.296C32.4577 31.296 32.3493 31.3133 32.241 31.348C32.137 31.3827 32.0395 31.4347 31.9485 31.504C31.8575 31.569 31.7773 31.6513 31.708 31.751C31.6387 31.8463 31.5845 31.9568 31.5455 32.0825V34H31.0905V31.01H31.448L31.5 31.569H31.526C31.5823 31.387 31.708 31.2332 31.903 31.1075C32.098 30.9775 32.3407 30.9125 32.631 30.9125C32.7697 30.9125 32.8997 30.932 33.021 30.971C33.1467 31.0057 33.255 31.0642 33.346 31.1465C33.437 31.2288 33.5085 31.3372 33.5605 31.4715C33.6168 31.6058 33.645 31.7705 33.645 31.9655V34H33.19ZM34.769 31.3155H34.2685V31.075L34.782 31.01L34.8795 30.1065H35.224V31.01H35.926V31.3155H35.224V33.389C35.224 33.5277 35.2435 33.6187 35.2825 33.662C35.3258 33.7053 35.3908 33.727 35.4775 33.727C35.5772 33.727 35.666 33.7118 35.744 33.6815C35.822 33.6512 35.8913 33.6143 35.952 33.571L36.043 33.9155C35.9693 33.9502 35.8718 33.9848 35.7505 34.0195C35.6335 34.0542 35.5035 34.0715 35.3605 34.0715C35.2218 34.0715 35.1135 34.052 35.0355 34.013C34.9575 33.974 34.899 33.922 34.86 33.857C34.821 33.792 34.795 33.7205 34.782 33.6425C34.7733 33.5602 34.769 33.48 34.769 33.402V31.3155Z" fill="white"/>
<path d="M21.5 16.2857C22.8394 16.2857 23.9285 15.1965 23.9285 13.8572C23.9285 12.5177 22.8393 11.4286 21.5 11.4286C20.1606 11.4286 19.0714 12.5178 19.0714 13.8572C19.0714 15.1965 20.1606 16.2857 21.5 16.2857ZM21.5 12.6429C22.1694 12.6429 22.7143 13.1877 22.7143 13.8572C22.7143 14.5266 22.1694 15.0714 21.5 15.0714C20.8306 15.0714 20.2857 14.5266 20.2857 13.8572C20.2857 13.1877 20.8306 12.6429 21.5 12.6429Z" fill="white"/>
<path d="M14.2143 10.2143H17.8572V9H13.6071C13.2715 9 13 9.27155 13 9.60715V13.8572H14.2143V10.2143Z" fill="white"/>
<path d="M29.3928 9H25.1428V10.2143H28.7857V13.8572H30V9.60715C30 9.27155 29.7284 9 29.3928 9V9Z" fill="white"/>
<path d="M28.7857 24.7857H25.1428V26H29.3928C29.7284 26 30 25.7285 30 25.3929V21.75H28.7857V24.7857Z" fill="white"/>
<path d="M14.2143 21.1429H13V25.3929C13 25.7285 13.2715 26 13.6071 26H17.8572V24.7857H14.2143V21.1429Z" fill="white"/>
<path d="M17.7931 18.237C17.0946 18.5264 16.6428 19.1922 16.6428 19.9345V22.3571H26.3571V19.9345C26.3571 19.1922 25.9053 18.5263 25.2069 18.237C22.8506 17.2587 20.1493 17.2587 17.7931 18.237ZM25.1428 19.9345V21.1428H17.8571V19.9345C17.8571 19.6855 18.0142 19.4596 18.2579 19.3588C20.3189 18.5038 22.681 18.5038 24.742 19.3588C24.9857 19.4596 25.1428 19.6855 25.1428 19.9345Z" fill="white"/>
</svg>
