<svg width="43" height="43" viewBox="0 0 43 43" fill="none" xmlns="http://www.w3.org/2000/svg">
<rect x="0.5" y="0.5" width="42" height="42" rx="7.5" fill="white" stroke="#3C3D4F"/>
<path d="M8.87202 30.425C8.73336 30.334 8.56219 30.2582 8.35852 30.1975C8.15486 30.1368 7.92302 30.1065 7.66302 30.1065C7.37269 30.1065 7.12786 30.1498 6.92852 30.2365C6.72919 30.3188 6.56669 30.4358 6.44102 30.5875C6.31969 30.7392 6.23086 30.9233 6.17452 31.14C6.12252 31.3523 6.09652 31.5885 6.09652 31.8485C6.09652 32.4422 6.22652 32.8907 6.48652 33.194C6.74652 33.4973 7.13436 33.649 7.65002 33.649C7.92302 33.649 8.17436 33.61 8.40402 33.532C8.63369 33.454 8.81786 33.3587 8.95652 33.246L9.08652 33.6815C8.91319 33.7855 8.70302 33.8787 8.45602 33.961C8.21336 34.039 7.93819 34.078 7.63052 34.078C7.27519 34.078 6.96752 34.0195 6.70752 33.9025C6.44752 33.7855 6.23086 33.6273 6.05752 33.428C5.88852 33.2287 5.76286 32.999 5.68052 32.739C5.59819 32.4747 5.55702 32.1952 5.55702 31.9005C5.55702 31.5928 5.60252 31.3047 5.69352 31.036C5.78452 30.7673 5.91886 30.5333 6.09652 30.334C6.27852 30.1303 6.50169 29.97 6.76602 29.853C7.03469 29.736 7.34669 29.6775 7.70202 29.6775C7.93602 29.6775 8.17002 29.7035 8.40402 29.7555C8.63802 29.8032 8.83952 29.8703 9.00852 29.957L8.87202 30.425ZM10.3579 34H9.90293V29.19H10.3579V34ZM12.7518 30.9125C13.1331 30.9125 13.4278 31.01 13.6358 31.205C13.8438 31.3957 13.9478 31.6665 13.9478 32.0175C13.9478 32.0912 13.9434 32.167 13.9348 32.245C13.9261 32.3187 13.9109 32.3728 13.8893 32.4075H11.6988V32.4725C11.6988 32.6372 11.7204 32.7953 11.7638 32.947C11.8071 33.0987 11.8721 33.233 11.9588 33.35C12.0454 33.467 12.1538 33.5602 12.2838 33.6295C12.4181 33.6988 12.5763 33.7335 12.7583 33.7335C12.8623 33.7335 12.9641 33.7227 13.0638 33.701C13.1634 33.675 13.2588 33.6447 13.3498 33.61C13.4408 33.571 13.5253 33.5298 13.6033 33.4865C13.6813 33.4432 13.7506 33.3998 13.8113 33.3565L13.8893 33.727C13.8329 33.7617 13.7636 33.8007 13.6813 33.844C13.5989 33.883 13.5079 33.9198 13.4083 33.9545C13.3086 33.9892 13.1981 34.0173 13.0768 34.039C12.9598 34.065 12.8363 34.078 12.7063 34.078C12.4636 34.078 12.2491 34.0368 12.0628 33.9545C11.8764 33.8678 11.7204 33.753 11.5948 33.61C11.4691 33.4627 11.3738 33.2937 11.3088 33.103C11.2438 32.9123 11.2113 32.713 11.2113 32.505C11.2113 32.2927 11.2438 32.0912 11.3088 31.9005C11.3781 31.7055 11.4778 31.5343 11.6078 31.387C11.7378 31.2397 11.8981 31.1248 12.0888 31.0425C12.2838 30.9558 12.5048 30.9125 12.7518 30.9125ZM12.7323 31.2765C12.4463 31.2765 12.2231 31.3523 12.0628 31.504C11.9068 31.6513 11.8006 31.8377 11.7443 32.063H13.5188C13.5231 32.0413 13.5253 32.0218 13.5253 32.0045C13.5253 31.9872 13.5253 31.9677 13.5253 31.946C13.5253 31.8377 13.5036 31.7423 13.4603 31.66C13.4169 31.5733 13.3584 31.5018 13.2848 31.4455C13.2111 31.3892 13.1266 31.348 13.0313 31.322C12.9359 31.2917 12.8363 31.2765 12.7323 31.2765ZM16.6687 34L16.6167 33.467H16.5907C16.5387 33.5493 16.4693 33.6273 16.3827 33.701C16.296 33.7747 16.1985 33.8397 16.0902 33.896C15.9862 33.9523 15.8713 33.9957 15.7457 34.026C15.6243 34.0607 15.503 34.078 15.3817 34.078C15.0957 34.078 14.8812 33.9957 14.7382 33.831C14.5952 33.662 14.5237 33.4518 14.5237 33.2005C14.5237 32.9535 14.5865 32.7563 14.7122 32.609C14.8378 32.4617 14.9917 32.3512 15.1737 32.2775C15.3557 32.2038 15.5463 32.1562 15.7457 32.1345C15.9493 32.1128 16.127 32.102 16.2787 32.102H16.5712V32.024C16.5712 31.8593 16.5473 31.7337 16.4997 31.647C16.4563 31.5603 16.3913 31.4867 16.3047 31.426C16.231 31.3783 16.1508 31.3458 16.0642 31.3285C15.9818 31.3068 15.8713 31.296 15.7327 31.296C15.5507 31.296 15.3903 31.3198 15.2517 31.3675C15.113 31.4152 14.9787 31.478 14.8487 31.556L14.7447 31.166C15.035 30.997 15.3817 30.9125 15.7847 30.9125C15.945 30.9125 16.0967 30.9277 16.2397 30.958C16.3827 30.984 16.5083 31.0317 16.6167 31.101C16.7423 31.179 16.842 31.2895 16.9157 31.4325C16.9893 31.5755 17.0262 31.7532 17.0262 31.9655V34H16.6687ZM15.5182 33.6945C15.6958 33.6945 15.8843 33.6382 16.0837 33.5255C16.283 33.4128 16.4455 33.2503 16.5712 33.038V32.4335H16.5127C16.335 32.4335 16.1573 32.44 15.9797 32.453C15.802 32.466 15.6395 32.4985 15.4922 32.5505C15.3492 32.6025 15.2322 32.6783 15.1412 32.778C15.0502 32.8733 15.0047 33.0055 15.0047 33.1745C15.0047 33.3435 15.0502 33.4735 15.1412 33.5645C15.2365 33.6512 15.3622 33.6945 15.5182 33.6945ZM19.62 31.491C19.5506 31.452 19.4813 31.4217 19.412 31.4C19.3426 31.374 19.2755 31.361 19.2105 31.361C19.1238 31.361 19.0415 31.3848 18.9635 31.4325C18.8855 31.4802 18.814 31.5452 18.749 31.6275C18.684 31.7098 18.6255 31.8052 18.5735 31.9135C18.5258 32.0218 18.489 32.1345 18.463 32.2515V34H18.008V31.01H18.3655L18.4175 31.6665H18.4435C18.4738 31.5668 18.5128 31.4715 18.5605 31.3805C18.6125 31.2895 18.6731 31.2093 18.7425 31.14C18.8161 31.0707 18.8985 31.0165 18.9895 30.9775C19.0805 30.9342 19.1845 30.9125 19.3015 30.9125C19.3838 30.9125 19.4705 30.9277 19.5615 30.958C19.6525 30.984 19.7175 31.0187 19.7565 31.062L19.62 31.491ZM23.7221 29.6775C24.0601 29.6775 24.3591 29.736 24.6191 29.853C24.8791 29.97 25.098 30.1303 25.2756 30.334C25.4533 30.5333 25.5876 30.7652 25.6786 31.0295C25.7696 31.2938 25.8151 31.5712 25.8151 31.8615C25.8151 32.1475 25.7696 32.4248 25.6786 32.6935C25.592 32.9578 25.4576 33.194 25.2756 33.402C25.098 33.6057 24.8748 33.7703 24.6061 33.896C24.3418 34.0173 24.032 34.078 23.6766 34.078C23.33 34.078 23.0288 34.0195 22.7731 33.9025C22.5175 33.7855 22.3051 33.6273 22.1361 33.428C21.9671 33.2287 21.8393 32.999 21.7526 32.739C21.6703 32.4747 21.6291 32.1973 21.6291 31.907C21.6291 31.5993 21.6746 31.3112 21.7656 31.0425C21.861 30.7695 21.9975 30.5333 22.1751 30.334C22.3528 30.1303 22.5716 29.97 22.8316 29.853C23.0916 29.736 23.3885 29.6775 23.7221 29.6775ZM23.6896 33.649C23.9713 33.649 24.2118 33.6035 24.4111 33.5125C24.6148 33.4215 24.7795 33.2958 24.9051 33.1355C25.0351 32.9752 25.1305 32.7888 25.1911 32.5765C25.2518 32.3598 25.2821 32.128 25.2821 31.881C25.2821 31.6167 25.2496 31.3762 25.1846 31.1595C25.124 30.9428 25.0286 30.7565 24.8986 30.6005C24.773 30.4445 24.6105 30.3232 24.4111 30.2365C24.2118 30.1498 23.9756 30.1065 23.7026 30.1065C23.4253 30.1065 23.1891 30.1498 22.9941 30.2365C22.7991 30.3188 22.641 30.438 22.5196 30.594C22.3983 30.7457 22.3095 30.9277 22.2531 31.14C22.1968 31.3523 22.1686 31.5863 22.1686 31.842C22.1686 32.44 22.2986 32.8907 22.5586 33.194C22.8186 33.4973 23.1956 33.649 23.6896 33.649ZM28.2528 31.491C28.1835 31.452 28.1141 31.4217 28.0448 31.4C27.9755 31.374 27.9083 31.361 27.8433 31.361C27.7566 31.361 27.6743 31.3848 27.5963 31.4325C27.5183 31.4802 27.4468 31.5452 27.3818 31.6275C27.3168 31.7098 27.2583 31.8052 27.2063 31.9135C27.1586 32.0218 27.1218 32.1345 27.0958 32.2515V34H26.6408V31.01H26.9983L27.0503 31.6665H27.0763C27.1066 31.5668 27.1456 31.4715 27.1933 31.3805C27.2453 31.2895 27.306 31.2093 27.3753 31.14C27.449 31.0707 27.5313 31.0165 27.6223 30.9775C27.7133 30.9342 27.8173 30.9125 27.9343 30.9125C28.0166 30.9125 28.1033 30.9277 28.1943 30.958C28.2853 30.984 28.3503 31.0187 28.3893 31.062L28.2528 31.491ZM30.0186 34.078C29.7976 34.078 29.6047 34.0347 29.4401 33.948C29.2754 33.8613 29.1389 33.7465 29.0306 33.6035C28.9222 33.4605 28.8399 33.2958 28.7836 33.1095C28.7316 32.9188 28.7056 32.7195 28.7056 32.5115C28.7056 32.2992 28.7337 32.0955 28.7901 31.9005C28.8507 31.7055 28.9374 31.5365 29.0501 31.3935C29.1671 31.2462 29.3122 31.1292 29.4856 31.0425C29.6589 30.9558 29.8604 30.9125 30.0901 30.9125C30.3804 30.9125 30.6187 30.9753 30.8051 31.101C30.9914 31.2267 31.1127 31.3827 31.1691 31.569V29.19H31.6241V34H31.2666L31.2146 33.467H31.1886C31.0846 33.6273 30.9329 33.7703 30.7336 33.896C30.5342 34.0173 30.2959 34.078 30.0186 34.078ZM30.0706 33.6945C30.2786 33.6945 30.4822 33.6382 30.6816 33.5255C30.8852 33.4128 31.0477 33.2503 31.1691 33.038V32.0825C31.0911 31.8355 30.9589 31.6427 30.7726 31.504C30.5906 31.3653 30.3847 31.296 30.1551 31.296C30.0034 31.296 29.8669 31.3263 29.7456 31.387C29.6286 31.4477 29.5289 31.5322 29.4466 31.6405C29.3642 31.7488 29.2992 31.8788 29.2516 32.0305C29.2082 32.1822 29.1866 32.349 29.1866 32.531C29.1866 32.6697 29.2017 32.8083 29.2321 32.947C29.2624 33.0857 29.3122 33.2113 29.3816 33.324C29.4509 33.4323 29.5419 33.5212 29.6546 33.5905C29.7672 33.6598 29.9059 33.6945 30.0706 33.6945ZM33.9783 30.9125C34.3597 30.9125 34.6543 31.01 34.8623 31.205C35.0703 31.3957 35.1743 31.6665 35.1743 32.0175C35.1743 32.0912 35.17 32.167 35.1613 32.245C35.1527 32.3187 35.1375 32.3728 35.1158 32.4075H32.9253V32.4725C32.9253 32.6372 32.947 32.7953 32.9903 32.947C33.0337 33.0987 33.0987 33.233 33.1853 33.35C33.272 33.467 33.3803 33.5602 33.5103 33.6295C33.6447 33.6988 33.8028 33.7335 33.9848 33.7335C34.0888 33.7335 34.1907 33.7227 34.2903 33.701C34.39 33.675 34.4853 33.6447 34.5763 33.61C34.6673 33.571 34.7518 33.5298 34.8298 33.4865C34.9078 33.4432 34.9772 33.3998 35.0378 33.3565L35.1158 33.727C35.0595 33.7617 34.9902 33.8007 34.9078 33.844C34.8255 33.883 34.7345 33.9198 34.6348 33.9545C34.5352 33.9892 34.4247 34.0173 34.3033 34.039C34.1863 34.065 34.0628 34.078 33.9328 34.078C33.6902 34.078 33.4757 34.0368 33.2893 33.9545C33.103 33.8678 32.947 33.753 32.8213 33.61C32.6957 33.4627 32.6003 33.2937 32.5353 33.103C32.4703 32.9123 32.4378 32.713 32.4378 32.505C32.4378 32.2927 32.4703 32.0912 32.5353 31.9005C32.6047 31.7055 32.7043 31.5343 32.8343 31.387C32.9643 31.2397 33.1247 31.1248 33.3153 31.0425C33.5103 30.9558 33.7313 30.9125 33.9783 30.9125ZM33.9588 31.2765C33.6728 31.2765 33.4497 31.3523 33.2893 31.504C33.1333 31.6513 33.0272 31.8377 32.9708 32.063H34.7453C34.7497 32.0413 34.7518 32.0218 34.7518 32.0045C34.7518 31.9872 34.7518 31.9677 34.7518 31.946C34.7518 31.8377 34.7302 31.7423 34.6868 31.66C34.6435 31.5733 34.585 31.5018 34.5113 31.4455C34.4377 31.3892 34.3532 31.348 34.2578 31.322C34.1625 31.2917 34.0628 31.2765 33.9588 31.2765ZM37.6092 31.491C37.5399 31.452 37.4706 31.4217 37.4012 31.4C37.3319 31.374 37.2647 31.361 37.1997 31.361C37.1131 31.361 37.0307 31.3848 36.9527 31.4325C36.8747 31.4802 36.8032 31.5452 36.7382 31.6275C36.6732 31.7098 36.6147 31.8052 36.5627 31.9135C36.5151 32.0218 36.4782 32.1345 36.4522 32.2515V34H35.9972V31.01H36.3547L36.4067 31.6665H36.4327C36.4631 31.5668 36.5021 31.4715 36.5497 31.3805C36.6017 31.2895 36.6624 31.2093 36.7317 31.14C36.8054 31.0707 36.8877 31.0165 36.9787 30.9775C37.0697 30.9342 37.1737 30.9125 37.2907 30.9125C37.3731 30.9125 37.4597 30.9277 37.5507 30.958C37.6417 30.984 37.7067 31.0187 37.7457 31.062L37.6092 31.491Z" fill="#3C3D4F"/>
<path d="M28.875 11.125H24.625V9.53125C24.625 9.2376 24.3874 9 24.0937 9H18.7812C18.4876 9 18.25 9.2376 18.25 9.53125V11.125H14V12.1875H15.0625V24.9375C15.0625 25.5237 15.5393 26 16.125 26H26.75C27.3357 26 27.8125 25.5237 27.8125 24.9375V12.1875H28.875V11.125H28.875ZM19.3125 10.0625H23.5625V11.125H19.3125V10.0625ZM26.751 24.9375L26.75 25.4687V24.9375H16.125V12.1875H26.75V24.9375H26.751Z" fill="#3C3D4F"/>
</svg>
