<svg width="43" height="43" viewBox="0 0 43 43" fill="none" xmlns="http://www.w3.org/2000/svg">
<path d="M18.0544 32.9525H16.6959V35H16.2084V30.71H18.5289V31.165H16.6959V32.4975H18.0544V32.9525ZM19.65 35H19.195V32.01H19.65V35ZM19.0975 30.918C19.0975 30.8313 19.1278 30.7533 19.1885 30.684C19.2535 30.6147 19.3315 30.58 19.4225 30.58C19.5092 30.58 19.5872 30.6147 19.6565 30.684C19.7258 30.7533 19.7605 30.8313 19.7605 30.918C19.7605 31.009 19.7258 31.087 19.6565 31.152C19.5872 31.2127 19.5092 31.243 19.4225 31.243C19.3315 31.243 19.2535 31.2127 19.1885 31.152C19.1278 31.087 19.0975 31.009 19.0975 30.918ZM22.7608 35V33.024C22.7608 32.764 22.7023 32.5777 22.5853 32.465C22.4683 32.3523 22.3188 32.296 22.1368 32.296C22.0285 32.296 21.9201 32.3133 21.8118 32.348C21.7078 32.3827 21.6103 32.4347 21.5193 32.504C21.4283 32.569 21.3481 32.6513 21.2788 32.751C21.2095 32.8463 21.1553 32.9568 21.1163 33.0825V35H20.6613V32.01H21.0188L21.0708 32.569H21.0968C21.1531 32.387 21.2788 32.2332 21.4738 32.1075C21.6688 31.9775 21.9115 31.9125 22.2018 31.9125C22.3405 31.9125 22.4705 31.932 22.5918 31.971C22.7175 32.0057 22.8258 32.0642 22.9168 32.1465C23.0078 32.2288 23.0793 32.3372 23.1313 32.4715C23.1876 32.6058 23.2158 32.7705 23.2158 32.9655V35H22.7608ZM25.3213 35.078C25.1003 35.078 24.9075 35.0347 24.7428 34.948C24.5781 34.8613 24.4416 34.7465 24.3333 34.6035C24.225 34.4605 24.1426 34.2958 24.0863 34.1095C24.0343 33.9188 24.0083 33.7195 24.0083 33.5115C24.0083 33.2992 24.0365 33.0955 24.0928 32.9005C24.1535 32.7055 24.2401 32.5365 24.3528 32.3935C24.4698 32.2462 24.615 32.1292 24.7883 32.0425C24.9616 31.9558 25.1631 31.9125 25.3928 31.9125C25.6831 31.9125 25.9215 31.9753 26.1078 32.101C26.2941 32.2267 26.4155 32.3827 26.4718 32.569V30.19H26.9268V35H26.5693L26.5173 34.467H26.4913C26.3873 34.6273 26.2356 34.7703 26.0363 34.896C25.837 35.0173 25.5986 35.078 25.3213 35.078ZM25.3733 34.6945C25.5813 34.6945 25.785 34.6382 25.9843 34.5255C26.188 34.4128 26.3505 34.2503 26.4718 34.038V33.0825C26.3938 32.8355 26.2616 32.6427 26.0753 32.504C25.8933 32.3653 25.6875 32.296 25.4578 32.296C25.3061 32.296 25.1696 32.3263 25.0483 32.387C24.9313 32.4477 24.8316 32.5322 24.7493 32.6405C24.667 32.7488 24.602 32.8788 24.5543 33.0305C24.511 33.1822 24.4893 33.349 24.4893 33.531C24.4893 33.6697 24.5045 33.8083 24.5348 33.947C24.5651 34.0857 24.615 34.2113 24.6843 34.324C24.7536 34.4323 24.8446 34.5212 24.9573 34.5905C25.07 34.6598 25.2086 34.6945 25.3733 34.6945Z" fill="#3C3D4F"/>
<path d="M21.3332 13C17.1615 13 13.4234 15.7372 12.0312 19.8114C11.9896 19.9339 11.9896 20.0661 12.0312 20.1886C13.4234 24.2628 17.1615 27 21.3332 27C25.5048 27 29.2429 24.2628 30.6352 20.1886C30.6768 20.0661 30.6768 19.9339 30.6352 19.8114C29.2429 15.7372 25.5048 13 21.3332 13ZM21.3332 25.8333C17.725 25.8333 14.4819 23.4972 13.2018 20C14.4819 16.5028 17.7249 14.1667 21.3332 14.1667C24.9414 14.1667 28.1845 16.5028 29.4645 20C28.1845 23.4972 24.9414 25.8333 21.3332 25.8333Z" fill="#3C3D4F"/>
<path d="M21.333 16.5C19.403 16.5 17.833 18.07 17.833 20C17.833 21.93 19.403 23.5 21.333 23.5C23.263 23.5 24.833 21.93 24.833 20C24.833 18.07 23.263 16.5 21.333 16.5ZM21.333 22.3333C20.0461 22.3333 18.9997 21.2868 18.9997 20C18.9997 18.7131 20.0462 17.6667 21.333 17.6667C22.6199 17.6667 23.6663 18.7132 23.6663 20C23.6663 21.2868 22.6199 22.3333 21.333 22.3333Z" fill="#3C3D4F"/>
</svg>
