<svg width="43" height="43" viewBox="0 0 43 43" fill="none" xmlns="http://www.w3.org/2000/svg">
<path d="M9.90088 29.9525H8.54238V32H8.05488V27.71H10.3754V28.165H8.54238V29.4975H9.90088V29.9525ZM11.2481 29.01V30.986C11.2481 31.1203 11.2633 31.233 11.2936 31.324C11.3283 31.415 11.3716 31.4887 11.4236 31.545C11.4799 31.597 11.5449 31.636 11.6186 31.662C11.6966 31.6837 11.7811 31.6945 11.8721 31.6945C11.9804 31.6945 12.0866 31.6793 12.1906 31.649C12.2989 31.6143 12.3986 31.5645 12.4896 31.4995C12.5806 31.4345 12.6608 31.3543 12.7301 31.259C12.7994 31.1637 12.8536 31.0532 12.8926 30.9275V29.01H13.3476V32H12.9901L12.9381 31.441H12.9121C12.8558 31.623 12.7301 31.7747 12.5351 31.896C12.3401 32.0173 12.0974 32.078 11.8071 32.078C11.6684 32.078 11.5363 32.0607 11.4106 32.026C11.2893 31.9913 11.1831 31.935 11.0921 31.857C11.0011 31.7747 10.9274 31.6685 10.8711 31.5385C10.8191 31.4042 10.7931 31.2395 10.7931 31.0445V29.01H11.2481ZM14.8552 32H14.4002V27.19H14.8552V32ZM16.4041 32H15.9491V27.19H16.4041V32ZM18.3364 29.2765C18.1284 29.2765 17.9767 29.3155 17.8814 29.3935C17.7904 29.4672 17.7449 29.569 17.7449 29.699C17.7449 29.7423 17.7514 29.7878 17.7644 29.8355C17.7774 29.8832 17.8012 29.9287 17.8359 29.972C17.8749 30.011 17.9247 30.05 17.9854 30.089C18.0504 30.1237 18.1349 30.1518 18.2389 30.1735L18.7004 30.2775C18.8824 30.3165 19.0276 30.3707 19.1359 30.44C19.2486 30.505 19.3352 30.5765 19.3959 30.6545C19.4566 30.7325 19.4956 30.8127 19.5129 30.895C19.5346 30.973 19.5454 31.0467 19.5454 31.116C19.5454 31.2503 19.5172 31.376 19.4609 31.493C19.4089 31.61 19.3309 31.7118 19.2269 31.7985C19.1272 31.8852 19.0037 31.9523 18.8564 32C18.7091 32.052 18.5444 32.078 18.3624 32.078C18.1327 32.078 17.9204 32.0455 17.7254 31.9805C17.5304 31.9112 17.3744 31.8353 17.2574 31.753L17.3744 31.3305C17.5304 31.4735 17.7037 31.5775 17.8944 31.6425C18.0851 31.7075 18.2562 31.74 18.4079 31.74C18.6246 31.74 18.7892 31.688 18.9019 31.584C19.0146 31.4757 19.0709 31.363 19.0709 31.246C19.0709 31.207 19.0687 31.1637 19.0644 31.116C19.0601 31.064 19.0427 31.012 19.0124 30.96C18.9821 30.908 18.9366 30.8603 18.8759 30.817C18.8152 30.7693 18.7286 30.7325 18.6159 30.7065L17.9919 30.5505C17.8489 30.5158 17.7319 30.4703 17.6409 30.414C17.5499 30.3577 17.4784 30.297 17.4264 30.232C17.3744 30.1627 17.3376 30.0912 17.3159 30.0175C17.2942 29.9395 17.2834 29.8615 17.2834 29.7835C17.2834 29.5192 17.3809 29.309 17.5759 29.153C17.7752 28.9927 18.0396 28.9125 18.3689 28.9125C18.5379 28.9125 18.7199 28.9363 18.9149 28.984C19.1099 29.0273 19.2746 29.0923 19.4089 29.179L19.2854 29.569C19.1987 29.4953 19.0687 29.4282 18.8954 29.3675C18.7264 29.3068 18.5401 29.2765 18.3364 29.2765ZM22.6615 29.556C22.5619 29.4823 22.4189 29.4173 22.2325 29.361C22.0462 29.3003 21.8599 29.27 21.6735 29.27C21.4829 29.27 21.3204 29.3025 21.186 29.3675C21.056 29.4325 20.9477 29.5192 20.861 29.6275C20.7744 29.7358 20.7115 29.8615 20.6725 30.0045C20.6335 30.1432 20.614 30.2883 20.614 30.44C20.614 30.609 20.6379 30.7715 20.6855 30.9275C20.7332 31.0835 20.8025 31.22 20.8935 31.337C20.9889 31.454 21.1037 31.5472 21.238 31.6165C21.3767 31.6858 21.537 31.7205 21.719 31.7205C21.8924 31.7205 22.07 31.6837 22.252 31.61C22.4384 31.5363 22.5922 31.4432 22.7135 31.3305L22.8045 31.753C22.6832 31.831 22.5164 31.9047 22.304 31.974C22.096 32.0433 21.8729 32.078 21.6345 32.078C21.3832 32.078 21.1622 32.0347 20.9715 31.948C20.7852 31.8613 20.6292 31.7465 20.5035 31.6035C20.3822 31.4562 20.289 31.2872 20.224 31.0965C20.1634 30.9015 20.133 30.6957 20.133 30.479C20.133 30.271 20.1612 30.0738 20.2175 29.8875C20.2782 29.6968 20.3714 29.53 20.497 29.387C20.6227 29.2397 20.783 29.1248 20.978 29.0425C21.173 28.9558 21.407 28.9125 21.68 28.9125C21.888 28.9125 22.0917 28.9363 22.291 28.984C22.4904 29.0317 22.6507 29.0945 22.772 29.1725L22.6615 29.556ZM25.19 29.491C25.1207 29.452 25.0514 29.4217 24.982 29.4C24.9127 29.374 24.8455 29.361 24.7805 29.361C24.6939 29.361 24.6115 29.3848 24.5335 29.4325C24.4555 29.4802 24.384 29.5452 24.319 29.6275C24.254 29.7098 24.1955 29.8052 24.1435 29.9135C24.0959 30.0218 24.059 30.1345 24.033 30.2515V32H23.578V29.01H23.9355L23.9875 29.6665H24.0135C24.0439 29.5668 24.0829 29.4715 24.1305 29.3805C24.1825 29.2895 24.2432 29.2093 24.3125 29.14C24.3862 29.0707 24.4685 29.0165 24.5595 28.9775C24.6505 28.9342 24.7545 28.9125 24.8715 28.9125C24.9539 28.9125 25.0405 28.9277 25.1315 28.958C25.2225 28.984 25.2875 29.0187 25.3265 29.062L25.19 29.491ZM27.1768 28.9125C27.5581 28.9125 27.8528 29.01 28.0608 29.205C28.2688 29.3957 28.3728 29.6665 28.3728 30.0175C28.3728 30.0912 28.3685 30.167 28.3598 30.245C28.3511 30.3187 28.336 30.3728 28.3143 30.4075H26.1238V30.4725C26.1238 30.6372 26.1455 30.7953 26.1888 30.947C26.2321 31.0987 26.2971 31.233 26.3838 31.35C26.4705 31.467 26.5788 31.5602 26.7088 31.6295C26.8431 31.6988 27.0013 31.7335 27.1833 31.7335C27.2873 31.7335 27.3891 31.7227 27.4888 31.701C27.5885 31.675 27.6838 31.6447 27.7748 31.61C27.8658 31.571 27.9503 31.5298 28.0283 31.4865C28.1063 31.4432 28.1756 31.3998 28.2363 31.3565L28.3143 31.727C28.258 31.7617 28.1886 31.8007 28.1063 31.844C28.024 31.883 27.933 31.9198 27.8333 31.9545C27.7336 31.9892 27.6231 32.0173 27.5018 32.039C27.3848 32.065 27.2613 32.078 27.1313 32.078C26.8886 32.078 26.6741 32.0368 26.4878 31.9545C26.3015 31.8678 26.1455 31.753 26.0198 31.61C25.8941 31.4627 25.7988 31.2937 25.7338 31.103C25.6688 30.9123 25.6363 30.713 25.6363 30.505C25.6363 30.2927 25.6688 30.0912 25.7338 29.9005C25.8031 29.7055 25.9028 29.5343 26.0328 29.387C26.1628 29.2397 26.3231 29.1248 26.5138 29.0425C26.7088 28.9558 26.9298 28.9125 27.1768 28.9125ZM27.1573 29.2765C26.8713 29.2765 26.6481 29.3523 26.4878 29.504C26.3318 29.6513 26.2256 29.8377 26.1693 30.063H27.9438C27.9481 30.0413 27.9503 30.0218 27.9503 30.0045C27.9503 29.9872 27.9503 29.9677 27.9503 29.946C27.9503 29.8377 27.9286 29.7423 27.8853 29.66C27.842 29.5733 27.7835 29.5018 27.7098 29.4455C27.6361 29.3892 27.5516 29.348 27.4563 29.322C27.361 29.2917 27.2613 29.2765 27.1573 29.2765ZM30.5347 28.9125C30.9161 28.9125 31.2107 29.01 31.4187 29.205C31.6267 29.3957 31.7307 29.6665 31.7307 30.0175C31.7307 30.0912 31.7264 30.167 31.7177 30.245C31.7091 30.3187 31.6939 30.3728 31.6722 30.4075H29.4817V30.4725C29.4817 30.6372 29.5034 30.7953 29.5467 30.947C29.5901 31.0987 29.6551 31.233 29.7417 31.35C29.8284 31.467 29.9367 31.5602 30.0667 31.6295C30.2011 31.6988 30.3592 31.7335 30.5412 31.7335C30.6452 31.7335 30.7471 31.7227 30.8467 31.701C30.9464 31.675 31.0417 31.6447 31.1327 31.61C31.2237 31.571 31.3082 31.5298 31.3862 31.4865C31.4642 31.4432 31.5336 31.3998 31.5942 31.3565L31.6722 31.727C31.6159 31.7617 31.5466 31.8007 31.4642 31.844C31.3819 31.883 31.2909 31.9198 31.1912 31.9545C31.0916 31.9892 30.9811 32.0173 30.8597 32.039C30.7427 32.065 30.6192 32.078 30.4892 32.078C30.2466 32.078 30.0321 32.0368 29.8457 31.9545C29.6594 31.8678 29.5034 31.753 29.3777 31.61C29.2521 31.4627 29.1567 31.2937 29.0917 31.103C29.0267 30.9123 28.9942 30.713 28.9942 30.505C28.9942 30.2927 29.0267 30.0912 29.0917 29.9005C29.1611 29.7055 29.2607 29.5343 29.3907 29.387C29.5207 29.2397 29.6811 29.1248 29.8717 29.0425C30.0667 28.9558 30.2877 28.9125 30.5347 28.9125ZM30.5152 29.2765C30.2292 29.2765 30.0061 29.3523 29.8457 29.504C29.6897 29.6513 29.5836 29.8377 29.5272 30.063H31.3017C31.3061 30.0413 31.3082 30.0218 31.3082 30.0045C31.3082 29.9872 31.3082 29.9677 31.3082 29.946C31.3082 29.8377 31.2866 29.7423 31.2432 29.66C31.1999 29.5733 31.1414 29.5018 31.0677 29.4455C30.9941 29.3892 30.9096 29.348 30.8142 29.322C30.7189 29.2917 30.6192 29.2765 30.5152 29.2765ZM34.6531 32V30.024C34.6531 29.764 34.5946 29.5777 34.4776 29.465C34.3606 29.3523 34.2111 29.296 34.0291 29.296C33.9208 29.296 33.8125 29.3133 33.7041 29.348C33.6001 29.3827 33.5026 29.4347 33.4116 29.504C33.3206 29.569 33.2405 29.6513 33.1711 29.751C33.1018 29.8463 33.0476 29.9568 33.0086 30.0825V32H32.5536V29.01H32.9111L32.9631 29.569H32.9891C33.0455 29.387 33.1711 29.2332 33.3661 29.1075C33.5611 28.9775 33.8038 28.9125 34.0941 28.9125C34.2328 28.9125 34.3628 28.932 34.4841 28.971C34.6098 29.0057 34.7181 29.0642 34.8091 29.1465C34.9001 29.2288 34.9716 29.3372 35.0236 29.4715C35.08 29.6058 35.1081 29.7705 35.1081 29.9655V32H34.6531Z" fill="#3C3D4F"/>
<path d="M24.2195 7V7.70832H28.7908L23.2383 13.2608L23.7391 13.7617L29.2916 8.20917V12.7806H29.9999V7H24.2195Z" fill="#3C3D4F"/>
<path d="M14.2092 7.70832H18.7808V7H13V12.7806H13.7083V8.20917L19.2609 13.7617L19.7617 13.2608L14.2092 7.70832Z" fill="#3C3D4F"/>
<path d="M29.2916 18.2194V22.7909L23.7391 17.2383L23.2383 17.7392L28.7908 23.2917H24.2195V24H29.9999V18.2194H29.2916Z" fill="#3C3D4F"/>
<path d="M19.7617 17.7392L19.2609 17.2383L13.7083 22.7909V18.2194H13V24H18.7808V23.2917H14.2092L19.7617 17.7392Z" fill="#3C3D4F"/>
</svg>
