<svg width="43" height="43" viewBox="0 0 43 43" fill="none" xmlns="http://www.w3.org/2000/svg">
<rect x="0.5" y="0.5" width="42" height="42" rx="7.5" fill="white" stroke="#0928F5"/>
<path d="M19.4976 34.3984H17.0146V30.1084H19.3676V30.5634H17.5021V31.8959H18.9321V32.3509H17.5021V33.9434H19.4976V34.3984ZM21.4506 32.5459L22.3931 31.4084H22.9456L21.7171 32.8579L23.0106 34.3984H22.4581L21.4376 33.1829L20.4366 34.3984H19.8841L21.1711 32.8709L19.9491 31.4084H20.5016L21.4506 32.5459ZM24.087 34.3984H23.632V31.4084H24.087V34.3984ZM23.5345 30.3164C23.5345 30.2298 23.5648 30.1518 23.6255 30.0824C23.6905 30.0131 23.7685 29.9784 23.8595 29.9784C23.9462 29.9784 24.0242 30.0131 24.0935 30.0824C24.1628 30.1518 24.1975 30.2298 24.1975 30.3164C24.1975 30.4074 24.1628 30.4854 24.0935 30.5504C24.0242 30.6111 23.9462 30.6414 23.8595 30.6414C23.7685 30.6414 23.6905 30.6111 23.6255 30.5504C23.5648 30.4854 23.5345 30.4074 23.5345 30.3164ZM25.2348 31.7139H24.7343V31.4734L25.2478 31.4084L25.3453 30.5049H25.6898V31.4084H26.3918V31.7139H25.6898V33.7874C25.6898 33.9261 25.7093 34.0171 25.7483 34.0604C25.7916 34.1038 25.8566 34.1254 25.9433 34.1254C26.043 34.1254 26.1318 34.1103 26.2098 34.0799C26.2878 34.0496 26.3571 34.0128 26.4178 33.9694L26.5088 34.3139C26.4351 34.3486 26.3376 34.3833 26.2163 34.4179C26.0993 34.4526 25.9693 34.4699 25.8263 34.4699C25.6876 34.4699 25.5793 34.4504 25.5013 34.4114C25.4233 34.3724 25.3648 34.3204 25.3258 34.2554C25.2868 34.1904 25.2608 34.1189 25.2478 34.0409C25.2391 33.9586 25.2348 33.8784 25.2348 33.8004V31.7139Z" fill="#0928F5"/>
<rect x="26.7285" y="9.92883" width="2" height="18" rx="1" transform="rotate(45 26.7285 9.92883)" fill="#0928F5"/>
<rect x="28.1426" y="22.6566" width="2" height="18" rx="1" transform="rotate(135 28.1426 22.6566)" fill="#0928F5"/>
</svg>
