<svg width="86" height="43" xmlns="http://www.w3.org/2000/svg">

 <g>
  <title>background</title>
  <rect fill="none" id="canvas_background" height="402" width="582" y="-1" x="-1"/>
 </g>
 <g>
  <title>Layer 1</title>
  <rect id="svg_1" stroke="#DFE3EA" fill="#DFE3EA" rx="7.5" height="42" width="85" y="0.500004" x="0.000007"/>
  <path id="svg_3" fill="#0928F5" d="m31.046566,18.150909l-3.6742,-6.3632c-0.159,-0.2752 -0.511,-0.3694 -0.7863,-0.2104c-0.0001,0 -0.0001,0 -0.0003,0.0001l-11.3684,6.5629l-0.3919,0c-0.3178,0 -0.5755,0.2576 -0.5755,0.5755l0,9.2087c0,0.3178 0.2577,0.5755 0.5755,0.5755l16.1152,0c0.3179,0 0.5756,-0.2577 0.5756,-0.5755l0,-9.2087c-0.0004,-0.2766 -0.1976,-0.514 -0.4697,-0.5649zm-9.9525,-0.0106l6.9608,-4.0182l0.6277,1.0869l-5.0765,2.9313l-2.512,0zm7.8766,-2.4328l1.4052,2.4328l-5.6188,0l4.2136,-2.4328zm-2.098,-3.6317l0.8942,1.5479l-7.8243,4.5166l-3.574,0l10.5041,-6.0645zm-12.0472,15.8487l0,-9.2087l16.1152,0l0,9.2087l-16.1152,0z"/>
  <path id="svg_4" fill="#0928F5" d="m28.638266,23.895709c-0.3621,0.0006 -0.7146,0.1158 -1.0072,0.329c-0.7719,-0.5599 -1.8516,-0.388 -2.4114,0.3838c-0.5599,0.772 -0.388,1.8516 0.384,2.4115c0.6046,0.4387 1.4228,0.4387 2.0274,0c0.7728,0.5575 1.851,0.3829 2.4085,-0.3898c0.5573,-0.7727 0.3828,-1.8511 -0.39,-2.4084c-0.2944,-0.2124 -0.6482,-0.3266 -1.0113,-0.3261zm-3.1655,1.7266c0.0011,-0.6369 0.5183,-1.1522 1.1551,-1.151c0.2985,0.0005 0.5852,0.1167 0.7997,0.3243c0.4566,0.4472 0.4641,1.1798 0.0169,1.6362c-0.005,0.0053 -0.0102,0.0104 -0.0154,0.0156c-0.4566,0.4438 -1.1864,0.4332 -1.6302,-0.0232c-0.2087,-0.2149 -0.3257,-0.5024 -0.3261,-0.8019zm3.1655,1.1511c-0.2102,0.0007 -0.4166,-0.0562 -0.5968,-0.1645c0.0014,-0.0029 0.003,-0.0058 0.0048,-0.0085c0.0431,-0.0635 0.0821,-0.1297 0.1166,-0.1982c0.0081,-0.0161 0.0153,-0.0319 0.0228,-0.0481c0.0307,-0.0644 0.0572,-0.1307 0.0793,-0.1985c0.0024,-0.0069 0.0053,-0.0132 0.0073,-0.0199c0.0225,-0.0734 0.04,-0.1483 0.0524,-0.2241c0.0029,-0.0182 0.0054,-0.0366 0.008,-0.0546c0.0237,-0.1555 0.0237,-0.3136 0,-0.4689c-0.0026,-0.0184 -0.0051,-0.0369 -0.0083,-0.0552c-0.0122,-0.0756 -0.0296,-0.1501 -0.0519,-0.2234c-0.0022,-0.0074 -0.0056,-0.0149 -0.008,-0.0224c-0.022,-0.0661 -0.048,-0.1309 -0.0777,-0.194c-0.0083,-0.0178 -0.0164,-0.0353 -0.0251,-0.0526c-0.0342,-0.0673 -0.0727,-0.1324 -0.1151,-0.1948c-0.002,-0.0032 -0.0034,-0.0067 -0.0054,-0.0099c0.5448,-0.3275 1.252,-0.1515 1.5796,0.3934c0.3276,0.5448 0.1515,1.2521 -0.3932,1.5797c-0.178,0.1069 -0.3816,0.1638 -0.5893,0.1645z"/>
  <path id="svg_5" fill="#0928F5" d="m15.726565,23.895809l0.5755,0l0,0.5755l-0.5755,0l0,-0.5755z"/>
  <path id="svg_6" fill="#0928F5" d="m17.127366,23.895809l0.5756,0l0,0.5755l-0.5756,0l0,-0.5755z"/>
  <path id="svg_7" fill="#0928F5" d="m18.278766,23.895809l0.5755,0l0,0.5755l-0.5755,0l0,-0.5755z"/>
  <path id="svg_8" fill="#0928F5" d="m19.430166,23.895809l0.5755,0l0,0.5755l-0.5755,0l0,-0.5755z"/>
  <path id="svg_9" fill="#0928F5" d="m20.581066,23.895809l0.5755,0l0,0.5755l-0.5755,0l0,-0.5755z"/>
  <path id="svg_10" fill="#0928F5" d="m21.731866,23.895809l0.5756,0l0,0.5755l-0.5756,0l0,-0.5755z"/>
  <path id="svg_11" fill="#0928F5" d="m22.883266,23.895809l0.5755,0l0,0.5755l-0.5755,0l0,-0.5755z"/>
  <path id="svg_12" fill="#0928F5" d="m24.034166,23.895809l0.5755,0l0,0.5755l-0.5755,0l0,-0.5755z"/>
  <path id="svg_13" fill="#0928F5" d="m15.976566,25.622309l8.0576,0l0,0.5755l-8.0576,0l0,-0.5755z"/>
  <path id="svg_14" fill="#0928F5" d="m16.552066,22.169009l1.7267,0c0.3179,0 0.5756,-0.2576 0.5756,-0.5755l0,-1.1511c0,-0.3179 -0.2577,-0.5755 -0.5756,-0.5755l-1.7267,0c-0.3179,0 -0.5755,0.2576 -0.5755,0.5755l0,1.1511c0,0.3179 0.2576,0.5755 0.5755,0.5755zm0,-1.7266l1.7267,0l0,1.1511l-1.7267,0l0,-1.1511z"/>
  <path id="svg_15" fill="#0928F5" d="m20.580866,21.593509l8.6331,0c0.3179,0 0.5756,-0.2577 0.5756,-0.5756l0,-0.5755c0,-0.3179 -0.2577,-0.5755 -0.5756,-0.5755l-8.6331,0c-0.3179,0 -0.5755,0.2576 -0.5755,0.5755l0,0.5755c0,0.3179 0.2576,0.5756 0.5755,0.5756zm0,-1.1511l8.6331,0l0,0.5755l-8.6331,0l0,-0.5755z"/>
  <text font-style="italic" font-weight="bold" stroke="null" transform="matrix(1.1145273000402796,0,0,1,-3.0195774290207478,0) " xml:space="preserve" text-anchor="start" font-family="Helvetica, Arial, sans-serif" font-size="12" id="svg_16" y="19.113283" x="34.68621" stroke-opacity="null" stroke-width="0" fill="#0928f5">Food</text>
  <text font-weight="bold" font-style="italic" xml:space="preserve" text-anchor="start" font-family="Helvetica, Arial, sans-serif" font-size="12" id="svg_17" y="32.863279" x="33.874954" stroke-opacity="null" stroke-width="0" stroke="null" fill="#0928f5">Stand</text>
 </g>
</svg>