<svg width="43" height="43" viewBox="0 0 43 43" fill="none" xmlns="http://www.w3.org/2000/svg">
<rect x="0.5" y="0.5" width="42" height="42" rx="7.5" fill="white" stroke="#0928F5"/>
<path d="M19.9201 34H19.3676L18.7371 32.557H16.8196L16.2476 34H15.7276L17.4436 29.71H18.0351L19.9201 34ZM17.0016 32.102H18.5356L17.7296 30.256L17.0016 32.102ZM21.4524 34.078C21.2314 34.078 21.0386 34.0347 20.8739 33.948C20.7092 33.8613 20.5727 33.7465 20.4644 33.6035C20.3561 33.4605 20.2737 33.2958 20.2174 33.1095C20.1654 32.9188 20.1394 32.7195 20.1394 32.5115C20.1394 32.2992 20.1676 32.0955 20.2239 31.9005C20.2846 31.7055 20.3712 31.5365 20.4839 31.3935C20.6009 31.2462 20.7461 31.1292 20.9194 31.0425C21.0927 30.9558 21.2942 30.9125 21.5239 30.9125C21.8142 30.9125 22.0526 30.9753 22.2389 31.101C22.4252 31.2267 22.5466 31.3827 22.6029 31.569V29.19H23.0579V34H22.7004L22.6484 33.467H22.6224C22.5184 33.6273 22.3667 33.7703 22.1674 33.896C21.9681 34.0173 21.7297 34.078 21.4524 34.078ZM21.5044 33.6945C21.7124 33.6945 21.9161 33.6382 22.1154 33.5255C22.3191 33.4128 22.4816 33.2503 22.6029 33.038V32.0825C22.5249 31.8355 22.3927 31.6427 22.2064 31.504C22.0244 31.3653 21.8186 31.296 21.5889 31.296C21.4372 31.296 21.3007 31.3263 21.1794 31.387C21.0624 31.4477 20.9627 31.5322 20.8804 31.6405C20.7981 31.7488 20.7331 31.8788 20.6854 32.0305C20.6421 32.1822 20.6204 32.349 20.6204 32.531C20.6204 32.6697 20.6356 32.8083 20.6659 32.947C20.6962 33.0857 20.7461 33.2113 20.8154 33.324C20.8847 33.4323 20.9757 33.5212 21.0884 33.5905C21.2011 33.6598 21.3397 33.6945 21.5044 33.6945ZM25.1912 34.078C24.9702 34.078 24.7773 34.0347 24.6127 33.948C24.448 33.8613 24.3115 33.7465 24.2032 33.6035C24.0948 33.4605 24.0125 33.2958 23.9562 33.1095C23.9042 32.9188 23.8782 32.7195 23.8782 32.5115C23.8782 32.2992 23.9063 32.0955 23.9627 31.9005C24.0233 31.7055 24.11 31.5365 24.2227 31.3935C24.3397 31.2462 24.4848 31.1292 24.6582 31.0425C24.8315 30.9558 25.033 30.9125 25.2627 30.9125C25.553 30.9125 25.7913 30.9753 25.9777 31.101C26.164 31.2267 26.2853 31.3827 26.3417 31.569V29.19H26.7967V34H26.4392L26.3872 33.467H26.3612C26.2572 33.6273 26.1055 33.7703 25.9062 33.896C25.7068 34.0173 25.4685 34.078 25.1912 34.078ZM25.2432 33.6945C25.4512 33.6945 25.6548 33.6382 25.8542 33.5255C26.0578 33.4128 26.2203 33.2503 26.3417 33.038V32.0825C26.2637 31.8355 26.1315 31.6427 25.9452 31.504C25.7632 31.3653 25.5573 31.296 25.3277 31.296C25.176 31.296 25.0395 31.3263 24.9182 31.387C24.8012 31.4477 24.7015 31.5322 24.6192 31.6405C24.5368 31.7488 24.4718 31.8788 24.4242 32.0305C24.3808 32.1822 24.3592 32.349 24.3592 32.531C24.3592 32.6697 24.3743 32.8083 24.4047 32.947C24.435 33.0857 24.4848 33.2113 24.5542 33.324C24.6235 33.4323 24.7145 33.5212 24.8272 33.5905C24.9398 33.6598 25.0785 33.6945 25.2432 33.6945Z" fill="#0928F5"/>
<rect x="19" y="9" width="5" height="17" rx="1" fill="#0928F5"/>
<rect x="30" y="15" width="5" height="17" rx="1" transform="rotate(90 30 15)" fill="#0928F5"/>
</svg>
