<svg width="86" height="43" viewBox="0 0 86 43" fill="none" xmlns="http://www.w3.org/2000/svg">
<rect x="0.5" y="0.5" width="85" height="42" rx="7.5" fill="#DFE3EA" stroke="#0928F5"/>
<path d="M44.624 14.784C44.368 14.608 44.06 14.468 43.7 14.364C43.348 14.252 42.944 14.196 42.488 14.196C42.056 14.196 41.684 14.264 41.372 14.4C41.068 14.536 40.82 14.728 40.628 14.976C40.436 15.224 40.292 15.524 40.196 15.876C40.108 16.22 40.064 16.604 40.064 17.028C40.064 17.996 40.268 18.728 40.676 19.224C41.092 19.72 41.688 19.968 42.464 19.968C42.944 19.968 43.38 19.896 43.772 19.752C44.172 19.608 44.5 19.432 44.756 19.224L45.116 20.412C44.796 20.604 44.408 20.776 43.952 20.928C43.504 21.072 42.996 21.144 42.428 21.144C41.772 21.144 41.204 21.036 40.724 20.82C40.244 20.604 39.844 20.312 39.524 19.944C39.212 19.576 38.98 19.152 38.828 18.672C38.676 18.184 38.6 17.668 38.6 17.124C38.6 16.556 38.684 16.024 38.852 15.528C39.02 15.032 39.268 14.6 39.596 14.232C39.932 13.856 40.344 13.56 40.832 13.344C41.328 13.128 41.904 13.02 42.56 13.02C42.992 13.02 43.424 13.068 43.856 13.164C44.288 13.252 44.66 13.376 44.972 13.536L44.624 14.784ZM49.4371 16.68C49.3571 16.616 49.2331 16.564 49.0651 16.524C48.8971 16.484 48.7531 16.464 48.6331 16.464C48.4731 16.464 48.3411 16.504 48.2371 16.584C48.1331 16.656 48.0411 16.756 47.9611 16.884C47.8811 17.004 47.8131 17.144 47.7571 17.304C47.7011 17.464 47.6491 17.628 47.6011 17.796V21H46.2811V15.48H47.3131L47.3731 16.632H47.4211C47.5011 16.464 47.5851 16.3 47.6731 16.14C47.7611 15.98 47.8611 15.84 47.9731 15.72C48.0851 15.592 48.2131 15.492 48.3571 15.42C48.5091 15.34 48.6851 15.3 48.8851 15.3C49.2051 15.3 49.5051 15.404 49.7851 15.612L49.4371 16.68ZM53.1719 15.3C53.8759 15.3 54.4199 15.48 54.8039 15.84C55.1879 16.192 55.3799 16.692 55.3799 17.34C55.3799 17.428 55.3719 17.524 55.3559 17.628C55.3479 17.724 55.3319 17.82 55.3079 17.916C55.2919 18.012 55.2679 18.1 55.2359 18.18C55.2119 18.252 55.1839 18.312 55.1519 18.36H51.6599C51.6759 18.6 51.7199 18.828 51.7919 19.044C51.8639 19.252 51.9679 19.436 52.1039 19.596C52.2399 19.748 52.4039 19.872 52.5959 19.968C52.7959 20.056 53.0279 20.1 53.2919 20.1C53.5879 20.1 53.8999 20.044 54.2279 19.932C54.5639 19.82 54.8479 19.68 55.0799 19.512L55.2959 20.496C55.1919 20.56 55.0639 20.632 54.9119 20.712C54.7599 20.784 54.5879 20.852 54.3959 20.916C54.2039 20.98 53.9959 21.032 53.7719 21.072C53.5559 21.12 53.3279 21.144 53.0879 21.144C52.6399 21.144 52.2439 21.068 51.8999 20.916C51.5559 20.756 51.2679 20.544 51.0359 20.28C50.8039 20.008 50.6279 19.696 50.5079 19.344C50.3879 18.992 50.3279 18.624 50.3279 18.24C50.3279 17.848 50.3879 17.476 50.5079 17.124C50.6359 16.764 50.8199 16.448 51.0599 16.176C51.2999 15.904 51.5959 15.692 51.9479 15.54C52.3079 15.38 52.7159 15.3 53.1719 15.3ZM53.1359 16.332C52.7999 16.332 52.5119 16.432 52.2719 16.632C52.0399 16.824 51.8719 17.088 51.7679 17.424H54.0599C54.0679 17.4 54.0719 17.372 54.0719 17.34C54.0799 17.308 54.0839 17.268 54.0839 17.22C54.0839 16.964 53.9959 16.752 53.8199 16.584C53.6439 16.416 53.4159 16.332 53.1359 16.332ZM58.9185 21.144C58.5425 21.144 58.1985 21.068 57.8865 20.916C57.5745 20.764 57.3065 20.556 57.0825 20.292C56.8665 20.028 56.6985 19.716 56.5785 19.356C56.4585 18.996 56.3985 18.604 56.3985 18.18C56.3985 17.804 56.4465 17.444 56.5425 17.1C56.6465 16.748 56.8025 16.44 57.0105 16.176C57.2185 15.912 57.4745 15.7 57.7785 15.54C58.0905 15.38 58.4585 15.3 58.8825 15.3C59.2665 15.3 59.6105 15.364 59.9145 15.492C60.2185 15.62 60.4625 15.8 60.6465 16.032V12.12H61.9545V21H60.8985L60.8025 20.244H60.7545C60.5305 20.492 60.2745 20.704 59.9865 20.88C59.7065 21.056 59.3505 21.144 58.9185 21.144ZM59.0865 20.148C59.2145 20.148 59.3505 20.132 59.4945 20.1C59.6385 20.06 59.7785 20.008 59.9145 19.944C60.0585 19.88 60.1945 19.804 60.3225 19.716C60.4505 19.62 60.5585 19.512 60.6465 19.392V17.088C60.4065 16.792 60.1625 16.592 59.9145 16.488C59.6665 16.376 59.4265 16.32 59.1945 16.32C58.9385 16.32 58.7185 16.372 58.5345 16.476C58.3505 16.572 58.1945 16.708 58.0665 16.884C57.9465 17.06 57.8545 17.264 57.7905 17.496C57.7345 17.72 57.7065 17.956 57.7065 18.204C57.7065 18.444 57.7345 18.684 57.7905 18.924C57.8465 19.156 57.9305 19.364 58.0425 19.548C58.1545 19.724 58.2985 19.868 58.4745 19.98C58.6505 20.092 58.8545 20.148 59.0865 20.148ZM64.9332 21H63.6132V15.48H64.9332V21ZM63.4212 13.704C63.4212 13.592 63.4412 13.484 63.4812 13.38C63.5292 13.276 63.5932 13.184 63.6732 13.104C63.7532 13.016 63.8412 12.948 63.9372 12.9C64.0412 12.852 64.1532 12.828 64.2732 12.828C64.3852 12.828 64.4932 12.852 64.5972 12.9C64.7012 12.948 64.7932 13.016 64.8732 13.104C64.9612 13.184 65.0292 13.276 65.0772 13.38C65.1252 13.484 65.1492 13.592 65.1492 13.704C65.1492 13.824 65.1252 13.936 65.0772 14.04C65.0292 14.136 64.9612 14.224 64.8732 14.304C64.7932 14.384 64.7012 14.448 64.5972 14.496C64.4932 14.536 64.3852 14.556 64.2732 14.556C64.0412 14.556 63.8412 14.472 63.6732 14.304C63.5052 14.136 63.4212 13.936 63.4212 13.704ZM66.8417 16.284H66.1577V15.564L66.9377 15.444L67.1537 13.812H68.1617V15.48H69.2177V16.284H68.1617V19.452C68.1617 19.692 68.1857 19.856 68.2337 19.944C68.2817 20.024 68.3737 20.064 68.5097 20.064C68.6137 20.064 68.7177 20.044 68.8217 20.004C68.9257 19.964 69.0777 19.888 69.2777 19.776L69.4937 20.724C69.3417 20.852 69.1257 20.952 68.8457 21.024C68.5737 21.104 68.3017 21.144 68.0297 21.144C67.7897 21.144 67.5897 21.112 67.4297 21.048C67.2777 20.984 67.1577 20.892 67.0697 20.772C66.9817 20.644 66.9217 20.492 66.8897 20.316C66.8577 20.14 66.8417 19.944 66.8417 19.728V16.284ZM44.624 27.784C44.368 27.608 44.06 27.468 43.7 27.364C43.348 27.252 42.944 27.196 42.488 27.196C42.056 27.196 41.684 27.264 41.372 27.4C41.068 27.536 40.82 27.728 40.628 27.976C40.436 28.224 40.292 28.524 40.196 28.876C40.108 29.22 40.064 29.604 40.064 30.028C40.064 30.996 40.268 31.728 40.676 32.224C41.092 32.72 41.688 32.968 42.464 32.968C42.944 32.968 43.38 32.896 43.772 32.752C44.172 32.608 44.5 32.432 44.756 32.224L45.116 33.412C44.796 33.604 44.408 33.776 43.952 33.928C43.504 34.072 42.996 34.144 42.428 34.144C41.772 34.144 41.204 34.036 40.724 33.82C40.244 33.604 39.844 33.312 39.524 32.944C39.212 32.576 38.98 32.152 38.828 31.672C38.676 31.184 38.6 30.668 38.6 30.124C38.6 29.556 38.684 29.024 38.852 28.528C39.02 28.032 39.268 27.6 39.596 27.232C39.932 26.856 40.344 26.56 40.832 26.344C41.328 26.128 41.904 26.02 42.56 26.02C42.992 26.02 43.424 26.068 43.856 26.164C44.288 26.252 44.66 26.376 44.972 26.536L44.624 27.784ZM49.7232 34L49.6272 33.244H49.5792C49.3632 33.516 49.0672 33.736 48.6912 33.904C48.3232 34.064 47.9472 34.144 47.5632 34.144C47.0592 34.144 46.6632 34 46.3752 33.712C46.0872 33.416 45.9432 33.028 45.9432 32.548C45.9432 32.22 46.0112 31.928 46.1472 31.672C46.2912 31.408 46.4952 31.188 46.7592 31.012C47.0232 30.828 47.3392 30.688 47.7072 30.592C48.0752 30.496 48.4872 30.448 48.9432 30.448H49.4592V30.268C49.4592 29.956 49.3592 29.728 49.1592 29.584C48.9512 29.44 48.6272 29.368 48.1872 29.368C47.5952 29.368 47.0672 29.5 46.6032 29.764L46.3512 28.768C46.8872 28.456 47.5352 28.3 48.2952 28.3C49.0952 28.3 49.7032 28.464 50.1192 28.792C50.3112 28.944 50.4672 29.14 50.5872 29.38C50.7152 29.62 50.7792 29.908 50.7792 30.244V34H49.7232ZM48.0792 33.076C48.3352 33.076 48.5912 33.016 48.8472 32.896C49.1032 32.768 49.3072 32.6 49.4592 32.392V31.3H49.2312C48.5752 31.3 48.0952 31.384 47.7912 31.552C47.4952 31.72 47.3472 31.988 47.3472 32.356C47.3472 32.836 47.5912 33.076 48.0792 33.076ZM55.5309 29.68C55.4509 29.616 55.3269 29.564 55.1589 29.524C54.9909 29.484 54.8469 29.464 54.7269 29.464C54.5669 29.464 54.4349 29.504 54.3309 29.584C54.2269 29.656 54.1349 29.756 54.0549 29.884C53.9749 30.004 53.9069 30.144 53.8509 30.304C53.7949 30.464 53.7429 30.628 53.6949 30.796V34H52.3749V28.48H53.4069L53.4669 29.632H53.5149C53.5949 29.464 53.6789 29.3 53.7669 29.14C53.8549 28.98 53.9549 28.84 54.0669 28.72C54.1789 28.592 54.3069 28.492 54.4509 28.42C54.6029 28.34 54.7789 28.3 54.9789 28.3C55.2989 28.3 55.5989 28.404 55.8789 28.612L55.5309 29.68ZM58.9537 34.144C58.5777 34.144 58.2337 34.068 57.9217 33.916C57.6097 33.764 57.3417 33.556 57.1177 33.292C56.9017 33.028 56.7337 32.716 56.6137 32.356C56.4937 31.996 56.4337 31.604 56.4337 31.18C56.4337 30.804 56.4817 30.444 56.5777 30.1C56.6817 29.748 56.8377 29.44 57.0457 29.176C57.2537 28.912 57.5097 28.7 57.8137 28.54C58.1257 28.38 58.4937 28.3 58.9177 28.3C59.3017 28.3 59.6457 28.364 59.9497 28.492C60.2537 28.62 60.4977 28.8 60.6817 29.032V25.12H61.9897V34H60.9337L60.8377 33.244H60.7897C60.5657 33.492 60.3097 33.704 60.0217 33.88C59.7417 34.056 59.3857 34.144 58.9537 34.144ZM59.1217 33.148C59.2497 33.148 59.3857 33.132 59.5297 33.1C59.6737 33.06 59.8137 33.008 59.9497 32.944C60.0937 32.88 60.2297 32.804 60.3577 32.716C60.4857 32.62 60.5937 32.512 60.6817 32.392V30.088C60.4417 29.792 60.1977 29.592 59.9497 29.488C59.7017 29.376 59.4617 29.32 59.2297 29.32C58.9737 29.32 58.7537 29.372 58.5697 29.476C58.3857 29.572 58.2297 29.708 58.1017 29.884C57.9817 30.06 57.8897 30.264 57.8257 30.496C57.7697 30.72 57.7417 30.956 57.7417 31.204C57.7417 31.444 57.7697 31.684 57.8257 31.924C57.8817 32.156 57.9657 32.364 58.0777 32.548C58.1897 32.724 58.3337 32.868 58.5097 32.98C58.6857 33.092 58.8897 33.148 59.1217 33.148Z" fill="#0928F5"/>
<path d="M32.7966 19.6509L29.1224 13.2877C28.9634 13.0125 28.6114 12.9183 28.3361 13.0773C28.336 13.0773 28.336 13.0773 28.3358 13.0774L16.9674 19.6403H16.5755C16.2577 19.6403 16 19.8979 16 20.2158V29.4245C16 29.7423 16.2577 30 16.5755 30H32.6907C33.0086 30 33.2663 29.7423 33.2663 29.4245V20.2158C33.2659 19.9392 33.0687 19.7018 32.7966 19.6509ZM22.8441 19.6403L29.8049 15.6221L30.4326 16.709L25.3561 19.6403H22.8441ZM30.7207 17.2075L32.1259 19.6403H26.5071L30.7207 17.2075ZM28.6227 13.5758L29.5169 15.1237L21.6926 19.6403H18.1186L28.6227 13.5758ZM16.5755 29.4245V20.2158H32.6907V29.4245H16.5755Z" fill="#0928F5"/>
<path d="M30.3883 25.3957C30.0262 25.3963 29.6737 25.5115 29.3811 25.7247C28.6092 25.1648 27.5295 25.3367 26.9697 26.1085C26.4098 26.8805 26.5817 27.9601 27.3537 28.52C27.9583 28.9587 28.7765 28.9587 29.3811 28.52C30.1539 29.0775 31.2321 28.9029 31.7896 28.1302C32.3469 27.3575 32.1724 26.2791 31.3996 25.7218C31.1052 25.5094 30.7514 25.3952 30.3883 25.3957ZM27.2228 27.1223C27.2239 26.4854 27.7411 25.9701 28.3779 25.9713C28.6764 25.9718 28.9631 26.088 29.1776 26.2956C29.6342 26.7428 29.6417 27.4754 29.1945 27.9318C29.1895 27.9371 29.1843 27.9422 29.1791 27.9474C28.7225 28.3912 27.9927 28.3806 27.5489 27.9242C27.3402 27.7093 27.2232 27.4218 27.2228 27.1223ZM30.3883 28.2734C30.1781 28.2741 29.9717 28.2172 29.7915 28.1089C29.7929 28.106 29.7945 28.1031 29.7963 28.1004C29.8394 28.0369 29.8784 27.9707 29.9129 27.9022C29.921 27.8861 29.9282 27.8703 29.9357 27.8541C29.9664 27.7897 29.9929 27.7234 30.015 27.6556C30.0174 27.6487 30.0203 27.6424 30.0223 27.6357C30.0448 27.5623 30.0623 27.4874 30.0747 27.4116C30.0776 27.3934 30.0801 27.375 30.0827 27.357C30.1064 27.2015 30.1064 27.0434 30.0827 26.8881C30.0801 26.8697 30.0776 26.8512 30.0744 26.8329C30.0622 26.7573 30.0448 26.6828 30.0225 26.6095C30.0203 26.6021 30.0169 26.5946 30.0145 26.5871C29.9925 26.521 29.9665 26.4562 29.9368 26.3931C29.9285 26.3753 29.9204 26.3578 29.9117 26.3405C29.8775 26.2732 29.839 26.2081 29.7966 26.1457C29.7946 26.1425 29.7932 26.139 29.7912 26.1358C30.336 25.8083 31.0432 25.9843 31.3708 26.5292C31.6984 27.074 31.5223 27.7813 30.9776 28.1089C30.7996 28.2158 30.596 28.2727 30.3883 28.2734Z" fill="#0928F5"/>
<path d="M17.7266 25.3958H18.3021V25.9713H17.7266V25.3958Z" fill="#0928F5"/>
<path d="M18.8774 25.3958H19.453V25.9713H18.8774V25.3958Z" fill="#0928F5"/>
<path d="M20.0288 25.3958H20.6043V25.9713H20.0288V25.3958Z" fill="#0928F5"/>
<path d="M21.1802 25.3958H21.7557V25.9713H21.1802V25.3958Z" fill="#0928F5"/>
<path d="M22.3311 25.3958H22.9066V25.9713H22.3311V25.3958Z" fill="#0928F5"/>
<path d="M23.4819 25.3958H24.0575V25.9713H23.4819V25.3958Z" fill="#0928F5"/>
<path d="M24.6333 25.3958H25.2088V25.9713H24.6333V25.3958Z" fill="#0928F5"/>
<path d="M25.7842 25.3958H26.3597V25.9713H25.7842V25.3958Z" fill="#0928F5"/>
<path d="M17.7266 27.1223H25.7842V27.6978H17.7266V27.1223Z" fill="#0928F5"/>
<path d="M18.3021 23.669H20.0288C20.3467 23.669 20.6044 23.4114 20.6044 23.0935V21.9424C20.6044 21.6245 20.3467 21.3669 20.0288 21.3669H18.3021C17.9842 21.3669 17.7266 21.6245 17.7266 21.9424V23.0935C17.7266 23.4114 17.9842 23.669 18.3021 23.669ZM18.3021 21.9424H20.0288V23.0935H18.3021V21.9424Z" fill="#0928F5"/>
<path d="M22.3309 23.0935H30.964C31.2819 23.0935 31.5396 22.8358 31.5396 22.5179V21.9424C31.5396 21.6245 31.2819 21.3669 30.964 21.3669H22.3309C22.013 21.3669 21.7554 21.6245 21.7554 21.9424V22.5179C21.7554 22.8358 22.013 23.0935 22.3309 23.0935ZM22.3309 21.9424H30.964V22.5179H22.3309V21.9424Z" fill="#0928F5"/>
</svg>
