<svg width="86" height="43" viewBox="0 0 86 43" fill="none" xmlns="http://www.w3.org/2000/svg">
<rect width="86" height="43" rx="8" fill="#DFE3EA"/>
<path d="M47.624 20.784C47.368 20.608 47.06 20.468 46.7 20.364C46.348 20.252 45.944 20.196 45.488 20.196C45.056 20.196 44.684 20.264 44.372 20.4C44.068 20.536 43.82 20.728 43.628 20.976C43.436 21.224 43.292 21.524 43.196 21.876C43.108 22.22 43.064 22.604 43.064 23.028C43.064 23.996 43.268 24.728 43.676 25.224C44.092 25.72 44.688 25.968 45.464 25.968C45.944 25.968 46.38 25.896 46.772 25.752C47.172 25.608 47.5 25.432 47.756 25.224L48.116 26.412C47.796 26.604 47.408 26.776 46.952 26.928C46.504 27.072 45.996 27.144 45.428 27.144C44.772 27.144 44.204 27.036 43.724 26.82C43.244 26.604 42.844 26.312 42.524 25.944C42.212 25.576 41.98 25.152 41.828 24.672C41.676 24.184 41.6 23.668 41.6 23.124C41.6 22.556 41.684 22.024 41.852 21.528C42.02 21.032 42.268 20.6 42.596 20.232C42.932 19.856 43.344 19.56 43.832 19.344C44.328 19.128 44.904 19.02 45.56 19.02C45.992 19.02 46.424 19.068 46.856 19.164C47.288 19.252 47.66 19.376 47.972 19.536L47.624 20.784ZM52.7232 27L52.6272 26.244H52.5792C52.3632 26.516 52.0672 26.736 51.6912 26.904C51.3232 27.064 50.9472 27.144 50.5632 27.144C50.0592 27.144 49.6632 27 49.3752 26.712C49.0872 26.416 48.9432 26.028 48.9432 25.548C48.9432 25.22 49.0112 24.928 49.1472 24.672C49.2912 24.408 49.4952 24.188 49.7592 24.012C50.0232 23.828 50.3392 23.688 50.7072 23.592C51.0752 23.496 51.4872 23.448 51.9432 23.448H52.4592V23.268C52.4592 22.956 52.3592 22.728 52.1592 22.584C51.9512 22.44 51.6272 22.368 51.1872 22.368C50.5952 22.368 50.0672 22.5 49.6032 22.764L49.3512 21.768C49.8872 21.456 50.5352 21.3 51.2952 21.3C52.0952 21.3 52.7032 21.464 53.1192 21.792C53.3112 21.944 53.4672 22.14 53.5872 22.38C53.7152 22.62 53.7792 22.908 53.7792 23.244V27H52.7232ZM51.0792 26.076C51.3352 26.076 51.5912 26.016 51.8472 25.896C52.1032 25.768 52.3072 25.6 52.4592 25.392V24.3H52.2312C51.5752 24.3 51.0952 24.384 50.7912 24.552C50.4952 24.72 50.3472 24.988 50.3472 25.356C50.3472 25.836 50.5912 26.076 51.0792 26.076ZM57.0549 22.284C56.7909 22.284 56.5829 22.336 56.4309 22.44C56.2869 22.536 56.2149 22.676 56.2149 22.86C56.2149 22.98 56.2549 23.092 56.3349 23.196C56.4229 23.292 56.6029 23.372 56.8749 23.436L57.7269 23.628C58.0629 23.7 58.3309 23.804 58.5309 23.94C58.7389 24.076 58.8989 24.224 59.0109 24.384C59.1309 24.544 59.2109 24.708 59.2509 24.876C59.2909 25.044 59.3109 25.2 59.3109 25.344C59.3109 25.6 59.2589 25.84 59.1549 26.064C59.0509 26.28 58.9029 26.468 58.7109 26.628C58.5189 26.788 58.2869 26.912 58.0149 27C57.7429 27.096 57.4389 27.144 57.1029 27.144C56.6789 27.144 56.2869 27.084 55.9269 26.964C55.5669 26.836 55.2789 26.696 55.0629 26.544L55.3749 25.404C55.6469 25.668 55.9509 25.864 56.2869 25.992C56.6309 26.12 56.9469 26.184 57.2349 26.184C57.5389 26.184 57.7709 26.12 57.9309 25.992C58.0909 25.856 58.1709 25.672 58.1709 25.44C58.1709 25.304 58.1309 25.192 58.0509 25.104C57.9709 25.008 57.8109 24.928 57.5709 24.864L56.4189 24.576C56.1469 24.512 55.9229 24.42 55.7469 24.3C55.5789 24.18 55.4429 24.048 55.3389 23.904C55.2429 23.752 55.1749 23.596 55.1349 23.436C55.1029 23.276 55.0869 23.124 55.0869 22.98C55.0869 22.444 55.2749 22.032 55.6509 21.744C56.0269 21.448 56.5149 21.3 57.1149 21.3C57.4269 21.3 57.7629 21.344 58.1229 21.432C58.4829 21.512 58.7869 21.632 59.0349 21.792L58.6869 22.872C58.5269 22.744 58.3029 22.616 58.0149 22.488C57.7269 22.352 57.4069 22.284 57.0549 22.284ZM61.8863 22.296C62.1103 21.944 62.3703 21.692 62.6663 21.54C62.9703 21.38 63.3263 21.3 63.7343 21.3C63.9743 21.3 64.2063 21.336 64.4303 21.408C64.6543 21.472 64.8503 21.58 65.0183 21.732C65.1943 21.884 65.3303 22.084 65.4263 22.332C65.5303 22.58 65.5823 22.884 65.5823 23.244V27H64.2623V23.352C64.2623 23.024 64.1903 22.78 64.0463 22.62C63.9023 22.452 63.7063 22.368 63.4583 22.368C63.3063 22.368 63.1463 22.392 62.9783 22.44C62.8183 22.488 62.6663 22.56 62.5223 22.656C62.3783 22.752 62.2503 22.868 62.1383 23.004C62.0263 23.14 61.9423 23.292 61.8863 23.46V27H60.5663V18.12H61.8863V22.296Z" fill="#0928F5"/>
<path d="M33.9427 18.5836C33.9425 18.5836 33.9423 18.5836 33.9421 18.5836H19.2518C19.1129 18.5835 19.0001 18.6959 19 18.8348C19 18.835 19 18.8352 19 18.8354V25.8867C18.9999 26.0256 19.1123 26.1384 19.2512 26.1385C19.2514 26.1385 19.2516 26.1385 19.2518 26.1385H29.2412C29.3802 26.1385 29.493 26.0258 29.493 25.8867C29.493 25.7477 29.3802 25.635 29.2412 25.635H19.5036V19.0872H33.6903V19.7168C33.6901 19.8557 33.8026 19.9685 33.9415 19.9686C33.9417 19.9686 33.9419 19.9686 33.9421 19.9686C34.081 19.9688 34.1937 19.8563 34.1939 19.7174C34.1939 19.7172 34.1939 19.717 34.1939 19.7168V18.8354C34.194 18.6965 34.0816 18.5838 33.9427 18.5836Z" fill="#0928F5"/>
<path d="M32.2344 17.4146L20.4822 14.7703C20.417 14.7557 20.3486 14.7676 20.2921 14.8032C20.2357 14.8392 20.1958 14.896 20.1811 14.9613L19.5935 17.6055C19.5633 17.7414 19.6489 17.8759 19.7847 17.9061C19.9205 17.9363 20.0551 17.8506 20.0853 17.7148L20.618 15.3171L32.124 17.9058C32.1422 17.91 32.1608 17.9121 32.1795 17.912C32.3186 17.9117 32.4311 17.7988 32.4309 17.6597C32.4306 17.5422 32.3491 17.4405 32.2344 17.4146Z" fill="#0928F5"/>
<path d="M30.8075 15.9576L23.7562 13.0195C23.6336 12.9684 23.4924 13.0209 23.433 13.1397L22.8454 14.3149C22.779 14.4376 22.8247 14.591 22.9475 14.6573C23.0702 14.7237 23.2236 14.678 23.2899 14.5552C23.2925 14.5504 23.295 14.5455 23.2973 14.5405V14.5411L23.7794 13.5762L30.613 16.4235C30.7417 16.4772 30.8896 16.4164 30.9433 16.2878C30.997 16.1591 30.9362 16.0113 30.8075 15.9576Z" fill="#0928F5"/>
<path d="M30.9856 19.7588H28.6536C28.5146 19.7588 28.4019 19.8715 28.4019 20.0106C28.4019 20.1496 28.5146 20.2624 28.6536 20.2624H30.9856C31.1246 20.2624 31.2374 20.1496 31.2374 20.0106C31.2374 19.8715 31.1246 19.7588 30.9856 19.7588Z" fill="#0928F5"/>
<path d="M26.3033 19.7756C24.8753 19.7756 23.7178 20.9331 23.7178 22.3611C23.7192 23.7884 24.876 24.9451 26.3033 24.9466C27.7312 24.9466 28.8888 23.789 28.8888 22.3611C28.8888 20.9331 27.7312 19.7756 26.3033 19.7756ZM26.3033 24.4765C25.1349 24.4765 24.1879 23.5294 24.1879 22.3611C24.1891 21.1933 25.1355 20.2469 26.3033 20.2457C27.4716 20.2457 28.4187 21.1927 28.4187 22.3611C28.4187 23.5294 27.4716 24.4765 26.3033 24.4765Z" fill="#0928F5"/>
<path d="M33.3544 20.5982C31.7973 20.5982 30.1226 20.9661 30.1226 21.7734V28.8248C30.1226 29.6321 31.7973 30 33.3544 30C34.9116 30 36.5863 29.6321 36.5863 28.8248V21.7734C36.5863 20.9661 34.9116 20.5982 33.3544 20.5982ZM35.9987 28.8204C35.9543 28.9834 35.0732 29.4124 33.3544 29.4124C31.6357 29.4124 30.7545 28.9834 30.7102 28.8248V28.3629C31.3354 28.6779 32.3681 28.8248 33.3544 28.8248C34.3407 28.8248 35.3737 28.6764 35.9987 28.3626V28.8204ZM35.9987 27.6451C35.9543 27.8082 35.0732 28.2372 33.3544 28.2372C31.6357 28.2372 30.7545 27.8082 30.7102 27.6495V27.1877C31.3354 27.5026 32.3681 27.6495 33.3544 27.6495C34.3407 27.6495 35.3737 27.5012 35.9987 27.1874V27.6451ZM35.9987 26.4699C35.9543 26.633 35.0732 27.0619 33.3544 27.0619C31.6357 27.0619 30.7545 26.633 30.7102 26.4743V26.0125C31.3354 26.3274 32.3681 26.4743 33.3544 26.4743C34.3407 26.4743 35.3737 26.3259 35.9987 26.0122V26.4699ZM35.9987 25.2947C35.9543 25.4578 35.0732 25.8867 33.3544 25.8867C31.6357 25.8867 30.7545 25.4578 30.7102 25.2991V24.8372C31.3354 25.1522 32.3681 25.2991 33.3544 25.2991C34.3407 25.2991 35.3737 25.1507 35.9987 24.8369V25.2947ZM35.9987 24.1195C35.9543 24.2825 35.0732 24.7115 33.3544 24.7115C31.6357 24.7115 30.7545 24.2825 30.7102 24.1239V23.662C31.3354 23.9755 32.3681 24.1239 33.3544 24.1239C34.3407 24.1239 35.3737 23.9755 35.9987 23.6617V24.1195ZM35.9987 22.9442C35.9543 23.1073 35.0732 23.5363 33.3544 23.5363C31.6357 23.5363 30.7545 23.1073 30.7102 22.9487V22.4868C31.3354 22.8003 32.3681 22.9487 33.3544 22.9487C34.3407 22.9487 35.3737 22.8003 35.9987 22.4865V22.9442ZM33.3544 22.361C31.6383 22.361 30.7575 21.9333 30.7102 21.7787V21.777C30.7575 21.6133 31.6383 21.1858 33.3544 21.1858C35.0585 21.1858 35.9399 21.6071 35.9987 21.7734C35.9399 21.9397 35.0585 22.361 33.3544 22.361Z" fill="#0928F5"/>
<path d="M23.9526 24.4594H21.7317L20.6787 23.3077V21.3979L21.8416 20.2624H23.9526C24.0916 20.2624 24.2044 20.1496 24.2044 20.0106C24.2044 19.8715 24.0916 19.7588 23.9526 19.7588H21.7393C21.6735 19.7586 21.6102 19.7843 21.563 19.8302L20.2506 21.1103C20.2016 21.1676 20.1747 21.2406 20.1748 21.316V23.4055C20.1748 23.4683 20.1983 23.5289 20.2406 23.5753L21.4344 24.881C21.4821 24.9332 21.5496 24.963 21.6203 24.963H23.9526C24.0916 24.963 24.2044 24.8502 24.2044 24.7112C24.2044 24.5721 24.0916 24.4594 23.9526 24.4594Z" fill="#0928F5"/>
<path d="M26.4502 22.0673H26.1564C26.065 22.0673 26.0095 22.0161 26.0095 21.9938C26.0095 21.9715 26.065 21.9204 26.1564 21.9204H26.8909C27.0532 21.9204 27.1847 21.7888 27.1847 21.6266C27.1847 21.4643 27.0532 21.3327 26.8909 21.3327H26.5971C26.5971 21.1705 26.4655 21.0389 26.3033 21.0389C26.141 21.0389 26.0095 21.1705 26.0095 21.3327V21.346C25.6836 21.392 25.4367 21.6636 25.4219 21.9923C25.4429 22.3776 25.771 22.6735 26.1564 22.6549H26.4502C26.5416 22.6549 26.5971 22.706 26.5971 22.7283C26.5971 22.7507 26.5416 22.8018 26.4502 22.8018H25.7157C25.5534 22.8018 25.4219 22.9333 25.4219 23.0956C25.4219 23.2578 25.5534 23.3894 25.7157 23.3894H26.0095C26.0095 23.5516 26.141 23.6832 26.3033 23.6832C26.4655 23.6832 26.5971 23.5516 26.5971 23.3894V23.3762C26.923 23.3301 27.1698 23.0586 27.1847 22.7298C27.1637 22.3446 26.8356 22.0486 26.4502 22.0673Z" fill="#0928F5"/>
</svg>
