<svg width="86" height="43" viewBox="0 0 86 43" fill="none" xmlns="http://www.w3.org/2000/svg">
<rect x="0.5" y="0.5" width="85" height="42" rx="7.5" fill="#DFE3EA" stroke="#DFE3EA"/>
<path d="M39.056 13.08C39.16 13.072 39.324 13.064 39.548 13.056C39.772 13.048 40.008 13.044 40.256 13.044C40.504 13.036 40.74 13.032 40.964 13.032C41.196 13.024 41.376 13.02 41.504 13.02C42.28 13.02 42.916 13.1 43.412 13.26C43.916 13.42 44.332 13.64 44.66 13.92C45.084 14.288 45.392 14.756 45.584 15.324C45.776 15.892 45.872 16.52 45.872 17.208C45.872 17.728 45.804 18.228 45.668 18.708C45.54 19.18 45.304 19.596 44.96 19.956C44.624 20.316 44.156 20.604 43.556 20.82C42.964 21.028 42.204 21.132 41.276 21.132C40.94 21.132 40.58 21.12 40.196 21.096C39.812 21.072 39.432 21.04 39.056 21V13.08ZM41.612 19.992C42.58 19.992 43.284 19.76 43.724 19.296C44.172 18.832 44.396 18.076 44.396 17.028C44.396 16.556 44.348 16.144 44.252 15.792C44.164 15.432 44.008 15.132 43.784 14.892C43.56 14.652 43.26 14.472 42.884 14.352C42.508 14.232 42.04 14.172 41.48 14.172C41.368 14.172 41.216 14.172 41.024 14.172C40.84 14.172 40.644 14.176 40.436 14.184V19.944C40.66 19.96 40.876 19.972 41.084 19.98C41.292 19.988 41.468 19.992 41.612 19.992ZM49.7618 15.3C50.4658 15.3 51.0098 15.48 51.3938 15.84C51.7778 16.192 51.9698 16.692 51.9698 17.34C51.9698 17.428 51.9618 17.524 51.9458 17.628C51.9378 17.724 51.9218 17.82 51.8978 17.916C51.8818 18.012 51.8578 18.1 51.8258 18.18C51.8018 18.252 51.7738 18.312 51.7418 18.36H48.2498C48.2658 18.6 48.3098 18.828 48.3818 19.044C48.4538 19.252 48.5578 19.436 48.6938 19.596C48.8298 19.748 48.9938 19.872 49.1858 19.968C49.3858 20.056 49.6178 20.1 49.8818 20.1C50.1778 20.1 50.4898 20.044 50.8178 19.932C51.1538 19.82 51.4378 19.68 51.6698 19.512L51.8858 20.496C51.7818 20.56 51.6538 20.632 51.5018 20.712C51.3498 20.784 51.1778 20.852 50.9858 20.916C50.7938 20.98 50.5858 21.032 50.3618 21.072C50.1458 21.12 49.9178 21.144 49.6778 21.144C49.2298 21.144 48.8338 21.068 48.4898 20.916C48.1458 20.756 47.8578 20.544 47.6258 20.28C47.3938 20.008 47.2178 19.696 47.0978 19.344C46.9778 18.992 46.9178 18.624 46.9178 18.24C46.9178 17.848 46.9778 17.476 47.0978 17.124C47.2258 16.764 47.4098 16.448 47.6498 16.176C47.8898 15.904 48.1858 15.692 48.5378 15.54C48.8978 15.38 49.3058 15.3 49.7618 15.3ZM49.7258 16.332C49.3898 16.332 49.1018 16.432 48.8618 16.632C48.6298 16.824 48.4618 17.088 48.3578 17.424H50.6498C50.6578 17.4 50.6618 17.372 50.6618 17.34C50.6698 17.308 50.6738 17.268 50.6738 17.22C50.6738 16.964 50.5858 16.752 50.4098 16.584C50.2338 16.416 50.0058 16.332 49.7258 16.332ZM56.3484 21.144C55.9164 21.144 55.5564 21.056 55.2684 20.88C54.9884 20.704 54.7364 20.492 54.5124 20.244H54.4644L54.3684 21H53.3124V12.12H54.6204V16.032C54.8044 15.8 55.0484 15.62 55.3524 15.492C55.6564 15.364 56.0004 15.3 56.3844 15.3C56.8004 15.3 57.1644 15.38 57.4764 15.54C57.7884 15.7 58.0484 15.912 58.2564 16.176C58.4644 16.44 58.6164 16.748 58.7124 17.1C58.8164 17.444 58.8684 17.804 58.8684 18.18C58.8684 18.604 58.8084 18.996 58.6884 19.356C58.5684 19.716 58.3964 20.028 58.1724 20.292C57.9564 20.556 57.6924 20.764 57.3804 20.916C57.0684 21.068 56.7244 21.144 56.3484 21.144ZM56.1804 20.148C56.4124 20.148 56.6124 20.092 56.7804 19.98C56.9564 19.868 57.1004 19.724 57.2124 19.548C57.3324 19.364 57.4204 19.156 57.4764 18.924C57.5324 18.684 57.5604 18.444 57.5604 18.204C57.5604 17.956 57.5284 17.72 57.4644 17.496C57.4084 17.264 57.3164 17.06 57.1884 16.884C57.0684 16.708 56.9124 16.572 56.7204 16.476C56.5364 16.372 56.3204 16.32 56.0724 16.32C55.8404 16.32 55.6004 16.376 55.3524 16.488C55.1044 16.592 54.8604 16.792 54.6204 17.088V19.392C54.7084 19.512 54.8164 19.62 54.9444 19.716C55.0724 19.804 55.2044 19.88 55.3404 19.944C55.4844 20.008 55.6284 20.06 55.7724 20.1C55.9164 20.132 56.0524 20.148 56.1804 20.148ZM61.523 21H60.203V15.48H61.523V21ZM60.011 13.704C60.011 13.592 60.031 13.484 60.071 13.38C60.119 13.276 60.183 13.184 60.263 13.104C60.343 13.016 60.431 12.948 60.527 12.9C60.631 12.852 60.743 12.828 60.863 12.828C60.975 12.828 61.083 12.852 61.187 12.9C61.291 12.948 61.383 13.016 61.463 13.104C61.551 13.184 61.619 13.276 61.667 13.38C61.715 13.484 61.739 13.592 61.739 13.704C61.739 13.824 61.715 13.936 61.667 14.04C61.619 14.136 61.551 14.224 61.463 14.304C61.383 14.384 61.291 14.448 61.187 14.496C61.083 14.536 60.975 14.556 60.863 14.556C60.631 14.556 60.431 14.472 60.263 14.304C60.095 14.136 60.011 13.936 60.011 13.704ZM63.4316 16.284H62.7476V15.564L63.5276 15.444L63.7436 13.812H64.7516V15.48H65.8076V16.284H64.7516V19.452C64.7516 19.692 64.7756 19.856 64.8236 19.944C64.8716 20.024 64.9636 20.064 65.0996 20.064C65.2036 20.064 65.3076 20.044 65.4116 20.004C65.5156 19.964 65.6676 19.888 65.8676 19.776L66.0836 20.724C65.9316 20.852 65.7156 20.952 65.4356 21.024C65.1636 21.104 64.8916 21.144 64.6196 21.144C64.3796 21.144 64.1796 21.112 64.0196 21.048C63.8676 20.984 63.7476 20.892 63.6596 20.772C63.5716 20.644 63.5116 20.492 63.4796 20.316C63.4476 20.14 63.4316 19.944 63.4316 19.728V16.284ZM44.624 27.784C44.368 27.608 44.06 27.468 43.7 27.364C43.348 27.252 42.944 27.196 42.488 27.196C42.056 27.196 41.684 27.264 41.372 27.4C41.068 27.536 40.82 27.728 40.628 27.976C40.436 28.224 40.292 28.524 40.196 28.876C40.108 29.22 40.064 29.604 40.064 30.028C40.064 30.996 40.268 31.728 40.676 32.224C41.092 32.72 41.688 32.968 42.464 32.968C42.944 32.968 43.38 32.896 43.772 32.752C44.172 32.608 44.5 32.432 44.756 32.224L45.116 33.412C44.796 33.604 44.408 33.776 43.952 33.928C43.504 34.072 42.996 34.144 42.428 34.144C41.772 34.144 41.204 34.036 40.724 33.82C40.244 33.604 39.844 33.312 39.524 32.944C39.212 32.576 38.98 32.152 38.828 31.672C38.676 31.184 38.6 30.668 38.6 30.124C38.6 29.556 38.684 29.024 38.852 28.528C39.02 28.032 39.268 27.6 39.596 27.232C39.932 26.856 40.344 26.56 40.832 26.344C41.328 26.128 41.904 26.02 42.56 26.02C42.992 26.02 43.424 26.068 43.856 26.164C44.288 26.252 44.66 26.376 44.972 26.536L44.624 27.784ZM49.7232 34L49.6272 33.244H49.5792C49.3632 33.516 49.0672 33.736 48.6912 33.904C48.3232 34.064 47.9472 34.144 47.5632 34.144C47.0592 34.144 46.6632 34 46.3752 33.712C46.0872 33.416 45.9432 33.028 45.9432 32.548C45.9432 32.22 46.0112 31.928 46.1472 31.672C46.2912 31.408 46.4952 31.188 46.7592 31.012C47.0232 30.828 47.3392 30.688 47.7072 30.592C48.0752 30.496 48.4872 30.448 48.9432 30.448H49.4592V30.268C49.4592 29.956 49.3592 29.728 49.1592 29.584C48.9512 29.44 48.6272 29.368 48.1872 29.368C47.5952 29.368 47.0672 29.5 46.6032 29.764L46.3512 28.768C46.8872 28.456 47.5352 28.3 48.2952 28.3C49.0952 28.3 49.7032 28.464 50.1192 28.792C50.3112 28.944 50.4672 29.14 50.5872 29.38C50.7152 29.62 50.7792 29.908 50.7792 30.244V34H49.7232ZM48.0792 33.076C48.3352 33.076 48.5912 33.016 48.8472 32.896C49.1032 32.768 49.3072 32.6 49.4592 32.392V31.3H49.2312C48.5752 31.3 48.0952 31.384 47.7912 31.552C47.4952 31.72 47.3472 31.988 47.3472 32.356C47.3472 32.836 47.5912 33.076 48.0792 33.076ZM55.5309 29.68C55.4509 29.616 55.3269 29.564 55.1589 29.524C54.9909 29.484 54.8469 29.464 54.7269 29.464C54.5669 29.464 54.4349 29.504 54.3309 29.584C54.2269 29.656 54.1349 29.756 54.0549 29.884C53.9749 30.004 53.9069 30.144 53.8509 30.304C53.7949 30.464 53.7429 30.628 53.6949 30.796V34H52.3749V28.48H53.4069L53.4669 29.632H53.5149C53.5949 29.464 53.6789 29.3 53.7669 29.14C53.8549 28.98 53.9549 28.84 54.0669 28.72C54.1789 28.592 54.3069 28.492 54.4509 28.42C54.6029 28.34 54.7789 28.3 54.9789 28.3C55.2989 28.3 55.5989 28.404 55.8789 28.612L55.5309 29.68ZM58.9537 34.144C58.5777 34.144 58.2337 34.068 57.9217 33.916C57.6097 33.764 57.3417 33.556 57.1177 33.292C56.9017 33.028 56.7337 32.716 56.6137 32.356C56.4937 31.996 56.4337 31.604 56.4337 31.18C56.4337 30.804 56.4817 30.444 56.5777 30.1C56.6817 29.748 56.8377 29.44 57.0457 29.176C57.2537 28.912 57.5097 28.7 57.8137 28.54C58.1257 28.38 58.4937 28.3 58.9177 28.3C59.3017 28.3 59.6457 28.364 59.9497 28.492C60.2537 28.62 60.4977 28.8 60.6817 29.032V25.12H61.9897V34H60.9337L60.8377 33.244H60.7897C60.5657 33.492 60.3097 33.704 60.0217 33.88C59.7417 34.056 59.3857 34.144 58.9537 34.144ZM59.1217 33.148C59.2497 33.148 59.3857 33.132 59.5297 33.1C59.6737 33.06 59.8137 33.008 59.9497 32.944C60.0937 32.88 60.2297 32.804 60.3577 32.716C60.4857 32.62 60.5937 32.512 60.6817 32.392V30.088C60.4417 29.792 60.1977 29.592 59.9497 29.488C59.7017 29.376 59.4617 29.32 59.2297 29.32C58.9737 29.32 58.7537 29.372 58.5697 29.476C58.3857 29.572 58.2297 29.708 58.1017 29.884C57.9817 30.06 57.8897 30.264 57.8257 30.496C57.7697 30.72 57.7417 30.956 57.7417 31.204C57.7417 31.444 57.7697 31.684 57.8257 31.924C57.8817 32.156 57.9657 32.364 58.0777 32.548C58.1897 32.724 58.3337 32.868 58.5097 32.98C58.6857 33.092 58.8897 33.148 59.1217 33.148Z" fill="#0928F5"/>
<path d="M32.7966 19.6509L29.1224 13.2877C28.9634 13.0125 28.6114 12.9183 28.3361 13.0773C28.336 13.0773 28.336 13.0773 28.3358 13.0774L16.9674 19.6403H16.5755C16.2577 19.6403 16 19.8979 16 20.2158V29.4245C16 29.7423 16.2577 30 16.5755 30H32.6907C33.0086 30 33.2663 29.7423 33.2663 29.4245V20.2158C33.2659 19.9392 33.0687 19.7018 32.7966 19.6509ZM22.8441 19.6403L29.8049 15.6221L30.4326 16.709L25.3561 19.6403H22.8441ZM30.7207 17.2075L32.1259 19.6403H26.5071L30.7207 17.2075ZM28.6227 13.5758L29.5169 15.1237L21.6926 19.6403H18.1186L28.6227 13.5758ZM16.5755 29.4245V20.2158H32.6907V29.4245H16.5755Z" fill="#0928F5"/>
<path d="M30.3883 25.3957C30.0262 25.3963 29.6737 25.5115 29.3811 25.7247C28.6092 25.1648 27.5295 25.3367 26.9697 26.1085C26.4098 26.8805 26.5817 27.9601 27.3537 28.52C27.9583 28.9587 28.7765 28.9587 29.3811 28.52C30.1539 29.0775 31.2321 28.9029 31.7896 28.1302C32.3469 27.3575 32.1724 26.2791 31.3996 25.7218C31.1052 25.5094 30.7514 25.3952 30.3883 25.3957ZM27.2228 27.1223C27.2239 26.4854 27.7411 25.9701 28.3779 25.9713C28.6764 25.9718 28.9631 26.088 29.1776 26.2956C29.6342 26.7428 29.6417 27.4754 29.1945 27.9318C29.1895 27.9371 29.1843 27.9422 29.1791 27.9474C28.7225 28.3912 27.9927 28.3806 27.5489 27.9242C27.3402 27.7093 27.2232 27.4218 27.2228 27.1223ZM30.3883 28.2734C30.1781 28.2741 29.9717 28.2172 29.7915 28.1089C29.7929 28.106 29.7945 28.1031 29.7963 28.1004C29.8394 28.0369 29.8784 27.9707 29.9129 27.9022C29.921 27.8861 29.9282 27.8703 29.9357 27.8541C29.9664 27.7897 29.9929 27.7234 30.015 27.6556C30.0174 27.6487 30.0203 27.6424 30.0223 27.6357C30.0448 27.5623 30.0623 27.4874 30.0747 27.4116C30.0776 27.3934 30.0801 27.375 30.0827 27.357C30.1064 27.2015 30.1064 27.0434 30.0827 26.8881C30.0801 26.8697 30.0776 26.8512 30.0744 26.8329C30.0622 26.7573 30.0448 26.6828 30.0225 26.6095C30.0203 26.6021 30.0169 26.5946 30.0145 26.5871C29.9925 26.521 29.9665 26.4562 29.9368 26.3931C29.9285 26.3753 29.9204 26.3578 29.9117 26.3405C29.8775 26.2732 29.839 26.2081 29.7966 26.1457C29.7946 26.1425 29.7932 26.139 29.7912 26.1358C30.336 25.8083 31.0432 25.9843 31.3708 26.5292C31.6984 27.074 31.5223 27.7813 30.9776 28.1089C30.7996 28.2158 30.596 28.2727 30.3883 28.2734Z" fill="#0928F5"/>
<path d="M17.7266 25.3958H18.3021V25.9713H17.7266V25.3958Z" fill="#0928F5"/>
<path d="M18.8774 25.3958H19.453V25.9713H18.8774V25.3958Z" fill="#0928F5"/>
<path d="M20.0288 25.3958H20.6043V25.9713H20.0288V25.3958Z" fill="#0928F5"/>
<path d="M21.1802 25.3958H21.7557V25.9713H21.1802V25.3958Z" fill="#0928F5"/>
<path d="M22.3311 25.3958H22.9066V25.9713H22.3311V25.3958Z" fill="#0928F5"/>
<path d="M23.4819 25.3958H24.0575V25.9713H23.4819V25.3958Z" fill="#0928F5"/>
<path d="M24.6333 25.3958H25.2088V25.9713H24.6333V25.3958Z" fill="#0928F5"/>
<path d="M25.7842 25.3958H26.3597V25.9713H25.7842V25.3958Z" fill="#0928F5"/>
<path d="M17.7266 27.1223H25.7842V27.6978H17.7266V27.1223Z" fill="#0928F5"/>
<path d="M18.3021 23.669H20.0288C20.3467 23.669 20.6044 23.4114 20.6044 23.0935V21.9424C20.6044 21.6245 20.3467 21.3669 20.0288 21.3669H18.3021C17.9842 21.3669 17.7266 21.6245 17.7266 21.9424V23.0935C17.7266 23.4114 17.9842 23.669 18.3021 23.669ZM18.3021 21.9424H20.0288V23.0935H18.3021V21.9424Z" fill="#0928F5"/>
<path d="M22.3309 23.0935H30.964C31.2819 23.0935 31.5396 22.8358 31.5396 22.5179V21.9424C31.5396 21.6245 31.2819 21.3669 30.964 21.3669H22.3309C22.013 21.3669 21.7554 21.6245 21.7554 21.9424V22.5179C21.7554 22.8358 22.013 23.0935 22.3309 23.0935ZM22.3309 21.9424H30.964V22.5179H22.3309V21.9424Z" fill="#0928F5"/>
</svg>
