<svg width="86" height="43" viewBox="0 0 86 43" fill="none" xmlns="http://www.w3.org/2000/svg">
<rect x="0.5" y="0.5" width="85" height="42" rx="7.5" fill="#DFE3EA" stroke="#0928F5"/>
<path d="M47.624 20.784C47.368 20.608 47.06 20.468 46.7 20.364C46.348 20.252 45.944 20.196 45.488 20.196C45.056 20.196 44.684 20.264 44.372 20.4C44.068 20.536 43.82 20.728 43.628 20.976C43.436 21.224 43.292 21.524 43.196 21.876C43.108 22.22 43.064 22.604 43.064 23.028C43.064 23.996 43.268 24.728 43.676 25.224C44.092 25.72 44.688 25.968 45.464 25.968C45.944 25.968 46.38 25.896 46.772 25.752C47.172 25.608 47.5 25.432 47.756 25.224L48.116 26.412C47.796 26.604 47.408 26.776 46.952 26.928C46.504 27.072 45.996 27.144 45.428 27.144C44.772 27.144 44.204 27.036 43.724 26.82C43.244 26.604 42.844 26.312 42.524 25.944C42.212 25.576 41.98 25.152 41.828 24.672C41.676 24.184 41.6 23.668 41.6 23.124C41.6 22.556 41.684 22.024 41.852 21.528C42.02 21.032 42.268 20.6 42.596 20.232C42.932 19.856 43.344 19.56 43.832 19.344C44.328 19.128 44.904 19.02 45.56 19.02C45.992 19.02 46.424 19.068 46.856 19.164C47.288 19.252 47.66 19.376 47.972 19.536L47.624 20.784ZM52.7232 27L52.6272 26.244H52.5792C52.3632 26.516 52.0672 26.736 51.6912 26.904C51.3232 27.064 50.9472 27.144 50.5632 27.144C50.0592 27.144 49.6632 27 49.3752 26.712C49.0872 26.416 48.9432 26.028 48.9432 25.548C48.9432 25.22 49.0112 24.928 49.1472 24.672C49.2912 24.408 49.4952 24.188 49.7592 24.012C50.0232 23.828 50.3392 23.688 50.7072 23.592C51.0752 23.496 51.4872 23.448 51.9432 23.448H52.4592V23.268C52.4592 22.956 52.3592 22.728 52.1592 22.584C51.9512 22.44 51.6272 22.368 51.1872 22.368C50.5952 22.368 50.0672 22.5 49.6032 22.764L49.3512 21.768C49.8872 21.456 50.5352 21.3 51.2952 21.3C52.0952 21.3 52.7032 21.464 53.1192 21.792C53.3112 21.944 53.4672 22.14 53.5872 22.38C53.7152 22.62 53.7792 22.908 53.7792 23.244V27H52.7232ZM51.0792 26.076C51.3352 26.076 51.5912 26.016 51.8472 25.896C52.1032 25.768 52.3072 25.6 52.4592 25.392V24.3H52.2312C51.5752 24.3 51.0952 24.384 50.7912 24.552C50.4952 24.72 50.3472 24.988 50.3472 25.356C50.3472 25.836 50.5912 26.076 51.0792 26.076ZM57.0549 22.284C56.7909 22.284 56.5829 22.336 56.4309 22.44C56.2869 22.536 56.2149 22.676 56.2149 22.86C56.2149 22.98 56.2549 23.092 56.3349 23.196C56.4229 23.292 56.6029 23.372 56.8749 23.436L57.7269 23.628C58.0629 23.7 58.3309 23.804 58.5309 23.94C58.7389 24.076 58.8989 24.224 59.0109 24.384C59.1309 24.544 59.2109 24.708 59.2509 24.876C59.2909 25.044 59.3109 25.2 59.3109 25.344C59.3109 25.6 59.2589 25.84 59.1549 26.064C59.0509 26.28 58.9029 26.468 58.7109 26.628C58.5189 26.788 58.2869 26.912 58.0149 27C57.7429 27.096 57.4389 27.144 57.1029 27.144C56.6789 27.144 56.2869 27.084 55.9269 26.964C55.5669 26.836 55.2789 26.696 55.0629 26.544L55.3749 25.404C55.6469 25.668 55.9509 25.864 56.2869 25.992C56.6309 26.12 56.9469 26.184 57.2349 26.184C57.5389 26.184 57.7709 26.12 57.9309 25.992C58.0909 25.856 58.1709 25.672 58.1709 25.44C58.1709 25.304 58.1309 25.192 58.0509 25.104C57.9709 25.008 57.8109 24.928 57.5709 24.864L56.4189 24.576C56.1469 24.512 55.9229 24.42 55.7469 24.3C55.5789 24.18 55.4429 24.048 55.3389 23.904C55.2429 23.752 55.1749 23.596 55.1349 23.436C55.1029 23.276 55.0869 23.124 55.0869 22.98C55.0869 22.444 55.2749 22.032 55.6509 21.744C56.0269 21.448 56.5149 21.3 57.1149 21.3C57.4269 21.3 57.7629 21.344 58.1229 21.432C58.4829 21.512 58.7869 21.632 59.0349 21.792L58.6869 22.872C58.5269 22.744 58.3029 22.616 58.0149 22.488C57.7269 22.352 57.4069 22.284 57.0549 22.284ZM61.8863 22.296C62.1103 21.944 62.3703 21.692 62.6663 21.54C62.9703 21.38 63.3263 21.3 63.7343 21.3C63.9743 21.3 64.2063 21.336 64.4303 21.408C64.6543 21.472 64.8503 21.58 65.0183 21.732C65.1943 21.884 65.3303 22.084 65.4263 22.332C65.5303 22.58 65.5823 22.884 65.5823 23.244V27H64.2623V23.352C64.2623 23.024 64.1903 22.78 64.0463 22.62C63.9023 22.452 63.7063 22.368 63.4583 22.368C63.3063 22.368 63.1463 22.392 62.9783 22.44C62.8183 22.488 62.6663 22.56 62.5223 22.656C62.3783 22.752 62.2503 22.868 62.1383 23.004C62.0263 23.14 61.9423 23.292 61.8863 23.46V27H60.5663V18.12H61.8863V22.296Z" fill="#0928F5"/>
<path d="M33.9427 18.584C33.9425 18.584 33.9423 18.584 33.9421 18.584H19.2518C19.1129 18.5838 19.0001 18.6963 19 18.8352C19 18.8354 19 18.8356 19 18.8358V25.8871C18.9999 26.026 19.1123 26.1388 19.2512 26.1389C19.2514 26.1389 19.2516 26.1389 19.2518 26.1389H29.2412C29.3802 26.1389 29.493 26.0262 29.493 25.8871C29.493 25.7481 29.3802 25.6353 29.2412 25.6353H19.5036V19.0876H33.6903V19.7172C33.6901 19.8561 33.8026 19.9688 33.9415 19.969C33.9417 19.969 33.9419 19.969 33.9421 19.969C34.081 19.9691 34.1937 19.8567 34.1939 19.7178C34.1939 19.7176 34.1939 19.7174 34.1939 19.7172V18.8358C34.194 18.6969 34.0816 18.5842 33.9427 18.584Z" fill="#0928F5"/>
<path d="M32.2344 17.415L20.4822 14.7707C20.417 14.7562 20.3486 14.768 20.2921 14.8036C20.2357 14.8396 20.1958 14.8964 20.1811 14.9617L19.5935 17.606C19.5633 17.7418 19.6489 17.8763 19.7847 17.9065C19.9205 17.9367 20.0551 17.8511 20.0853 17.7153L20.618 15.3175L32.124 17.9062C32.1422 17.9105 32.1608 17.9126 32.1795 17.9124C32.3186 17.9121 32.4311 17.7992 32.4309 17.6602C32.4306 17.5426 32.3491 17.4409 32.2344 17.415Z" fill="#0928F5"/>
<path d="M30.8075 15.9576L23.7562 13.0195C23.6336 12.9684 23.4924 13.0209 23.433 13.1397L22.8454 14.3149C22.779 14.4376 22.8247 14.591 22.9475 14.6573C23.0702 14.7237 23.2236 14.678 23.2899 14.5552C23.2925 14.5504 23.295 14.5455 23.2973 14.5405V14.5411L23.7794 13.5762L30.613 16.4235C30.7417 16.4772 30.8896 16.4164 30.9433 16.2878C30.997 16.1591 30.9362 16.0113 30.8075 15.9576Z" fill="#0928F5"/>
<path d="M30.9856 19.7588H28.6536C28.5146 19.7588 28.4019 19.8715 28.4019 20.0106C28.4019 20.1496 28.5146 20.2624 28.6536 20.2624H30.9856C31.1246 20.2624 31.2374 20.1496 31.2374 20.0106C31.2374 19.8715 31.1246 19.7588 30.9856 19.7588Z" fill="#0928F5"/>
<path d="M26.3033 19.7754C24.8753 19.7754 23.7178 20.9329 23.7178 22.3609C23.7192 23.7882 24.876 24.9449 26.3033 24.9464C27.7312 24.9464 28.8888 23.7888 28.8888 22.3609C28.8888 20.9329 27.7312 19.7754 26.3033 19.7754ZM26.3033 24.4763C25.1349 24.4763 24.1879 23.5292 24.1879 22.3609C24.1891 21.1931 25.1355 20.2468 26.3033 20.2455C27.4716 20.2455 28.4187 21.1926 28.4187 22.3609C28.4187 23.5292 27.4716 24.4763 26.3033 24.4763Z" fill="#0928F5"/>
<path d="M33.3544 20.5986C31.7973 20.5986 30.1226 20.9665 30.1226 21.7739V28.8252C30.1226 29.6326 31.7973 30.0004 33.3544 30.0004C34.9116 30.0004 36.5863 29.6326 36.5863 28.8252V21.7739C36.5863 20.9665 34.9116 20.5986 33.3544 20.5986ZM35.9987 28.8208C35.9543 28.9838 35.0732 29.4128 33.3544 29.4128C31.6357 29.4128 30.7545 28.9838 30.7102 28.8252V28.3633C31.3354 28.6783 32.3681 28.8252 33.3544 28.8252C34.3407 28.8252 35.3737 28.6768 35.9987 28.363V28.8208ZM35.9987 27.6456C35.9543 27.8086 35.0732 28.2376 33.3544 28.2376C31.6357 28.2376 30.7545 27.8086 30.7102 27.65V27.1881C31.3354 27.5031 32.3681 27.65 33.3544 27.65C34.3407 27.65 35.3737 27.5016 35.9987 27.1878V27.6456ZM35.9987 26.4703C35.9543 26.6334 35.0732 27.0624 33.3544 27.0624C31.6357 27.0624 30.7545 26.6334 30.7102 26.4747V26.0129C31.3354 26.3278 32.3681 26.4747 33.3544 26.4747C34.3407 26.4747 35.3737 26.3264 35.9987 26.0126V26.4703ZM35.9987 25.2951C35.9543 25.4582 35.0732 25.8871 33.3544 25.8871C31.6357 25.8871 30.7545 25.4582 30.7102 25.2995V24.8377C31.3354 25.1526 32.3681 25.2995 33.3544 25.2995C34.3407 25.2995 35.3737 25.1512 35.9987 24.8374V25.2951ZM35.9987 24.1199C35.9543 24.283 35.0732 24.7119 33.3544 24.7119C31.6357 24.7119 30.7545 24.283 30.7102 24.1243V23.6624C31.3354 23.9759 32.3681 24.1243 33.3544 24.1243C34.3407 24.1243 35.3737 23.9759 35.9987 23.6621V24.1199ZM35.9987 22.9447C35.9543 23.1077 35.0732 23.5367 33.3544 23.5367C31.6357 23.5367 30.7545 23.1077 30.7102 22.9491V22.4872C31.3354 22.8007 32.3681 22.9491 33.3544 22.9491C34.3407 22.9491 35.3737 22.8007 35.9987 22.4869V22.9447ZM33.3544 22.3615C31.6383 22.3615 30.7575 21.9337 30.7102 21.7791V21.7774C30.7575 21.6137 31.6383 21.1862 33.3544 21.1862C35.0585 21.1862 35.9399 21.6076 35.9987 21.7739C35.9399 21.9401 35.0585 22.3615 33.3544 22.3615Z" fill="#0928F5"/>
<path d="M23.9526 24.4594H21.7317L20.6787 23.3077V21.3979L21.8416 20.2624H23.9526C24.0916 20.2624 24.2044 20.1496 24.2044 20.0106C24.2044 19.8715 24.0916 19.7588 23.9526 19.7588H21.7393C21.6735 19.7586 21.6102 19.7843 21.563 19.8302L20.2506 21.1103C20.2016 21.1676 20.1747 21.2406 20.1748 21.316V23.4055C20.1748 23.4683 20.1983 23.5289 20.2406 23.5753L21.4344 24.881C21.4821 24.9332 21.5496 24.963 21.6203 24.963H23.9526C24.0916 24.963 24.2044 24.8502 24.2044 24.7112C24.2044 24.5721 24.0916 24.4594 23.9526 24.4594Z" fill="#0928F5"/>
<path d="M26.4502 22.0674H26.1564C26.065 22.0674 26.0095 22.0163 26.0095 21.9939C26.0095 21.9716 26.065 21.9205 26.1564 21.9205H26.8909C27.0532 21.9205 27.1847 21.7889 27.1847 21.6267C27.1847 21.4644 27.0532 21.3329 26.8909 21.3329H26.5971C26.5971 21.1706 26.4655 21.0391 26.3033 21.0391C26.141 21.0391 26.0095 21.1706 26.0095 21.3329V21.3461C25.6836 21.3921 25.4367 21.6637 25.4219 21.9925C25.4429 22.3777 25.771 22.6737 26.1564 22.655H26.4502C26.5416 22.655 26.5971 22.7061 26.5971 22.7284C26.5971 22.7508 26.5416 22.8019 26.4502 22.8019H25.7157C25.5534 22.8019 25.4219 22.9334 25.4219 23.0957C25.4219 23.258 25.5534 23.3895 25.7157 23.3895H26.0095C26.0095 23.5518 26.141 23.6833 26.3033 23.6833C26.4655 23.6833 26.5971 23.5518 26.5971 23.3895V23.3763C26.923 23.3303 27.1698 23.0587 27.1847 22.7299C27.1637 22.3447 26.8356 22.0487 26.4502 22.0674Z" fill="#0928F5"/>
</svg>
