<svg width="43" height="43" viewBox="0 0 43 43" fill="none" xmlns="http://www.w3.org/2000/svg">
<path d="M16.0548 31.5625H18.3688V29.71H18.8563V34H18.3688V32.0175H16.0548V34H15.5673V29.71H16.0548V31.5625ZM21.2767 30.9125C21.658 30.9125 21.9527 31.01 22.1607 31.205C22.3687 31.3957 22.4727 31.6665 22.4727 32.0175C22.4727 32.0912 22.4683 32.167 22.4597 32.245C22.451 32.3187 22.4358 32.3728 22.4142 32.4075H20.2237V32.4725C20.2237 32.6372 20.2453 32.7953 20.2887 32.947C20.332 33.0987 20.397 33.233 20.4837 33.35C20.5703 33.467 20.6787 33.5602 20.8087 33.6295C20.943 33.6988 21.1012 33.7335 21.2832 33.7335C21.3872 33.7335 21.489 33.7227 21.5887 33.701C21.6883 33.675 21.7837 33.6447 21.8747 33.61C21.9657 33.571 22.0502 33.5298 22.1282 33.4865C22.2062 33.4432 22.2755 33.3998 22.3362 33.3565L22.4142 33.727C22.3578 33.7617 22.2885 33.8007 22.2062 33.844C22.1238 33.883 22.0328 33.9198 21.9332 33.9545C21.8335 33.9892 21.723 34.0173 21.6017 34.039C21.4847 34.065 21.3612 34.078 21.2312 34.078C20.9885 34.078 20.774 34.0368 20.5877 33.9545C20.4013 33.8678 20.2453 33.753 20.1197 33.61C19.994 33.4627 19.8987 33.2937 19.8337 33.103C19.7687 32.9123 19.7362 32.713 19.7362 32.505C19.7362 32.2927 19.7687 32.0912 19.8337 31.9005C19.903 31.7055 20.0027 31.5343 20.1327 31.387C20.2627 31.2397 20.423 31.1248 20.6137 31.0425C20.8087 30.9558 21.0297 30.9125 21.2767 30.9125ZM21.2572 31.2765C20.9712 31.2765 20.748 31.3523 20.5877 31.504C20.4317 31.6513 20.3255 31.8377 20.2692 32.063H22.0437C22.048 32.0413 22.0502 32.0218 22.0502 32.0045C22.0502 31.9872 22.0502 31.9677 22.0502 31.946C22.0502 31.8377 22.0285 31.7423 21.9852 31.66C21.9418 31.5733 21.8833 31.5018 21.8097 31.4455C21.736 31.3892 21.6515 31.348 21.5562 31.322C21.4608 31.2917 21.3612 31.2765 21.2572 31.2765ZM23.7896 34H23.3346V29.19H23.7896V34ZM26.4499 30.9125C26.6709 30.9125 26.8637 30.9558 27.0284 31.0425C27.1931 31.1292 27.3296 31.244 27.4379 31.387C27.5462 31.53 27.6264 31.6968 27.6784 31.8875C27.7347 32.0738 27.7629 32.271 27.7629 32.479C27.7629 32.6957 27.7326 32.9015 27.6719 33.0965C27.6156 33.2872 27.5289 33.4562 27.4119 33.6035C27.2992 33.7465 27.1562 33.8613 26.9829 33.948C26.8096 34.0347 26.6081 34.078 26.3784 34.078C26.0881 34.078 25.8497 34.0152 25.6634 33.8895C25.4771 33.7638 25.3557 33.6078 25.2994 33.4215V35.69H24.8444V31.01H25.2019L25.2539 31.569H25.2799C25.3319 31.491 25.3947 31.413 25.4684 31.335C25.5464 31.2527 25.6352 31.1812 25.7349 31.1205C25.8346 31.0598 25.9429 31.01 26.0599 30.971C26.1812 30.932 26.3112 30.9125 26.4499 30.9125ZM26.3329 31.296C26.1249 31.296 25.9299 31.3523 25.7479 31.465C25.5702 31.5777 25.4207 31.7402 25.2994 31.9525V32.908C25.3384 33.0337 25.3947 33.1442 25.4684 33.2395C25.5421 33.3348 25.6266 33.4172 25.7219 33.4865C25.8216 33.5558 25.9256 33.6078 26.0339 33.6425C26.1466 33.6772 26.2592 33.6945 26.3719 33.6945C26.5236 33.6945 26.6557 33.6642 26.7684 33.6035C26.8811 33.5428 26.9742 33.4583 27.0479 33.35C27.1259 33.2417 27.1844 33.116 27.2234 32.973C27.2624 32.83 27.2819 32.6762 27.2819 32.5115C27.2819 32.3555 27.2624 32.2038 27.2234 32.0565C27.1887 31.9092 27.1324 31.7792 27.0544 31.6665C26.9764 31.5538 26.8767 31.465 26.7554 31.4C26.6384 31.3307 26.4976 31.296 26.3329 31.296Z" fill="#3C3D4F"/>
<path d="M21.4997 11.8333C20.7184 11.8333 20.083 12.4687 20.083 13.25C20.083 14.0313 20.7183 14.6667 21.4997 14.6667C22.281 14.6667 22.9164 14.0313 22.9164 13.25C22.9164 12.4687 22.281 11.8333 21.4997 11.8333ZM21.4997 13.9583C21.1092 13.9583 20.7914 13.6405 20.7914 13.25C20.7914 12.8595 21.1092 12.5417 21.4997 12.5417C21.8902 12.5417 22.208 12.8595 22.208 13.25C22.208 13.6405 21.8902 13.9583 21.4997 13.9583Z" fill="#3C3D4F"/>
<path d="M22.5625 15.375H19.7292C19.5334 15.375 19.375 15.5334 19.375 15.7292V17.1459C19.375 17.3416 19.5334 17.5 19.7292 17.5H20.0834V22.8125C20.0834 23.0083 20.2418 23.1667 20.4375 23.1667H22.5625C22.7583 23.1667 22.9167 23.0083 22.9167 22.8125V15.7292C22.9167 15.5334 22.7583 15.375 22.5625 15.375ZM22.2083 22.4583H20.7916V17.1458C20.7916 16.9501 20.6332 16.7916 20.4375 16.7916H20.0833V16.0833H22.2083V22.4583H22.2083Z" fill="#3C3D4F"/>
<path d="M21.5 9C16.8132 9 13 12.8132 13 17.5C13 22.1868 16.8132 26 21.5 26C26.1868 26 30 22.1868 30 17.5C30 12.8132 26.1868 9 21.5 9ZM21.5 25.2917C17.2036 25.2917 13.7083 21.7964 13.7083 17.5C13.7083 13.2036 17.2036 9.70832 21.5 9.70832C25.7964 9.70832 29.2917 13.2036 29.2917 17.5C29.2917 21.7964 25.7964 25.2917 21.5 25.2917Z" fill="#3C3D4F"/>
</svg>
