<svg width="43" height="43" viewBox="0 0 43 43" fill="none" xmlns="http://www.w3.org/2000/svg">
<rect width="43" height="43" rx="8" fill="#FFCC00"/>
<path d="M15.912 31.5625H18.226V29.71H18.7135V34H18.226V32.0175H15.912V34H15.4245V29.71H15.912V31.5625ZM21.1078 30.9125C21.3722 30.9125 21.5997 30.958 21.7903 31.049C21.981 31.1357 22.137 31.2548 22.2583 31.4065C22.384 31.5538 22.475 31.725 22.5313 31.92C22.592 32.1107 22.6223 32.3122 22.6223 32.5245C22.6223 32.7368 22.592 32.9383 22.5313 33.129C22.475 33.3153 22.3862 33.48 22.2648 33.623C22.1435 33.7617 21.9875 33.8722 21.7968 33.9545C21.6105 34.0368 21.3895 34.078 21.1338 34.078C20.8695 34.078 20.6398 34.0347 20.4448 33.948C20.2542 33.8613 20.096 33.7465 19.9703 33.6035C19.8447 33.4562 19.7515 33.2872 19.6908 33.0965C19.6302 32.9058 19.5998 32.7043 19.5998 32.492C19.5998 32.2797 19.6302 32.0782 19.6908 31.8875C19.7515 31.6968 19.8425 31.53 19.9638 31.387C20.0895 31.2397 20.2477 31.1248 20.4383 31.0425C20.629 30.9558 20.8522 30.9125 21.1078 30.9125ZM21.1273 33.7335C21.3007 33.7335 21.4502 33.701 21.5758 33.636C21.7058 33.571 21.812 33.4843 21.8943 33.376C21.981 33.2633 22.0438 33.1355 22.0828 32.9925C22.1218 32.8452 22.1413 32.6913 22.1413 32.531C22.1413 32.3663 22.1197 32.2082 22.0763 32.0565C22.0373 31.9048 21.9745 31.7727 21.8878 31.66C21.8012 31.543 21.6907 31.4498 21.5563 31.3805C21.4263 31.3112 21.2703 31.2765 21.0883 31.2765C20.9107 31.2765 20.759 31.309 20.6333 31.374C20.5077 31.439 20.4037 31.5257 20.3213 31.634C20.239 31.7423 20.1783 31.8702 20.1393 32.0175C20.1003 32.1605 20.0808 32.3122 20.0808 32.4725C20.0808 32.6372 20.1003 32.7953 20.1393 32.947C20.1827 33.0987 20.2455 33.233 20.3278 33.35C20.4145 33.467 20.5228 33.5602 20.6528 33.6295C20.7872 33.6988 20.9453 33.7335 21.1273 33.7335ZM23.9324 34H23.4774V29.19H23.9324V34ZM26.1052 34.078C25.8842 34.078 25.6914 34.0347 25.5267 33.948C25.3621 33.8613 25.2256 33.7465 25.1172 33.6035C25.0089 33.4605 24.9266 33.2958 24.8702 33.1095C24.8182 32.9188 24.7922 32.7195 24.7922 32.5115C24.7922 32.2992 24.8204 32.0955 24.8767 31.9005C24.9374 31.7055 25.0241 31.5365 25.1367 31.3935C25.2537 31.2462 25.3989 31.1292 25.5722 31.0425C25.7456 30.9558 25.9471 30.9125 26.1767 30.9125C26.4671 30.9125 26.7054 30.9753 26.8917 31.101C27.0781 31.2267 27.1994 31.3827 27.2557 31.569V29.19H27.7107V34H27.3532L27.3012 33.467H27.2752C27.1712 33.6273 27.0196 33.7703 26.8202 33.896C26.6209 34.0173 26.3826 34.078 26.1052 34.078ZM26.1572 33.6945C26.3652 33.6945 26.5689 33.6382 26.7682 33.5255C26.9719 33.4128 27.1344 33.2503 27.2557 33.038V32.0825C27.1777 31.8355 27.0456 31.6427 26.8592 31.504C26.6772 31.3653 26.4714 31.296 26.2417 31.296C26.0901 31.296 25.9536 31.3263 25.8322 31.387C25.7152 31.4477 25.6156 31.5322 25.5332 31.6405C25.4509 31.7488 25.3859 31.8788 25.3382 32.0305C25.2949 32.1822 25.2732 32.349 25.2732 32.531C25.2732 32.6697 25.2884 32.8083 25.3187 32.947C25.3491 33.0857 25.3989 33.2113 25.4682 33.324C25.5376 33.4323 25.6286 33.5212 25.7412 33.5905C25.8539 33.6598 25.9926 33.6945 26.1572 33.6945Z" fill="#3C3D4F"/>
<rect x="15" y="9" width="5" height="17" fill="#3C3D4F"/>
<rect x="24" y="9" width="5" height="17" fill="#3C3D4F"/>
</svg>
