<svg width="43" height="43" viewBox="0 0 43 43" fill="none" xmlns="http://www.w3.org/2000/svg">
<path d="M12.874 28.6775C13.212 28.6775 13.511 28.736 13.771 28.853C14.031 28.97 14.2498 29.1303 14.4275 29.334C14.6052 29.5333 14.7395 29.7652 14.8305 30.0295C14.9215 30.2938 14.967 30.5712 14.967 30.8615C14.967 31.1475 14.9215 31.4248 14.8305 31.6935C14.7438 31.9578 14.6095 32.194 14.4275 32.402C14.2498 32.6057 14.0267 32.7703 13.758 32.896C13.4937 33.0173 13.1838 33.078 12.8285 33.078C12.4818 33.078 12.1807 33.0195 11.925 32.9025C11.6693 32.7855 11.457 32.6273 11.288 32.428C11.119 32.2287 10.9912 31.999 10.9045 31.739C10.8222 31.4747 10.781 31.1973 10.781 30.907C10.781 30.5993 10.8265 30.3112 10.9175 30.0425C11.0128 29.7695 11.1493 29.5333 11.327 29.334C11.5047 29.1303 11.7235 28.97 11.9835 28.853C12.2435 28.736 12.5403 28.6775 12.874 28.6775ZM12.8415 32.649C13.1232 32.649 13.3637 32.6035 13.563 32.5125C13.7667 32.4215 13.9313 32.2958 14.057 32.1355C14.187 31.9752 14.2823 31.7888 14.343 31.5765C14.4037 31.3598 14.434 31.128 14.434 30.881C14.434 30.6167 14.4015 30.3762 14.3365 30.1595C14.2758 29.9428 14.1805 29.7565 14.0505 29.6005C13.9248 29.4445 13.7623 29.3232 13.563 29.2365C13.3637 29.1498 13.1275 29.1065 12.8545 29.1065C12.5772 29.1065 12.341 29.1498 12.146 29.2365C11.951 29.3188 11.7928 29.438 11.6715 29.594C11.5502 29.7457 11.4613 29.9277 11.405 30.14C11.3487 30.3523 11.3205 30.5863 11.3205 30.842C11.3205 31.44 11.4505 31.8907 11.7105 32.194C11.9705 32.4973 12.3475 32.649 12.8415 32.649ZM17.3981 29.9125C17.6191 29.9125 17.812 29.9558 17.9766 30.0425C18.1413 30.1292 18.2778 30.244 18.3861 30.387C18.4945 30.53 18.5746 30.6968 18.6266 30.8875C18.683 31.0738 18.7111 31.271 18.7111 31.479C18.7111 31.6957 18.6808 31.9015 18.6201 32.0965C18.5638 32.2872 18.4771 32.4562 18.3601 32.6035C18.2475 32.7465 18.1045 32.8613 17.9311 32.948C17.7578 33.0347 17.5563 33.078 17.3266 33.078C17.0363 33.078 16.798 33.0152 16.6116 32.8895C16.4253 32.7638 16.304 32.6078 16.2476 32.4215V34.69H15.7926V30.01H16.1501L16.2021 30.569H16.2281C16.2801 30.491 16.343 30.413 16.4166 30.335C16.4946 30.2527 16.5835 30.1812 16.6831 30.1205C16.7828 30.0598 16.8911 30.01 17.0081 29.971C17.1295 29.932 17.2595 29.9125 17.3981 29.9125ZM17.2811 30.296C17.0731 30.296 16.8781 30.3523 16.6961 30.465C16.5185 30.5777 16.369 30.7402 16.2476 30.9525V31.908C16.2866 32.0337 16.343 32.1442 16.4166 32.2395C16.4903 32.3348 16.5748 32.4172 16.6701 32.4865C16.7698 32.5558 16.8738 32.6078 16.9821 32.6425C17.0948 32.6772 17.2075 32.6945 17.3201 32.6945C17.4718 32.6945 17.604 32.6642 17.7166 32.6035C17.8293 32.5428 17.9225 32.4583 17.9961 32.35C18.0741 32.2417 18.1326 32.116 18.1716 31.973C18.2106 31.83 18.2301 31.6762 18.2301 31.5115C18.2301 31.3555 18.2106 31.2038 18.1716 31.0565C18.137 30.9092 18.0806 30.7792 18.0026 30.6665C17.9246 30.5538 17.825 30.465 17.7036 30.4C17.5866 30.3307 17.4458 30.296 17.2811 30.296ZM19.6679 30.3155H19.1674V30.075L19.6809 30.01L19.7784 29.1065H20.1229V30.01H20.8249V30.3155H20.1229V32.389C20.1229 32.5277 20.1424 32.6187 20.1814 32.662C20.2247 32.7053 20.2897 32.727 20.3764 32.727C20.4761 32.727 20.5649 32.7118 20.6429 32.6815C20.7209 32.6512 20.7902 32.6143 20.8509 32.571L20.9419 32.9155C20.8682 32.9502 20.7707 32.9848 20.6494 33.0195C20.5324 33.0542 20.4024 33.0715 20.2594 33.0715C20.1207 33.0715 20.0124 33.052 19.9344 33.013C19.8564 32.974 19.7979 32.922 19.7589 32.857C19.7199 32.792 19.6939 32.7205 19.6809 32.6425C19.6722 32.5602 19.6679 32.48 19.6679 32.402V30.3155ZM22.024 33H21.569V30.01H22.024V33ZM21.4715 28.918C21.4715 28.8313 21.5018 28.7533 21.5625 28.684C21.6275 28.6147 21.7055 28.58 21.7965 28.58C21.8832 28.58 21.9612 28.6147 22.0305 28.684C22.0998 28.7533 22.1345 28.8313 22.1345 28.918C22.1345 29.009 22.0998 29.087 22.0305 29.152C21.9612 29.2127 21.8832 29.243 21.7965 29.243C21.7055 29.243 21.6275 29.2127 21.5625 29.152C21.5018 29.087 21.4715 29.009 21.4715 28.918ZM24.3483 29.9125C24.6127 29.9125 24.8402 29.958 25.0308 30.049C25.2215 30.1357 25.3775 30.2548 25.4988 30.4065C25.6245 30.5538 25.7155 30.725 25.7718 30.92C25.8325 31.1107 25.8628 31.3122 25.8628 31.5245C25.8628 31.7368 25.8325 31.9383 25.7718 32.129C25.7155 32.3153 25.6267 32.48 25.5053 32.623C25.384 32.7617 25.228 32.8722 25.0373 32.9545C24.851 33.0368 24.63 33.078 24.3743 33.078C24.11 33.078 23.8803 33.0347 23.6853 32.948C23.4947 32.8613 23.3365 32.7465 23.2108 32.6035C23.0852 32.4562 22.992 32.2872 22.9313 32.0965C22.8707 31.9058 22.8403 31.7043 22.8403 31.492C22.8403 31.2797 22.8707 31.0782 22.9313 30.8875C22.992 30.6968 23.083 30.53 23.2043 30.387C23.33 30.2397 23.4882 30.1248 23.6788 30.0425C23.8695 29.9558 24.0927 29.9125 24.3483 29.9125ZM24.3678 32.7335C24.5412 32.7335 24.6907 32.701 24.8163 32.636C24.9463 32.571 25.0525 32.4843 25.1348 32.376C25.2215 32.2633 25.2843 32.1355 25.3233 31.9925C25.3623 31.8452 25.3818 31.6913 25.3818 31.531C25.3818 31.3663 25.3602 31.2082 25.3168 31.0565C25.2778 30.9048 25.215 30.7727 25.1283 30.66C25.0417 30.543 24.9312 30.4498 24.7968 30.3805C24.6668 30.3112 24.5108 30.2765 24.3288 30.2765C24.1512 30.2765 23.9995 30.309 23.8738 30.374C23.7482 30.439 23.6442 30.5257 23.5618 30.634C23.4795 30.7423 23.4188 30.8702 23.3798 31.0175C23.3408 31.1605 23.3213 31.3122 23.3213 31.4725C23.3213 31.6372 23.3408 31.7953 23.3798 31.947C23.4232 32.0987 23.486 32.233 23.5683 32.35C23.655 32.467 23.7633 32.5602 23.8933 32.6295C24.0277 32.6988 24.1858 32.7335 24.3678 32.7335ZM28.7784 33V31.024C28.7784 30.764 28.7199 30.5777 28.6029 30.465C28.4859 30.3523 28.3364 30.296 28.1544 30.296C28.046 30.296 27.9377 30.3133 27.8294 30.348C27.7254 30.3827 27.6279 30.4347 27.5369 30.504C27.4459 30.569 27.3657 30.6513 27.2964 30.751C27.227 30.8463 27.1729 30.9568 27.1339 31.0825V33H26.6789V30.01H27.0364L27.0884 30.569H27.1144C27.1707 30.387 27.2964 30.2332 27.4914 30.1075C27.6864 29.9775 27.929 29.9125 28.2194 29.9125C28.358 29.9125 28.488 29.932 28.6094 29.971C28.735 30.0057 28.8434 30.0642 28.9344 30.1465C29.0254 30.2288 29.0969 30.3372 29.1489 30.4715C29.2052 30.6058 29.2334 30.7705 29.2334 30.9655V33H28.7784ZM31.0984 30.2765C30.8904 30.2765 30.7387 30.3155 30.6434 30.3935C30.5524 30.4672 30.5069 30.569 30.5069 30.699C30.5069 30.7423 30.5134 30.7878 30.5264 30.8355C30.5394 30.8832 30.5632 30.9287 30.5979 30.972C30.6369 31.011 30.6867 31.05 30.7474 31.089C30.8124 31.1237 30.8969 31.1518 31.0009 31.1735L31.4624 31.2775C31.6444 31.3165 31.7895 31.3707 31.8979 31.44C32.0105 31.505 32.0972 31.5765 32.1579 31.6545C32.2185 31.7325 32.2575 31.8127 32.2749 31.895C32.2965 31.973 32.3074 32.0467 32.3074 32.116C32.3074 32.2503 32.2792 32.376 32.2229 32.493C32.1709 32.61 32.0929 32.7118 31.9889 32.7985C31.8892 32.8852 31.7657 32.9523 31.6184 33C31.471 33.052 31.3064 33.078 31.1244 33.078C30.8947 33.078 30.6824 33.0455 30.4874 32.9805C30.2924 32.9112 30.1364 32.8353 30.0194 32.753L30.1364 32.3305C30.2924 32.4735 30.4657 32.5775 30.6564 32.6425C30.847 32.7075 31.0182 32.74 31.1699 32.74C31.3865 32.74 31.5512 32.688 31.6639 32.584C31.7765 32.4757 31.8329 32.363 31.8329 32.246C31.8329 32.207 31.8307 32.1637 31.8264 32.116C31.822 32.064 31.8047 32.012 31.7744 31.96C31.744 31.908 31.6985 31.8603 31.6379 31.817C31.5772 31.7693 31.4905 31.7325 31.3779 31.7065L30.7539 31.5505C30.6109 31.5158 30.4939 31.4703 30.4029 31.414C30.3119 31.3577 30.2404 31.297 30.1884 31.232C30.1364 31.1627 30.0995 31.0912 30.0779 31.0175C30.0562 30.9395 30.0454 30.8615 30.0454 30.7835C30.0454 30.5192 30.1429 30.309 30.3379 30.153C30.5372 29.9927 30.8015 29.9125 31.1309 29.9125C31.2999 29.9125 31.4819 29.9363 31.6769 29.984C31.8719 30.0273 32.0365 30.0923 32.1709 30.179L32.0474 30.569C31.9607 30.4953 31.8307 30.4282 31.6574 30.3675C31.4884 30.3068 31.302 30.2765 31.0984 30.2765Z" fill="#3C3D4F"/>
<path d="M23.625 14.375H19.375V18.625H23.625V14.375Z" fill="#3C3D4F"/>
<path d="M17.25 8H13V12.25H17.25V8Z" fill="#3C3D4F"/>
<path d="M23.625 20.75H19.375V25H23.625V20.75Z" fill="#3C3D4F"/>
<path d="M17.25 14.375H13V18.625H17.25V14.375Z" fill="#3C3D4F"/>
<path d="M17.25 20.75H13V25H17.25V20.75Z" fill="#3C3D4F"/>
<path d="M30 8H25.75V12.25H30V8Z" fill="#3C3D4F"/>
<path d="M23.625 8H19.375V12.25H23.625V8Z" fill="#3C3D4F"/>
<path d="M30 14.375H25.75V18.625H30V14.375Z" fill="#3C3D4F"/>
<path d="M30 20.75H25.75V25H30V20.75Z" fill="#3C3D4F"/>
</svg>
