<svg width="91" height="67" viewBox="0 0 91 67" fill="none" xmlns="http://www.w3.org/2000/svg">
<path d="M52.2189 48.3645C51.5247 48.3645 50.9619 48.9271 50.9619 49.6215V52.3083C50.9619 53.0027 51.5247 53.5653 52.2189 53.5653C52.9131 53.5653 53.4758 53.0027 53.4758 52.3083V49.6215C53.4758 48.9273 52.9132 48.3645 52.2189 48.3645Z" fill="#0928F5" fill-opacity="0.7"/>
<path d="M41.4728 48.3645C40.7786 48.3645 40.2158 48.9271 40.2158 49.6215V52.3083C40.2158 53.0027 40.7786 53.5653 41.4728 53.5653C42.167 53.5653 42.7297 53.0027 42.7297 52.3083V49.6215C42.7297 48.9273 42.167 48.3645 41.4728 48.3645Z" fill="#0928F5" fill-opacity="0.7"/>
<path d="M36.0958 48.3645C35.4017 48.3645 34.8389 48.9271 34.8389 49.6215V52.3083C34.8389 53.0027 35.4017 53.5653 36.0958 53.5653C36.79 53.5653 37.3528 53.0027 37.3528 52.3083V49.6215C37.3528 48.9273 36.79 48.3645 36.0958 48.3645Z" fill="#0928F5" fill-opacity="0.7"/>
<path d="M57.5909 48.3645C56.8968 48.3645 56.334 48.9271 56.334 49.6215V52.3083C56.334 53.0027 56.8968 53.5653 57.5909 53.5653C58.2851 53.5653 58.8479 53.0027 58.8479 52.3083V49.6215C58.8479 48.9273 58.2851 48.3645 57.5909 48.3645Z" fill="#0928F5" fill-opacity="0.7"/>
<path d="M62.9679 48.3645C62.2737 48.3645 61.7109 48.9271 61.7109 49.6215V52.3083C61.7109 53.0027 62.2737 53.5653 62.9679 53.5653C63.6621 53.5653 64.2249 53.0027 64.2249 52.3083V49.6215C64.2249 48.9273 63.6621 48.3645 62.9679 48.3645Z" fill="#0928F5" fill-opacity="0.7"/>
<path d="M68.3409 48.3645C67.6468 48.3645 67.084 48.9271 67.084 49.6215V52.3083C67.084 53.0027 67.6468 53.5653 68.3409 53.5653C69.0351 53.5653 69.5979 53.0027 69.5979 52.3083V49.6215C69.5979 48.9273 69.0351 48.3645 68.3409 48.3645Z" fill="#0928F5" fill-opacity="0.7"/>
<path d="M25.3497 48.3645C24.6556 48.3645 24.0928 48.9271 24.0928 49.6215V52.3083C24.0928 53.0027 24.6556 53.5653 25.3497 53.5653C26.0439 53.5653 26.6067 53.0027 26.6067 52.3083V49.6215C26.6067 48.9273 26.0439 48.3645 25.3497 48.3645Z" fill="#0928F5" fill-opacity="0.7"/>
<path d="M19.9767 48.3645C19.2825 48.3645 18.7197 48.9271 18.7197 49.6215V52.3083C18.7197 53.0027 19.2825 53.5653 19.9767 53.5653C20.6709 53.5653 21.2336 53.0027 21.2336 52.3083V49.6215C21.2336 48.9273 20.6709 48.3645 19.9767 48.3645Z" fill="#0928F5" fill-opacity="0.7"/>
<path d="M73.714 48.3645C73.0198 48.3645 72.457 48.9271 72.457 49.6215V52.3083C72.457 53.0027 73.0198 53.5653 73.714 53.5653C74.4082 53.5653 74.971 53.0027 74.971 52.3083V49.6215C74.971 48.9273 74.4082 48.3645 73.714 48.3645Z" fill="#0928F5" fill-opacity="0.7"/>
<path d="M30.7228 48.3645C30.0286 48.3645 29.4658 48.9271 29.4658 49.6215V52.3083C29.4658 53.0027 30.0286 53.5653 30.7228 53.5653C31.417 53.5653 31.9797 53.0027 31.9797 52.3083V49.6215C31.9797 48.9273 31.417 48.3645 30.7228 48.3645Z" fill="#0928F5" fill-opacity="0.7"/>
<path d="M19.9767 13.4346C19.2825 13.4346 18.7197 13.9972 18.7197 14.6915V44.2475C18.7197 44.9419 19.2825 45.5045 19.9767 45.5045C20.6709 45.5045 21.2336 44.9419 21.2336 44.2475V14.6915C21.2336 13.9973 20.6709 13.4346 19.9767 13.4346Z" fill="#0928F5" fill-opacity="0.7"/>
<path d="M73.714 13.4346C73.0198 13.4346 72.457 13.9972 72.457 14.6915V44.2475C72.457 44.9419 73.0198 45.5045 73.714 45.5045C74.4082 45.5045 74.971 44.9419 74.971 44.2475V14.6915C74.971 13.9973 74.4082 13.4346 73.714 13.4346Z" fill="#0928F5" fill-opacity="0.7"/>
<path d="M25.3497 13.4346C24.6556 13.4346 24.0928 13.9972 24.0928 14.6915V44.2475C24.0928 44.9419 24.6556 45.5045 25.3497 45.5045C26.0439 45.5045 26.6067 44.9419 26.6067 44.2475V14.6915C26.6067 13.9973 26.0439 13.4346 25.3497 13.4346Z" fill="#0928F5" fill-opacity="0.7"/>
<path d="M30.7228 13.4346C30.0286 13.4346 29.4658 13.9972 29.4658 14.6915V44.2475C29.4658 44.9419 30.0286 45.5045 30.7228 45.5045C31.417 45.5045 31.9797 44.9419 31.9797 44.2475V14.6915C31.9797 13.9973 31.417 13.4346 30.7228 13.4346Z" fill="#0928F5" fill-opacity="0.7"/>
<path d="M36.0958 13.4346C35.4017 13.4346 34.8389 13.9972 34.8389 14.6915V44.2475C34.8389 44.9419 35.4017 45.5045 36.0958 45.5045C36.79 45.5045 37.3528 44.9419 37.3528 44.2475V14.6915C37.3528 13.9973 36.79 13.4346 36.0958 13.4346Z" fill="#0928F5" fill-opacity="0.7"/>
<path d="M41.4728 13.4346C40.7786 13.4346 40.2158 13.9972 40.2158 14.6915V44.2475C40.2158 44.9419 40.7786 45.5045 41.4728 45.5045C42.167 45.5045 42.7297 44.9419 42.7297 44.2475V14.6915C42.7297 13.9973 42.167 13.4346 41.4728 13.4346Z" fill="#0928F5" fill-opacity="0.7"/>
<path d="M46.8458 13.4346C46.1517 13.4346 45.5889 13.9972 45.5889 14.6915V52.3083C45.5889 53.0027 46.1517 53.5653 46.8458 53.5653C47.54 53.5653 48.1028 53.0027 48.1028 52.3083V14.6915C48.1028 13.9973 47.54 13.4346 46.8458 13.4346Z" fill="#0928F5" fill-opacity="0.7"/>
<path d="M79.087 13.4346C78.3929 13.4346 77.8301 13.9972 77.8301 14.6915V52.3083C77.8301 53.0027 78.3929 53.5653 79.087 53.5653C79.7812 53.5653 80.344 53.0027 80.344 52.3085V14.6915C80.344 13.9972 79.7812 13.4346 79.087 13.4346Z" fill="#0928F5" fill-opacity="0.7"/>
<path d="M14.6007 13.4346C13.9065 13.4346 13.3438 13.9972 13.3438 14.6915V52.3083C13.3438 53.0027 13.9065 53.5653 14.6007 53.5653C15.2949 53.5653 15.8577 53.0027 15.8577 52.3083V14.6915C15.8577 13.9973 15.2949 13.4346 14.6007 13.4346Z" fill="#0928F5" fill-opacity="0.7"/>
<path d="M52.2189 13.4346C51.5247 13.4346 50.9619 13.9972 50.9619 14.6915V44.2475C50.9619 44.9419 51.5247 45.5045 52.2189 45.5045C52.9131 45.5045 53.4758 44.9419 53.4758 44.2475V14.6915C53.4758 13.9973 52.9132 13.4346 52.2189 13.4346Z" fill="#0928F5" fill-opacity="0.7"/>
<path d="M57.5909 13.4346C56.8968 13.4346 56.334 13.9972 56.334 14.6915V44.2475C56.334 44.9419 56.8968 45.5045 57.5909 45.5045C58.2851 45.5045 58.8479 44.9419 58.8479 44.2475V14.6915C58.8479 13.9973 58.2851 13.4346 57.5909 13.4346Z" fill="#0928F5" fill-opacity="0.7"/>
<path d="M62.9679 13.4346C62.2737 13.4346 61.7109 13.9972 61.7109 14.6915V44.2475C61.7109 44.9419 62.2737 45.5045 62.9679 45.5045C63.6621 45.5045 64.2249 44.9419 64.2249 44.2475V14.6915C64.2249 13.9973 63.6621 13.4346 62.9679 13.4346Z" fill="#0928F5" fill-opacity="0.7"/>
<path d="M68.3409 13.4346C67.6468 13.4346 67.084 13.9972 67.084 14.6915V44.2475C67.084 44.9419 67.6468 45.5045 68.3409 45.5045C69.0351 45.5045 69.5979 44.9419 69.5979 44.2475V14.6915C69.5979 13.9973 69.0351 13.4346 68.3409 13.4346Z" fill="#0928F5" fill-opacity="0.7"/>
<path d="M13.2582 0H6.54083C5.10689 0 3.94043 1.16663 3.94043 2.60057V9.3176C3.94043 10.0119 4.50321 10.5746 5.19739 10.5746C5.89157 10.5746 6.45435 10.0119 6.45435 9.3176V2.60057C6.45435 2.5528 6.49306 2.51392 6.54083 2.51392H13.2582C13.9524 2.51392 14.5152 1.95131 14.5152 1.25696C14.5152 0.562615 13.9524 0 13.2582 0Z" fill="#0928F5" fill-opacity="0.7"/>
<path d="M87.147 0H80.4298C79.7356 0 79.1729 0.562615 79.1729 1.25696C79.1729 1.9513 79.7356 2.51392 80.4298 2.51392H87.147C87.1948 2.51392 87.2335 2.55263 87.2335 2.6004V9.31776C87.2335 10.0121 87.7963 10.5747 88.4904 10.5747C89.1846 10.5747 89.7474 10.0121 89.7474 9.31776V2.6004C89.7474 1.16646 88.581 0 87.147 0Z" fill="#0928F5" fill-opacity="0.7"/>
<path d="M88.4906 56.4254C87.7964 56.4254 87.2337 56.988 87.2337 57.6824V64.3994C87.2337 64.4472 87.1949 64.486 87.1472 64.486H80.4298C79.7356 64.486 79.1729 65.0487 79.1729 65.743C79.1729 66.4373 79.7356 67 80.4298 67H87.1472C88.5811 67 89.7476 65.8333 89.7476 64.3994V57.6824C89.7476 56.988 89.1848 56.4254 88.4906 56.4254Z" fill="#0928F5" fill-opacity="0.7"/>
<path d="M13.258 64.4861H6.54083C6.49306 64.4861 6.45435 64.4474 6.45435 64.3996V57.6823C6.45435 56.9879 5.89157 56.4253 5.19739 56.4253C4.50321 56.4253 3.94043 56.9879 3.94043 57.6823V64.3996C3.94043 65.8336 5.10689 67 6.54083 67H13.258C13.9522 67 14.515 66.4374 14.515 65.7431C14.515 65.0487 13.9522 64.4861 13.258 64.4861Z" fill="#0928F5" fill-opacity="0.7"/>
<line y1="34.9706" x2="90.6471" y2="34.9706" stroke="#5509F5" stroke-opacity="0.6"/>
</svg>
