<svg width="43" height="43" viewBox="0 0 43 43" fill="none" xmlns="http://www.w3.org/2000/svg">
<path d="M14.5923 30.7435C14.5923 30.8518 14.6118 30.9428 14.6508 31.0165C14.6941 31.0858 14.7591 31.1487 14.8458 31.205C14.9368 31.2613 15.0495 31.3155 15.1838 31.3675C15.3225 31.4152 15.4871 31.4715 15.6778 31.5365C15.8381 31.5885 15.9963 31.6492 16.1523 31.7185C16.3083 31.7835 16.447 31.8658 16.5683 31.9655C16.694 32.0608 16.7936 32.1822 16.8673 32.3295C16.941 32.4725 16.9778 32.648 16.9778 32.856C16.9778 33.077 16.9345 33.2655 16.8478 33.4215C16.7611 33.5775 16.6463 33.7053 16.5033 33.805C16.3603 33.9003 16.1956 33.9697 16.0093 34.013C15.823 34.0563 15.6301 34.078 15.4308 34.078C15.1491 34.078 14.887 34.0433 14.6443 33.974C14.4016 33.9047 14.1915 33.8202 14.0138 33.7205L14.1503 33.246C14.2326 33.3023 14.315 33.3565 14.3973 33.4085C14.4796 33.4562 14.5685 33.4973 14.6638 33.532C14.7635 33.5667 14.8718 33.5948 14.9888 33.6165C15.1058 33.6382 15.2401 33.649 15.3918 33.649C15.5868 33.649 15.7536 33.6317 15.8923 33.597C16.031 33.5623 16.1436 33.5147 16.2303 33.454C16.317 33.389 16.3798 33.3132 16.4188 33.2265C16.4578 33.1398 16.4773 33.0467 16.4773 32.947C16.4773 32.7997 16.4426 32.6762 16.3733 32.5765C16.304 32.4725 16.213 32.3837 16.1003 32.31C15.992 32.2363 15.8706 32.1757 15.7363 32.128C15.6063 32.076 15.4763 32.0283 15.3463 31.985C15.16 31.9243 14.991 31.8593 14.8393 31.79C14.6876 31.7207 14.5576 31.6383 14.4493 31.543C14.3453 31.4477 14.263 31.3372 14.2023 31.2115C14.146 31.0858 14.1178 30.9363 14.1178 30.763C14.1178 30.568 14.1525 30.4033 14.2218 30.269C14.2955 30.1303 14.393 30.0177 14.5143 29.931C14.64 29.8443 14.7873 29.7815 14.9563 29.7425C15.1253 29.6992 15.3073 29.6775 15.5023 29.6775C15.7363 29.6775 15.9616 29.7013 16.1783 29.749C16.395 29.7967 16.5791 29.8552 16.7308 29.9245L16.5943 30.425C16.525 30.3643 16.4426 30.3145 16.3473 30.2755C16.2563 30.2322 16.1588 30.1997 16.0548 30.178C15.9551 30.152 15.8555 30.1347 15.7558 30.126C15.6561 30.113 15.563 30.1065 15.4763 30.1065C15.2033 30.1065 14.9866 30.1585 14.8263 30.2625C14.6703 30.3622 14.5923 30.5225 14.5923 30.7435ZM20.1159 31.556C20.0162 31.4823 19.8732 31.4173 19.6869 31.361C19.5006 31.3003 19.3142 31.27 19.1279 31.27C18.9372 31.27 18.7747 31.3025 18.6404 31.3675C18.5104 31.4325 18.4021 31.5192 18.3154 31.6275C18.2287 31.7358 18.1659 31.8615 18.1269 32.0045C18.0879 32.1432 18.0684 32.2883 18.0684 32.44C18.0684 32.609 18.0922 32.7715 18.1399 32.9275C18.1876 33.0835 18.2569 33.22 18.3479 33.337C18.4432 33.454 18.5581 33.5472 18.6924 33.6165C18.8311 33.6858 18.9914 33.7205 19.1734 33.7205C19.3467 33.7205 19.5244 33.6837 19.7064 33.61C19.8927 33.5363 20.0466 33.4432 20.1679 33.3305L20.2589 33.753C20.1376 33.831 19.9707 33.9047 19.7584 33.974C19.5504 34.0433 19.3272 34.078 19.0889 34.078C18.8376 34.078 18.6166 34.0347 18.4259 33.948C18.2396 33.8613 18.0836 33.7465 17.9579 33.6035C17.8366 33.4562 17.7434 33.2872 17.6784 33.0965C17.6177 32.9015 17.5874 32.6957 17.5874 32.479C17.5874 32.271 17.6156 32.0738 17.6719 31.8875C17.7326 31.6968 17.8257 31.53 17.9514 31.387C18.0771 31.2397 18.2374 31.1248 18.4324 31.0425C18.6274 30.9558 18.8614 30.9125 19.1344 30.9125C19.3424 30.9125 19.5461 30.9363 19.7454 30.984C19.9447 31.0317 20.1051 31.0945 20.2264 31.1725L20.1159 31.556ZM22.9304 34L22.8784 33.467H22.8524C22.8004 33.5493 22.7311 33.6273 22.6444 33.701C22.5577 33.7747 22.4602 33.8397 22.3519 33.896C22.2479 33.9523 22.1331 33.9957 22.0074 34.026C21.8861 34.0607 21.7647 34.078 21.6434 34.078C21.3574 34.078 21.1429 33.9957 20.9999 33.831C20.8569 33.662 20.7854 33.4518 20.7854 33.2005C20.7854 32.9535 20.8482 32.7563 20.9739 32.609C21.0996 32.4617 21.2534 32.3512 21.4354 32.2775C21.6174 32.2038 21.8081 32.1562 22.0074 32.1345C22.2111 32.1128 22.3887 32.102 22.5404 32.102H22.8329V32.024C22.8329 31.8593 22.8091 31.7337 22.7614 31.647C22.7181 31.5603 22.6531 31.4867 22.5664 31.426C22.4927 31.3783 22.4126 31.3458 22.3259 31.3285C22.2436 31.3068 22.1331 31.296 21.9944 31.296C21.8124 31.296 21.6521 31.3198 21.5134 31.3675C21.3747 31.4152 21.2404 31.478 21.1104 31.556L21.0064 31.166C21.2967 30.997 21.6434 30.9125 22.0464 30.9125C22.2067 30.9125 22.3584 30.9277 22.5014 30.958C22.6444 30.984 22.7701 31.0317 22.8784 31.101C23.0041 31.179 23.1037 31.2895 23.1774 31.4325C23.2511 31.5755 23.2879 31.7532 23.2879 31.9655V34H22.9304ZM21.7799 33.6945C21.9576 33.6945 22.1461 33.6382 22.3454 33.5255C22.5447 33.4128 22.7072 33.2503 22.8329 33.038V32.4335H22.7744C22.5967 32.4335 22.4191 32.44 22.2414 32.453C22.0637 32.466 21.9012 32.4985 21.7539 32.5505C21.6109 32.6025 21.4939 32.6783 21.4029 32.778C21.3119 32.8733 21.2664 33.0055 21.2664 33.1745C21.2664 33.3435 21.3119 33.4735 21.4029 33.5645C21.4982 33.6512 21.6239 33.6945 21.7799 33.6945ZM26.3692 34V32.024C26.3692 31.764 26.3107 31.5777 26.1937 31.465C26.0767 31.3523 25.9272 31.296 25.7452 31.296C25.6369 31.296 25.5285 31.3133 25.4202 31.348C25.3162 31.3827 25.2187 31.4347 25.1277 31.504C25.0367 31.569 24.9565 31.6513 24.8872 31.751C24.8179 31.8463 24.7637 31.9568 24.7247 32.0825V34H24.2697V31.01H24.6272L24.6792 31.569H24.7052C24.7615 31.387 24.8872 31.2332 25.0822 31.1075C25.2772 30.9775 25.5199 30.9125 25.8102 30.9125C25.9489 30.9125 26.0789 30.932 26.2002 30.971C26.3259 31.0057 26.4342 31.0642 26.5252 31.1465C26.6162 31.2288 26.6877 31.3372 26.7397 31.4715C26.796 31.6058 26.8242 31.7705 26.8242 31.9655V34H26.3692ZM14.8961 37.49V41H14.4086V36.71H15.0001L17.2101 40.2265V36.71H17.6976V41H17.1061L14.8961 37.49ZM20.092 37.9125C20.3563 37.9125 20.5838 37.958 20.7745 38.049C20.9651 38.1357 21.1211 38.2548 21.2425 38.4065C21.3681 38.5538 21.4591 38.725 21.5155 38.92C21.5761 39.1107 21.6065 39.3122 21.6065 39.5245C21.6065 39.7368 21.5761 39.9383 21.5155 40.129C21.4591 40.3153 21.3703 40.48 21.249 40.623C21.1276 40.7617 20.9716 40.8722 20.781 40.9545C20.5946 41.0368 20.3736 41.078 20.118 41.078C19.8536 41.078 19.624 41.0347 19.429 40.948C19.2383 40.8613 19.0801 40.7465 18.9545 40.6035C18.8288 40.4562 18.7356 40.2872 18.675 40.0965C18.6143 39.9058 18.584 39.7043 18.584 39.492C18.584 39.2797 18.6143 39.0782 18.675 38.8875C18.7356 38.6968 18.8266 38.53 18.948 38.387C19.0736 38.2397 19.2318 38.1248 19.4225 38.0425C19.6131 37.9558 19.8363 37.9125 20.092 37.9125ZM20.1115 40.7335C20.2848 40.7335 20.4343 40.701 20.56 40.636C20.69 40.571 20.7961 40.4843 20.8785 40.376C20.9651 40.2633 21.028 40.1355 21.067 39.9925C21.106 39.8452 21.1255 39.6913 21.1255 39.531C21.1255 39.3663 21.1038 39.2082 21.0605 39.0565C21.0215 38.9048 20.9586 38.7727 20.872 38.66C20.7853 38.543 20.6748 38.4498 20.5405 38.3805C20.4105 38.3112 20.2545 38.2765 20.0725 38.2765C19.8948 38.2765 19.7431 38.309 19.6175 38.374C19.4918 38.439 19.3878 38.5257 19.3055 38.634C19.2231 38.7423 19.1625 38.8702 19.1235 39.0175C19.0845 39.1605 19.065 39.3122 19.065 39.4725C19.065 39.6372 19.0845 39.7953 19.1235 39.947C19.1668 40.0987 19.2296 40.233 19.312 40.35C19.3986 40.467 19.507 40.5602 19.637 40.6295C19.7713 40.6988 19.9295 40.7335 20.1115 40.7335ZM25.9981 41H25.3806L24.5681 38.66L23.7101 41H23.0926L21.9941 38.01H22.4751L23.4111 40.558L24.3471 38.01H24.8281L25.7056 40.558L26.7001 38.01H27.1616L25.9981 41Z" fill="#0928F5"/>
<path d="M22.2496 21.2716C22.0735 21.2716 21.9307 21.4143 21.9307 21.5905V22.2723C21.9307 22.4484 22.0735 22.5912 22.2496 22.5912C22.4257 22.5912 22.5685 22.4484 22.5685 22.2723V21.5905C22.5685 21.4144 22.4258 21.2716 22.2496 21.2716Z" fill="#0928F5"/>
<path d="M19.523 21.2716C19.3469 21.2716 19.2041 21.4143 19.2041 21.5905V22.2723C19.2041 22.4484 19.3469 22.5912 19.523 22.5912C19.6992 22.5912 19.842 22.4484 19.842 22.2723V21.5905C19.842 21.4144 19.6992 21.2716 19.523 21.2716Z" fill="#0928F5"/>
<path d="M18.1588 21.2716C17.9826 21.2716 17.8398 21.4143 17.8398 21.5905V22.2723C17.8398 22.4484 17.9826 22.5912 18.1588 22.5912C18.3349 22.5912 18.4777 22.4484 18.4777 22.2723V21.5905C18.4777 21.4144 18.3349 21.2716 18.1588 21.2716Z" fill="#0928F5"/>
<path d="M23.6129 21.2716C23.4367 21.2716 23.2939 21.4143 23.2939 21.5905V22.2723C23.2939 22.4484 23.4367 22.5912 23.6129 22.5912C23.789 22.5912 23.9318 22.4484 23.9318 22.2723V21.5905C23.9318 21.4144 23.789 21.2716 23.6129 21.2716Z" fill="#0928F5"/>
<path d="M24.9771 21.2716C24.801 21.2716 24.6582 21.4143 24.6582 21.5905V22.2723C24.6582 22.4484 24.801 22.5912 24.9771 22.5912C25.1533 22.5912 25.2961 22.4484 25.2961 22.2723V21.5905C25.2961 21.4144 25.1533 21.2716 24.9771 21.2716Z" fill="#0928F5"/>
<path d="M26.3404 21.2716C26.1643 21.2716 26.0215 21.4143 26.0215 21.5905V22.2723C26.0215 22.4484 26.1643 22.5912 26.3404 22.5912C26.5165 22.5912 26.6593 22.4484 26.6593 22.2723V21.5905C26.6593 21.4144 26.5165 21.2716 26.3404 21.2716Z" fill="#0928F5"/>
<path d="M15.4322 21.2716C15.2561 21.2716 15.1133 21.4143 15.1133 21.5905V22.2723C15.1133 22.4484 15.2561 22.5912 15.4322 22.5912C15.6083 22.5912 15.7511 22.4484 15.7511 22.2723V21.5905C15.7511 21.4144 15.6083 21.2716 15.4322 21.2716Z" fill="#0928F5"/>
<path d="M14.0689 21.2716C13.8928 21.2716 13.75 21.4143 13.75 21.5905V22.2723C13.75 22.4484 13.8928 22.5912 14.0689 22.5912C14.2451 22.5912 14.3879 22.4484 14.3879 22.2723V21.5905C14.3879 21.4144 14.2451 21.2716 14.0689 21.2716Z" fill="#0928F5"/>
<path d="M27.7037 21.2716C27.5276 21.2716 27.3848 21.4143 27.3848 21.5905V22.2723C27.3848 22.4484 27.5276 22.5912 27.7037 22.5912C27.8798 22.5912 28.0226 22.4484 28.0226 22.2723V21.5905C28.0226 21.4144 27.8798 21.2716 27.7037 21.2716Z" fill="#0928F5"/>
<path d="M16.7955 21.2716C16.6194 21.2716 16.4766 21.4143 16.4766 21.5905V22.2723C16.4766 22.4484 16.6194 22.5912 16.7955 22.5912C16.9716 22.5912 17.1144 22.4484 17.1144 22.2723V21.5905C17.1144 21.4144 16.9716 21.2716 16.7955 21.2716Z" fill="#0928F5"/>
<path d="M14.0689 12.4088C13.8928 12.4088 13.75 12.5515 13.75 12.7277V20.227C13.75 20.4032 13.8928 20.5459 14.0689 20.5459C14.2451 20.5459 14.3879 20.4032 14.3879 20.227V12.7277C14.3879 12.5516 14.2451 12.4088 14.0689 12.4088Z" fill="#0928F5"/>
<path d="M27.7037 12.4088C27.5276 12.4088 27.3848 12.5515 27.3848 12.7277V20.227C27.3848 20.4032 27.5276 20.5459 27.7037 20.5459C27.8798 20.5459 28.0226 20.4032 28.0226 20.227V12.7277C28.0226 12.5516 27.8798 12.4088 27.7037 12.4088Z" fill="#0928F5"/>
<path d="M15.4322 12.4088C15.2561 12.4088 15.1133 12.5515 15.1133 12.7277V20.227C15.1133 20.4032 15.2561 20.5459 15.4322 20.5459C15.6083 20.5459 15.7511 20.4032 15.7511 20.227V12.7277C15.7511 12.5516 15.6083 12.4088 15.4322 12.4088Z" fill="#0928F5"/>
<path d="M16.7955 12.4088C16.6194 12.4088 16.4766 12.5515 16.4766 12.7277V20.227C16.4766 20.4032 16.6194 20.5459 16.7955 20.5459C16.9716 20.5459 17.1144 20.4032 17.1144 20.227V12.7277C17.1144 12.5516 16.9716 12.4088 16.7955 12.4088Z" fill="#0928F5"/>
<path d="M18.1588 12.4088C17.9826 12.4088 17.8398 12.5515 17.8398 12.7277V20.227C17.8398 20.4032 17.9826 20.5459 18.1588 20.5459C18.3349 20.5459 18.4777 20.4032 18.4777 20.227V12.7277C18.4777 12.5516 18.3349 12.4088 18.1588 12.4088Z" fill="#0928F5"/>
<path d="M19.523 12.4088C19.3469 12.4088 19.2041 12.5515 19.2041 12.7277V20.227C19.2041 20.4032 19.3469 20.5459 19.523 20.5459C19.6992 20.5459 19.842 20.4032 19.842 20.227V12.7277C19.842 12.5516 19.6992 12.4088 19.523 12.4088Z" fill="#0928F5"/>
<path d="M20.8863 12.4088C20.7102 12.4088 20.5674 12.5515 20.5674 12.7277V22.2723C20.5674 22.4484 20.7102 22.5912 20.8863 22.5912C21.0624 22.5912 21.2052 22.4484 21.2052 22.2723V12.7277C21.2052 12.5516 21.0624 12.4088 20.8863 12.4088Z" fill="#0928F5"/>
<path d="M29.067 12.4088C28.8908 12.4088 28.748 12.5515 28.748 12.7277V22.2723C28.748 22.4484 28.8908 22.5912 29.067 22.5912C29.2431 22.5912 29.3859 22.4484 29.3859 22.2723V12.7277C29.3859 12.5515 29.2431 12.4088 29.067 12.4088Z" fill="#0928F5"/>
<path d="M12.7047 12.4088C12.5285 12.4088 12.3857 12.5515 12.3857 12.7277V22.2723C12.3857 22.4484 12.5285 22.5912 12.7047 22.5912C12.8808 22.5912 13.0236 22.4484 13.0236 22.2723V12.7277C13.0236 12.5516 12.8808 12.4088 12.7047 12.4088Z" fill="#0928F5"/>
<path d="M22.2496 12.4088C22.0735 12.4088 21.9307 12.5515 21.9307 12.7277V20.227C21.9307 20.4032 22.0735 20.5459 22.2496 20.5459C22.4257 20.5459 22.5685 20.4032 22.5685 20.227V12.7277C22.5685 12.5516 22.4258 12.4088 22.2496 12.4088Z" fill="#0928F5"/>
<path d="M23.6129 12.4088C23.4367 12.4088 23.2939 12.5515 23.2939 12.7277V20.227C23.2939 20.4032 23.4367 20.5459 23.6129 20.5459C23.789 20.5459 23.9318 20.4032 23.9318 20.227V12.7277C23.9318 12.5516 23.789 12.4088 23.6129 12.4088Z" fill="#0928F5"/>
<path d="M24.9771 12.4088C24.801 12.4088 24.6582 12.5515 24.6582 12.7277V20.227C24.6582 20.4032 24.801 20.5459 24.9771 20.5459C25.1533 20.5459 25.2961 20.4032 25.2961 20.227V12.7277C25.2961 12.5516 25.1533 12.4088 24.9771 12.4088Z" fill="#0928F5"/>
<path d="M26.3404 12.4088C26.1643 12.4088 26.0215 12.5515 26.0215 12.7277V20.227C26.0215 20.4032 26.1643 20.5459 26.3404 20.5459C26.5165 20.5459 26.6593 20.4032 26.6593 20.227V12.7277C26.6593 12.5516 26.5165 12.4088 26.3404 12.4088Z" fill="#0928F5"/>
<path d="M12.3642 9H10.6598C10.296 9 10 9.29601 10 9.65985V11.3642C10 11.5403 10.1428 11.6831 10.3189 11.6831C10.4951 11.6831 10.6379 11.5403 10.6379 11.3642V9.65985C10.6379 9.64773 10.6477 9.63786 10.6598 9.63786H12.3642C12.5403 9.63786 12.6831 9.49511 12.6831 9.31893C12.6831 9.14275 12.5403 9 12.3642 9Z" fill="#0928F5"/>
<path d="M31.1122 9H29.4078C29.2317 9 29.0889 9.14275 29.0889 9.31893C29.0889 9.49511 29.2317 9.63786 29.4078 9.63786H31.1122C31.1243 9.63786 31.1341 9.64768 31.1341 9.6598V11.3642C31.1341 11.5404 31.2769 11.6831 31.453 11.6831C31.6292 11.6831 31.772 11.5404 31.772 11.3642V9.6598C31.772 9.29597 31.476 9 31.1122 9Z" fill="#0928F5"/>
<path d="M31.4531 23.3169C31.2769 23.3169 31.1341 23.4597 31.1341 23.6358V25.3402C31.1341 25.3523 31.1243 25.3621 31.1122 25.3621H29.4078C29.2317 25.3621 29.0889 25.5049 29.0889 25.6811C29.0889 25.8572 29.2317 26 29.4078 26H31.1122C31.476 26 31.772 25.704 31.772 25.3402V23.6358C31.772 23.4597 31.6292 23.3169 31.4531 23.3169Z" fill="#0928F5"/>
<path d="M12.3642 25.3621H10.6598C10.6477 25.3621 10.6379 25.3523 10.6379 25.3402V23.6358C10.6379 23.4596 10.4951 23.3169 10.3189 23.3169C10.1428 23.3169 10 23.4596 10 23.6358V25.3402C10 25.704 10.296 26 10.6598 26H12.3642C12.5403 26 12.6831 25.8572 12.6831 25.6811C12.6831 25.5049 12.5403 25.3621 12.3642 25.3621Z" fill="#0928F5"/>
<line x1="9" y1="17.5" x2="32" y2="17.5" stroke="#5509F5"/>
</svg>
