<svg width="43" height="43" viewBox="0 0 43 43" fill="none" xmlns="http://www.w3.org/2000/svg">
<rect x="43" y="43" width="43" height="43" rx="8" transform="rotate(-180 43 43)" fill="#C1CBDC"/>
<path d="M21.2929 33.7071C21.6834 34.0976 22.3166 34.0976 22.7071 33.7071L29.0711 27.3431C29.4616 26.9526 29.4616 26.3195 29.0711 25.9289C28.6805 25.5384 28.0474 25.5384 27.6569 25.9289L22 31.5858L16.3431 25.9289C15.9526 25.5384 15.3195 25.5384 14.9289 25.9289C14.5384 26.3195 14.5384 26.9526 14.9289 27.3431L21.2929 33.7071ZM21 10L21 33L23 33L23 10L21 10Z" fill="black" fill-opacity="0.25"/>
</svg>
