<svg width="43" height="43" viewBox="0 0 43 43" fill="none" xmlns="http://www.w3.org/2000/svg">
<rect width="43" height="43" rx="8" fill="#FFCC00"/>
<path d="M12.3626 32.336C12.3626 32.804 12.4644 33.1398 12.6681 33.3435C12.8761 33.5472 13.1621 33.649 13.5261 33.649C13.8901 33.649 14.1761 33.5472 14.3841 33.3435C14.5921 33.1398 14.6961 32.804 14.6961 32.336V29.71H15.1511V32.557C15.1511 32.7693 15.1186 32.9687 15.0536 33.155C14.9886 33.337 14.8889 33.4973 14.7546 33.636C14.6203 33.7703 14.4513 33.8765 14.2476 33.9545C14.0439 34.0325 13.8034 34.0715 13.5261 34.0715C13.2228 34.0715 12.9649 34.0325 12.7526 33.9545C12.5446 33.8765 12.3756 33.7703 12.2456 33.636C12.1156 33.4973 12.0203 33.337 11.9596 33.155C11.9033 32.9687 11.8751 32.7693 11.8751 32.557V29.71H12.3626V32.336ZM18.3143 34V32.024C18.3143 31.764 18.2558 31.5777 18.1388 31.465C18.0218 31.3523 17.8723 31.296 17.6903 31.296C17.5819 31.296 17.4736 31.3133 17.3653 31.348C17.2613 31.3827 17.1638 31.4347 17.0728 31.504C16.9818 31.569 16.9016 31.6513 16.8323 31.751C16.7629 31.8463 16.7088 31.9568 16.6698 32.0825V34H16.2148V31.01H16.5723L16.6243 31.569H16.6503C16.7066 31.387 16.8323 31.2332 17.0273 31.1075C17.2223 30.9775 17.4649 30.9125 17.7553 30.9125C17.8939 30.9125 18.0239 30.932 18.1453 30.971C18.2709 31.0057 18.3793 31.0642 18.4703 31.1465C18.5613 31.2288 18.6328 31.3372 18.6848 31.4715C18.7411 31.6058 18.7693 31.7705 18.7693 31.9655V34H18.3143ZM21.8563 34V32.024C21.8563 31.7597 21.7978 31.5733 21.6808 31.465C21.5638 31.3523 21.4143 31.296 21.2323 31.296C21.1239 31.296 21.0156 31.3133 20.9073 31.348C20.8033 31.3827 20.7058 31.4347 20.6148 31.504C20.5238 31.569 20.4436 31.6513 20.3743 31.751C20.3049 31.8463 20.2508 31.9568 20.2118 32.0825V34H19.7568V29.19H20.2118V31.569C20.2681 31.387 20.3894 31.2332 20.5758 31.1075C20.7664 30.9775 21.0069 30.9125 21.2973 30.9125C21.4359 30.9125 21.5659 30.932 21.6873 30.971C21.8129 31.0057 21.9213 31.0642 22.0123 31.1465C22.1033 31.2288 22.1748 31.3372 22.2268 31.4715C22.2831 31.6058 22.3113 31.7705 22.3113 31.9655V34H21.8563ZM24.6117 30.9125C24.8761 30.9125 25.1036 30.958 25.2942 31.049C25.4849 31.1357 25.6409 31.2548 25.7622 31.4065C25.8879 31.5538 25.9789 31.725 26.0352 31.92C26.0959 32.1107 26.1262 32.3122 26.1262 32.5245C26.1262 32.7368 26.0959 32.9383 26.0352 33.129C25.9789 33.3153 25.8901 33.48 25.7687 33.623C25.6474 33.7617 25.4914 33.8722 25.3007 33.9545C25.1144 34.0368 24.8934 34.078 24.6377 34.078C24.3734 34.078 24.1437 34.0347 23.9487 33.948C23.7581 33.8613 23.5999 33.7465 23.4742 33.6035C23.3486 33.4562 23.2554 33.2872 23.1947 33.0965C23.1341 32.9058 23.1037 32.7043 23.1037 32.492C23.1037 32.2797 23.1341 32.0782 23.1947 31.8875C23.2554 31.6968 23.3464 31.53 23.4677 31.387C23.5934 31.2397 23.7516 31.1248 23.9422 31.0425C24.1329 30.9558 24.3561 30.9125 24.6117 30.9125ZM24.6312 33.7335C24.8046 33.7335 24.9541 33.701 25.0797 33.636C25.2097 33.571 25.3159 33.4843 25.3982 33.376C25.4849 33.2633 25.5477 33.1355 25.5867 32.9925C25.6257 32.8452 25.6452 32.6913 25.6452 32.531C25.6452 32.3663 25.6236 32.2082 25.5802 32.0565C25.5412 31.9048 25.4784 31.7727 25.3917 31.66C25.3051 31.543 25.1946 31.4498 25.0602 31.3805C24.9302 31.3112 24.7742 31.2765 24.5922 31.2765C24.4146 31.2765 24.2629 31.309 24.1372 31.374C24.0116 31.439 23.9076 31.5257 23.8252 31.634C23.7429 31.7423 23.6822 31.8702 23.6432 32.0175C23.6042 32.1605 23.5847 32.3122 23.5847 32.4725C23.5847 32.6372 23.6042 32.7953 23.6432 32.947C23.6866 33.0987 23.7494 33.233 23.8317 33.35C23.9184 33.467 24.0267 33.5602 24.1567 33.6295C24.2911 33.6988 24.4492 33.7335 24.6312 33.7335ZM27.4363 34H26.9813V29.19H27.4363V34ZM29.6091 34.078C29.3881 34.078 29.1953 34.0347 29.0306 33.948C28.866 33.8613 28.7295 33.7465 28.6211 33.6035C28.5128 33.4605 28.4305 33.2958 28.3741 33.1095C28.3221 32.9188 28.2961 32.7195 28.2961 32.5115C28.2961 32.2992 28.3243 32.0955 28.3806 31.9005C28.4413 31.7055 28.528 31.5365 28.6406 31.3935C28.7576 31.2462 28.9028 31.1292 29.0761 31.0425C29.2495 30.9558 29.451 30.9125 29.6806 30.9125C29.971 30.9125 30.2093 30.9753 30.3956 31.101C30.582 31.2267 30.7033 31.3827 30.7596 31.569V29.19H31.2146V34H30.8571L30.8051 33.467H30.7791C30.6751 33.6273 30.5235 33.7703 30.3241 33.896C30.1248 34.0173 29.8865 34.078 29.6091 34.078ZM29.6611 33.6945C29.8691 33.6945 30.0728 33.6382 30.2721 33.5255C30.4758 33.4128 30.6383 33.2503 30.7596 33.038V32.0825C30.6816 31.8355 30.5495 31.6427 30.3631 31.504C30.1811 31.3653 29.9753 31.296 29.7456 31.296C29.594 31.296 29.4575 31.3263 29.3361 31.387C29.2191 31.4477 29.1195 31.5322 29.0371 31.6405C28.9548 31.7488 28.8898 31.8788 28.8421 32.0305C28.7988 32.1822 28.7771 32.349 28.7771 32.531C28.7771 32.6697 28.7923 32.8083 28.8226 32.947C28.853 33.0857 28.9028 33.2113 28.9721 33.324C29.0415 33.4323 29.1325 33.5212 29.2451 33.5905C29.3578 33.6598 29.4965 33.6945 29.6611 33.6945Z" fill="#3C3D4F"/>
<path d="M29 16.5L16.25 23.8612L16.25 9.13878L29 16.5Z" fill="#3C3D4F"/>
</svg>
