<svg width="43" height="43" viewBox="0 0 43 43" fill="none" xmlns="http://www.w3.org/2000/svg">
<rect x="0.5" y="0.5" width="42" height="42" rx="7.5" fill="white" stroke="#0928F5"/>
<path d="M15.6431 30.7435C15.6431 30.8518 15.6626 30.9428 15.7016 31.0165C15.7449 31.0858 15.8099 31.1487 15.8966 31.205C15.9876 31.2613 16.1003 31.3155 16.2346 31.3675C16.3733 31.4152 16.5379 31.4715 16.7286 31.5365C16.8889 31.5885 17.0471 31.6492 17.2031 31.7185C17.3591 31.7835 17.4978 31.8658 17.6191 31.9655C17.7448 32.0608 17.8444 32.1822 17.9181 32.3295C17.9918 32.4725 18.0286 32.648 18.0286 32.856C18.0286 33.077 17.9853 33.2655 17.8986 33.4215C17.8119 33.5775 17.6971 33.7053 17.5541 33.805C17.4111 33.9003 17.2464 33.9697 17.0601 34.013C16.8738 34.0563 16.6809 34.078 16.4816 34.078C16.1999 34.078 15.9378 34.0433 15.6951 33.974C15.4524 33.9047 15.2423 33.8202 15.0646 33.7205L15.2011 33.246C15.2834 33.3023 15.3658 33.3565 15.4481 33.4085C15.5304 33.4562 15.6193 33.4973 15.7146 33.532C15.8143 33.5667 15.9226 33.5948 16.0396 33.6165C16.1566 33.6382 16.2909 33.649 16.4426 33.649C16.6376 33.649 16.8044 33.6317 16.9431 33.597C17.0818 33.5623 17.1944 33.5147 17.2811 33.454C17.3678 33.389 17.4306 33.3132 17.4696 33.2265C17.5086 33.1398 17.5281 33.0467 17.5281 32.947C17.5281 32.7997 17.4934 32.6762 17.4241 32.5765C17.3548 32.4725 17.2638 32.3837 17.1511 32.31C17.0428 32.2363 16.9214 32.1757 16.7871 32.128C16.6571 32.076 16.5271 32.0283 16.3971 31.985C16.2108 31.9243 16.0418 31.8593 15.8901 31.79C15.7384 31.7207 15.6084 31.6383 15.5001 31.543C15.3961 31.4477 15.3138 31.3372 15.2531 31.2115C15.1968 31.0858 15.1686 30.9363 15.1686 30.763C15.1686 30.568 15.2033 30.4033 15.2726 30.269C15.3463 30.1303 15.4438 30.0177 15.5651 29.931C15.6908 29.8443 15.8381 29.7815 16.0071 29.7425C16.1761 29.6992 16.3581 29.6775 16.5531 29.6775C16.7871 29.6775 17.0124 29.7013 17.2291 29.749C17.4458 29.7967 17.6299 29.8552 17.7816 29.9245L17.6451 30.425C17.5758 30.3643 17.4934 30.3145 17.3981 30.2755C17.3071 30.2322 17.2096 30.1997 17.1056 30.178C17.0059 30.152 16.9063 30.1347 16.8066 30.126C16.7069 30.113 16.6138 30.1065 16.5271 30.1065C16.2541 30.1065 16.0374 30.1585 15.8771 30.2625C15.7211 30.3622 15.6431 30.5225 15.6431 30.7435ZM20.7312 34L20.6792 33.467H20.6532C20.6012 33.5493 20.5318 33.6273 20.4452 33.701C20.3585 33.7747 20.261 33.8397 20.1527 33.896C20.0487 33.9523 19.9338 33.9957 19.8082 34.026C19.6868 34.0607 19.5655 34.078 19.4442 34.078C19.1582 34.078 18.9437 33.9957 18.8007 33.831C18.6577 33.662 18.5862 33.4518 18.5862 33.2005C18.5862 32.9535 18.649 32.7563 18.7747 32.609C18.9003 32.4617 19.0542 32.3512 19.2362 32.2775C19.4182 32.2038 19.6088 32.1562 19.8082 32.1345C20.0118 32.1128 20.1895 32.102 20.3412 32.102H20.6337V32.024C20.6337 31.8593 20.6098 31.7337 20.5622 31.647C20.5188 31.5603 20.4538 31.4867 20.3672 31.426C20.2935 31.3783 20.2133 31.3458 20.1267 31.3285C20.0443 31.3068 19.9338 31.296 19.7952 31.296C19.6132 31.296 19.4528 31.3198 19.3142 31.3675C19.1755 31.4152 19.0412 31.478 18.9112 31.556L18.8072 31.166C19.0975 30.997 19.4442 30.9125 19.8472 30.9125C20.0075 30.9125 20.1592 30.9277 20.3022 30.958C20.4452 30.984 20.5708 31.0317 20.6792 31.101C20.8048 31.179 20.9045 31.2895 20.9782 31.4325C21.0518 31.5755 21.0887 31.7532 21.0887 31.9655V34H20.7312ZM19.5807 33.6945C19.7583 33.6945 19.9468 33.6382 20.1462 33.5255C20.3455 33.4128 20.508 33.2503 20.6337 33.038V32.4335H20.5752C20.3975 32.4335 20.2198 32.44 20.0422 32.453C19.8645 32.466 19.702 32.4985 19.5547 32.5505C19.4117 32.6025 19.2947 32.6783 19.2037 32.778C19.1127 32.8733 19.0672 33.0055 19.0672 33.1745C19.0672 33.3435 19.1127 33.4735 19.2037 33.5645C19.299 33.6512 19.4247 33.6945 19.5807 33.6945ZM23.5206 34H22.9421L21.5836 31.01H22.0776L23.2411 33.571L24.4046 31.01H24.8791L23.5206 34ZM26.742 30.9125C27.1233 30.9125 27.418 31.01 27.626 31.205C27.834 31.3957 27.938 31.6665 27.938 32.0175C27.938 32.0912 27.9337 32.167 27.925 32.245C27.9163 32.3187 27.9012 32.3728 27.8795 32.4075H25.689V32.4725C25.689 32.6372 25.7107 32.7953 25.754 32.947C25.7973 33.0987 25.8623 33.233 25.949 33.35C26.0357 33.467 26.144 33.5602 26.274 33.6295C26.4083 33.6988 26.5665 33.7335 26.7485 33.7335C26.8525 33.7335 26.9543 33.7227 27.054 33.701C27.1537 33.675 27.249 33.6447 27.34 33.61C27.431 33.571 27.5155 33.5298 27.5935 33.4865C27.6715 33.4432 27.7408 33.3998 27.8015 33.3565L27.8795 33.727C27.8232 33.7617 27.7538 33.8007 27.6715 33.844C27.5892 33.883 27.4982 33.9198 27.3985 33.9545C27.2988 33.9892 27.1883 34.0173 27.067 34.039C26.95 34.065 26.8265 34.078 26.6965 34.078C26.4538 34.078 26.2393 34.0368 26.053 33.9545C25.8667 33.8678 25.7107 33.753 25.585 33.61C25.4593 33.4627 25.364 33.2937 25.299 33.103C25.234 32.9123 25.2015 32.713 25.2015 32.505C25.2015 32.2927 25.234 32.0912 25.299 31.9005C25.3683 31.7055 25.468 31.5343 25.598 31.387C25.728 31.2397 25.8883 31.1248 26.079 31.0425C26.274 30.9558 26.495 30.9125 26.742 30.9125ZM26.7225 31.2765C26.4365 31.2765 26.2133 31.3523 26.053 31.504C25.897 31.6513 25.7908 31.8377 25.7345 32.063H27.509C27.5133 32.0413 27.5155 32.0218 27.5155 32.0045C27.5155 31.9872 27.5155 31.9677 27.5155 31.946C27.5155 31.8377 27.4938 31.7423 27.4505 31.66C27.4072 31.5733 27.3487 31.5018 27.275 31.4455C27.2013 31.3892 27.1168 31.348 27.0215 31.322C26.9262 31.2917 26.8265 31.2765 26.7225 31.2765Z" fill="#0928F5"/>
<path d="M29.917 11.3497L27.6503 9.08302C27.5972 9.02988 27.5251 9.00002 27.45 9H14.4167C14.0411 9.00045 13.681 9.14985 13.4154 9.41543C13.1498 9.68101 13.0004 10.0411 13 10.4167V24.5833C13.0004 24.9589 13.1498 25.319 13.4154 25.5846C13.681 25.8501 14.0411 25.9995 14.4167 26H28.5833C28.9589 25.9995 29.319 25.8501 29.5846 25.5846C29.8501 25.319 29.9995 24.9589 30 24.5833V11.55C30 11.4749 29.9701 11.4028 29.917 11.3497ZM26.0333 9.56667V14.1C26.0333 14.1751 26.0035 14.2472 25.9503 14.3003C25.8972 14.3535 25.8251 14.3833 25.75 14.3833H17.25C17.1749 14.3833 17.1028 14.3535 17.0497 14.3003C16.9965 14.2472 16.9667 14.1751 16.9667 14.1V9.56667H26.0333ZM15.2667 25.4333V18.35C15.2667 18.1246 15.3562 17.9084 15.5156 17.749C15.675 17.5896 15.8912 17.5 16.1167 17.5H26.8833C27.1088 17.5 27.325 17.5896 27.4844 17.749C27.6438 17.9084 27.7333 18.1246 27.7333 18.35V25.4333H15.2667ZM29.4333 24.5833C29.4333 24.8088 29.3438 25.025 29.1844 25.1844C29.025 25.3438 28.8088 25.4333 28.5833 25.4333H28.3V18.35C28.2996 17.9744 28.1501 17.6143 27.8846 17.3488C27.619 17.0832 27.2589 16.9338 26.8833 16.9333H16.1167C15.7411 16.9338 15.381 17.0832 15.1154 17.3488C14.8498 17.6143 14.7004 17.9744 14.7 18.35V25.4333H14.4167C14.1912 25.4333 13.975 25.3438 13.8156 25.1844C13.6562 25.025 13.5667 24.8088 13.5667 24.5833V10.4167C13.5667 10.1912 13.6562 9.97503 13.8156 9.81563C13.975 9.65622 14.1912 9.56667 14.4167 9.56667H16.4V14.1C16.4 14.3254 16.4896 14.5416 16.649 14.701C16.8084 14.8604 17.0246 14.95 17.25 14.95H25.75C25.9754 14.95 26.1916 14.8604 26.351 14.701C26.5104 14.5416 26.6 14.3254 26.6 14.1V9.56667H27.3327L29.4333 11.6673V24.5833Z" fill="#0928F5"/>
<path d="M23.4835 13.8166H25.1835C25.2587 13.8166 25.3307 13.7868 25.3839 13.7336C25.437 13.6805 25.4669 13.6084 25.4669 13.5333V10.4166C25.4669 10.3415 25.437 10.2694 25.3839 10.2163C25.3307 10.1632 25.2587 10.1333 25.1835 10.1333H23.4835C23.4084 10.1333 23.3363 10.1632 23.2832 10.2163C23.23 10.2694 23.2002 10.3415 23.2002 10.4166V13.5333C23.2002 13.6084 23.23 13.6805 23.2832 13.7336C23.3363 13.7868 23.4084 13.8166 23.4835 13.8166ZM23.7669 10.7H24.9002V13.25H23.7669V10.7Z" fill="#0928F5"/>
<path d="M25.7501 21.1833H17.2501C17.175 21.1833 17.1029 21.2132 17.0498 21.2663C16.9966 21.3195 16.9668 21.3915 16.9668 21.4667C16.9668 21.5418 16.9966 21.6139 17.0498 21.667C17.1029 21.7202 17.175 21.75 17.2501 21.75H25.7501C25.8253 21.75 25.8973 21.7202 25.9505 21.667C26.0036 21.6139 26.0335 21.5418 26.0335 21.4667C26.0335 21.3915 26.0036 21.3195 25.9505 21.2663C25.8973 21.2132 25.8253 21.1833 25.7501 21.1833Z" fill="#0928F5"/>
<path d="M25.7501 19.4834H17.2501C17.175 19.4834 17.1029 19.5132 17.0498 19.5664C16.9966 19.6195 16.9668 19.6916 16.9668 19.7667C16.9668 19.8419 16.9966 19.9139 17.0498 19.9671C17.1029 20.0202 17.175 20.0501 17.2501 20.0501H25.7501C25.8253 20.0501 25.8973 20.0202 25.9505 19.9671C26.0036 19.9139 26.0335 19.8419 26.0335 19.7667C26.0335 19.6916 26.0036 19.6195 25.9505 19.5664C25.8973 19.5132 25.8253 19.4834 25.7501 19.4834Z" fill="#0928F5"/>
<path d="M25.7501 22.8833H17.2501C17.175 22.8833 17.1029 22.9132 17.0498 22.9663C16.9966 23.0194 16.9668 23.0915 16.9668 23.1666C16.9668 23.2418 16.9966 23.3138 17.0498 23.367C17.1029 23.4201 17.175 23.45 17.2501 23.45H25.7501C25.8253 23.45 25.8973 23.4201 25.9505 23.367C26.0036 23.3138 26.0335 23.2418 26.0335 23.1666C26.0335 23.0915 26.0036 23.0194 25.9505 22.9663C25.8973 22.9132 25.8253 22.8833 25.7501 22.8833Z" fill="#0928F5"/>
</svg>
